<?xml version="1.0" encoding="utf-8"?>
<!-- Generator: Adobe Illustrator 23.0.3, SVG Export Plug-In . SVG Version: 6.00 Build 0)  -->
<svg version="1.1" id="Ebene_1" xmlns="http://www.w3.org/2000/svg" xmlns:xlink="http://www.w3.org/1999/xlink" x="0px" y="0px"
	 viewBox="0 0 847.4 546.6" style="enable-background:new 0 0 847.4 546.6;" xml:space="preserve">
<style type="text/css">
	.st0{fill:none;stroke:#535461;stroke-width:2;stroke-miterlimit:10;}
	.st1{fill:#D73534;}
	.st2{fill:url(#SVGID_1_);}
	.st3{fill:#DDE1EC;}
	.st4{opacity:0.3;fill:#535461;enable-background:new    ;}
	.st5{opacity:0.1;}
	.st6{fill:#535461;}
	.st7{fill:url(#SVGID_2_);}
	.st8{fill:#F8BDC5;}
	.st9{fill:#5E52AD;}
	.st10{opacity:3.000000e-02;}
	.st11{fill:#5D3E53;}
	.st12{fill:#85555C;}
	.st13{fill:#ED677B;}
	.st14{opacity:5.000000e-02;enable-background:new    ;}
</style>
<title>time management</title>
<path class="st0" d="M158.1,261.4c0,0-34.1,32.2-70.8,33.2c-15.4,0.3-30.2,5.6-42.4,15.1c-5.7,4.5-11,9.6-15.8,15.1"/>
<path class="st1" d="M6.1,325.5c4.9-2.5,23.7-0.8,23.7-0.8s-9.7,16.2-14.7,18.7c-4.8,2.8-10.9,1.2-13.7-3.5s-1.2-10.9,3.5-13.7
	C5.3,325.9,5.7,325.7,6.1,325.5L6.1,325.5z"/>
<path class="st1" d="M25.8,297c5.5,0.6,20.4,12.2,20.4,12.2s-17,8.3-22.4,7.7c-5.5-0.8-9.2-5.9-8.4-11.4
	C16.1,300.3,20.7,296.7,25.8,297z"/>
<path class="st1" d="M72.7,274c4.4,3.3,11.4,20.8,11.4,20.8s-18.8-1.4-23.3-4.7c-4.3-3.5-5-9.8-1.5-14.1
	C62.6,272,68.4,271.1,72.7,274z"/>
<path class="st1" d="M112.1,264.5c4.9,2.5,14.8,18.6,14.8,18.6s-18.8,1.8-23.7-0.7c-5.1-2.2-7.4-8.1-5.2-13.2
	c2.2-5.1,8.1-7.4,13.2-5.2C111.5,264.2,111.8,264.4,112.1,264.5L112.1,264.5z"/>
<path class="st1" d="M56.6,327.4c1.6-5.3-3.2-23.5-3.2-23.5s-14.3,12.3-15.9,17.6c-1.9,5.2,0.8,10.9,6,12.8c5.2,1.9,10.9-0.8,12.8-6
	C56.5,328,56.6,327.7,56.6,327.4z"/>
<path class="st1" d="M102.6,315.7c0-5.5-10.1-21.5-10.1-21.5s-9.9,16-9.9,21.5c0,5.5,4.5,10,10,10
	C98.1,325.7,102.6,321.3,102.6,315.7L102.6,315.7L102.6,315.7z"/>
<path class="st1" d="M145.7,298.4c0.9-5.4-6.3-22.9-6.3-22.9s-12.5,14.1-13.4,19.6c-0.7,5.5,3.2,10.5,8.7,11.1
	C139.8,306.8,144.6,303.4,145.7,298.4L145.7,298.4z"/>
<path class="st0" d="M202.5,176.1c0,0-41.1-22.6-53.3-57.2c-5-14.5-14.6-27.1-27.4-35.7c-6.1-4-12.5-7.5-19.2-10.4"/>
<path class="st1" d="M94.7,51.1c3.9,3.9,8.1,22.3,8.1,22.3s-18.4-4.3-22.3-8.2c-3.7-4.1-3.4-10.4,0.7-14.1
	C85.1,47.6,90.9,47.6,94.7,51.1z"/>
<path class="st1" d="M128,61.1c1.1,5.4-5.3,23.1-5.3,23.1s-13.1-13.6-14.2-19c-1.4-5.3,1.8-10.8,7.2-12.2c5.3-1.4,10.8,1.8,12.2,7.2
	C127.9,60.5,128,60.8,128,61.1L128,61.1z"/>
<path class="st1" d="M164.3,98.7C162.6,104,148,116,148,116s-4.4-18.3-2.7-23.6c1.7-5.2,7.4-8.1,12.7-6.3S166.1,93.5,164.3,98.7
	L164.3,98.7L164.3,98.7z"/>
<path class="st1" d="M185.4,133.3c-0.8,5.4-13.1,19.8-13.1,19.8s-7.5-17.3-6.6-22.8c0.6-5.5,5.5-9.5,11-8.9c5.5,0.6,9.5,5.5,8.9,11
	C185.5,132.6,185.4,133,185.4,133.3L185.4,133.3z"/>
<path class="st1" d="M108.5,99.8c5.5-0.1,21.4-10.2,21.4-10.2s-16.1-9.8-21.6-9.7c-5.5,0.1-9.9,4.6-9.9,10.1
	C98.5,95.5,103,99.9,108.5,99.8L108.5,99.8L108.5,99.8z"/>
<path class="st1" d="M133.7,139.9c5.2-1.7,17.4-16.2,17.4-16.2s-18.3-4.5-23.5-2.8c-5.3,1.5-8.4,7-6.9,12.4c1.5,5.3,7,8.4,12.4,6.9
	C133.2,140.1,133.5,140,133.7,139.9L133.7,139.9z"/>
<path class="st1" d="M163.5,175.6c5.5-0.8,19.8-13,19.8-13s-17.3-7.6-22.7-6.8c-5.5,0.6-9.5,5.5-8.9,11s5.5,9.5,11,8.9
	C162.9,175.7,163.2,175.7,163.5,175.6L163.5,175.6z"/>
<linearGradient id="SVGID_1_" gradientUnits="userSpaceOnUse" x1="485.391" y1="5.18" x2="485.391" y2="729.18" gradientTransform="matrix(1 0 0 -1 0 729.18)">
	<stop  offset="0" style="stop-color:#808080;stop-opacity:0.25"/>
	<stop  offset="0.54" style="stop-color:#808080;stop-opacity:0.12"/>
	<stop  offset="1" style="stop-color:#808080;stop-opacity:0.1"/>
</linearGradient>
<circle class="st2" cx="485.4" cy="362" r="362"/>
<circle class="st1" cx="485.4" cy="362" r="356"/>
<circle class="st3" cx="485.4" cy="362" r="283"/>
<rect x="477.4" y="129" class="st4" width="16" height="250"/>
<g class="st5">
	<rect x="502.4" y="356" width="226" height="20"/>
	<rect x="399.3" y="247" transform="matrix(0.4639 -0.8859 0.8859 0.4639 -70.5024 538.0284)" width="20" height="160.5"/>
	<circle cx="485.4" cy="366" r="30"/>
</g>
<rect x="502.4" y="352" class="st6" width="226" height="20"/>
<rect x="399.4" y="243" transform="matrix(0.4639 -0.8859 0.8859 0.4639 -66.944 535.9546)" class="st6" width="20" height="160.5"/>
<circle class="st6" cx="485.4" cy="362" r="30"/>
<g class="st5">
	<path d="M224.4,396c0-156.3,126.7-283,283-283c88.9-0.1,172.7,41.7,226.2,112.8C685.4,138.3,592.4,79,485.4,79
		c-156.3,0-283,126.7-283,283c-0.1,61.4,19.9,121.2,56.9,170.2C236.3,490.4,224.3,443.6,224.4,396z"/>
</g>
<linearGradient id="SVGID_2_" gradientUnits="userSpaceOnUse" x1="711.9274" y1="155.3356" x2="711.9274" y2="572.3297" gradientTransform="matrix(1 0 0 -1 -81.08 665.32)">
	<stop  offset="0" style="stop-color:#808080;stop-opacity:0.25"/>
	<stop  offset="0.54" style="stop-color:#808080;stop-opacity:0.12"/>
	<stop  offset="1" style="stop-color:#808080;stop-opacity:0.1"/>
</linearGradient>
<path class="st7" d="M746.9,153.8c-3.4-3.2-31.6,18-31.6,18s-10.1,1.8-7.7,8.8S697,226.2,697,226.2l-5.3-7.4
	c0.5-8.6-1.9-14.8-4.2-18.6c-0.2-0.3-0.4-0.6-0.6-0.9l0.9-0.3c-0.3-4.7-7.9-11.9-11.9-15.4c0-0.5,0-1,0-1.5c0.3-5.6,2.5-11.6,0-16.7
	c-2.8-5.8-11.2-8.8-11.8-15.2c-0.4-3.8,2.2-7.3,3.3-10.9c2.7-8.8-2.9-17.8-8.3-25.4c-1.8-2.8-4.1-5.4-6.6-7.6
	c-2.4-1.8-5.1-3.2-7.9-4.2c-7.9-3.2-16-4.8-24.2-7c-7.8-2.1-15-3.1-23-0.5c-1.9,0.5-3.6,1.5-5,2.9c-1.9,2.1-2.1,5.1-3.4,7.7
	c-2,4.1-6.3,6.5-10.1,9.1s-7.6,6.2-7.7,10.7c0,6.4,7.3,10.4,9.7,16.4c2.3,5.5,0,11.7-1.3,17.6c-0.5,1.9-0.6,3.9-0.2,5.8
	c0.5,1.4,1.3,2.7,2.2,3.9c1.5,2,3.1,3.9,4.7,5.8l-0.7,0.3c-13.4-1.4-22,15.7-22,15.7c0.6,0.1,1.2,0.3,1.8,0.5l-0.6,0.7
	c-4.1,5.3-7.4,11.1-9.8,17.2l-11,14.7c0,0-2.4-36.9,3.4-45.1s-5.3-13.4-5.3-13.4s-24-26.7-27.3-24.4c-3.3,2.3,8.2,31.3,18.2,35.9
	c0,0,1,9.2-1,15.2c-1.2,3.8-7.7,43.8-7.7,43.8s-5.8,33.6,20.6,17c17.1-10.8,28.2-29.3,33.8-41c0.4-0.8,0.8-1.6,1.1-2.4
	c0.3,1.2,0.4,2.5,0.5,3.8l1,38.5c0.3,9.5-1.8,19-6.1,27.5l-11.7,23.8l1.3,0.4l-0.8,1.1c-7.7,11.4-20.9,37,6.2,50l36,4.6l-1.9,9.2
	c0,0-14.9,28.1-19.2,47.5c-2.7,11.8-6.9,23.3-12.5,34.1l1.1,0.6c-0.2,0.3-0.5,0.5-0.7,0.8c-2.2,2.5-3.6,5.5-4.2,8.7l-4.9,6.9
	c0,0-1.9,28.6,1.9,35.5c2.1,3.8,9.1,6.2,15,7.6c8.8,2.1,15.9-7,11.2-14.5l-0.1-0.1h-0.1c-1-4.7-4.1-19.1-3.1-24.6
	c0.3-1.6,0.5-3.1,0.7-4.7c0.2-2.1,0.9-4.1,1.9-5.9c0.2-0.3,0.3-0.6,0.5-0.9l0.5,0.2c1.6,0.7,3.2,1.3,4.7,1.9c-2.3,2.1-4,6.5-2,15.6
	c0,0,0.2,22.7,1.9,26.3s21.1,8.3,24.5,4.6s-2.2-16.4-2.2-16.4l-0.2,0.1c-1.1-7.3-2.5-20.5,0.9-25.7c1.4-2.1,2.7-4.3,3.9-6.3l0.7-1.3
	l0,0c6.3,3.1,12.9,5.5,16.5,3.8c0,0,15.8-36.9,14.9-41.5c-1-4.6,24.5-56.7,24.5-56.7s21.6-24-4.8-40.5c-8.4-5.3-14.5-8.8-18.9-11.2
	l-3.7-19.4c-1.9-10.2-1.6-20.6,1-30.7l4-15.3l0,0l0.3-1.3c0,0,10.1-20.7,9.6-30.4c0-0.8,0-1.5,0.3-2.2c0.1,0.5,0.2,0.9,0.4,1.4
	c2.6,10.1,6.1,19.9,10.4,29.4c7.7,17.3,19,15.9,25.2,13.4c2.7-1,4.7-3.4,5.3-6.2c2.2-10.7,8.4-40.8,8.8-49.1
	c0.3-6.5,1.2-13,2.4-19.4C736.8,173.2,750.2,157.1,746.9,153.8z"/>
<path class="st8" d="M629.5,449c0,0-2.1,4.2-5,9.3c-1.1,2-2.4,4.2-3.7,6.2c-4.6,7.3,0,30.6,0,30.6l-10,1.4l-10-5l-1.8-16.9v-12.4
	l11.4-12.8l5-5.5L629.5,449z"/>
<g class="st5">
	<path d="M629.5,449c0,0-2.1,4.2-5,9.3c-4.4-2.4-8.7-5-12.8-7.9l-0.9-0.6l-0.5-0.3l5-5.5L629.5,449z"/>
</g>
<path class="st9" d="M678.4,363.6c0,0-24.2,51.6-23.3,56.2s-14.2,41.1-14.2,41.1c-3.4,1.6-9.8-0.7-15.7-3.8c-4.5-2.4-8.8-5.1-13-8
	l-0.9-0.6l-0.5-0.4L650.5,338l-35.2-25.8l-2.6-1.9l-15.7-11.6l48,8.7c0,0,1.7-0.2,10.5,4.7c4.2,2.4,10.1,5.9,18.3,11.3
	C698.9,339.9,678.4,363.6,678.4,363.6z"/>
<g class="st10">
	<path d="M678.4,363.6c0,0-24.2,51.6-23.3,56.2s-14.2,41.1-14.2,41.1c-3.4,1.6-9.8-0.7-15.7-3.8c-4.5-2.4-8.8-5.1-13-8l-0.9-0.6
		l-0.5-0.4L650.5,338l-35.2-25.8l-2.6-1.9l-15.7-11.6l48,8.7c0,0,1.7-0.2,10.5,4.7c4.2,2.4,10.1,5.9,18.3,11.3
		C698.9,339.9,678.4,363.6,678.4,363.6z"/>
</g>
<path class="st11" d="M604.8,458.2c0,0-11.9-1.8-7.8,17.4c0,0,0.2,22.5,1.8,26s20.1,8.2,23.3,4.6s-2.1-16.2-2.1-16.2
	s-13.5,9.8-17.1-0.7S604.8,458.2,604.8,458.2z"/>
<path class="st8" d="M596.6,454.5c-1.3,1.2-2.4,2.7-3.1,4.3c-0.9,1.8-1.5,3.8-1.8,5.9c-0.1,1.6-0.4,3.1-0.6,4.7
	c-1.1,6.5,3.2,25.8,3.2,25.8l-17.4,2.7l-6.4-6.8l-1.4-15.1c1.7-5.2,2.6-10.6,2.7-16c0-3.9,2-7.4,4-10c1.4-1.7,2.9-3.2,4.6-4.6
	C580.6,445.4,600.3,451.3,596.6,454.5z"/>
<g class="st5">
	<path d="M596.6,454.5c-1.3,1.2-2.4,2.7-3.1,4.3c-7.1-3.2-14.6-7.3-17.3-8.8L576,450c1.4-1.7,2.9-3.2,4.6-4.6
		C580.6,445.4,600.3,451.3,596.6,454.5z"/>
</g>
<path class="st9" d="M652.8,349.9c0,0-11.4,21.5-18.7,39.3c-4.8,11.7-14.7,39.6-21,57.3l-0.9,2.6c-2.8,7.8-4.6,13.2-4.6,13.2
	c-1.2,0-2.4-0.2-3.6-0.5c-1.1-0.3-2.3-0.7-3.6-1.2l-1.5-0.5c-1.4-0.6-3-1.2-4.5-1.9c-7.3-3.2-15-7.5-17.8-9l-1.1-0.6
	c5.4-10.7,9.4-22.1,11.9-33.8c4.1-19.2,18.3-47,18.3-47l1.8-9.1l-34.3-4.6c-25.8-12.9-13.3-38.3-5.9-49.6c1.3-2,2.6-3.9,4.1-5.7
	l27.4,6c0,0,4.3,1.4,13.9,5.6l4.4,2c5.4,2.5,12,5.7,20,9.7C664.2,335.7,652.8,349.9,652.8,349.9z"/>
<path class="st11" d="M594.1,493.8c2.7,4.6,1.2,10.6-3.4,13.3c-2.2,1.3-4.8,1.7-7.3,1.1c-5.6-1.4-12.3-3.8-14.3-7.5
	c-3.7-6.8-1.8-35.2-1.8-35.2l4.8-7.1c0,0-2.5,31.3,3.4,34s18.5,1.3,18.5,1.3L594.1,493.8z"/>
<path class="st12" d="M599,96.6c-1.8,0.5-3.5,1.5-4.8,2.9c-1.8,2.1-2,5.1-3.2,7.6c-1.9,4-6,6.4-9.6,9s-7.3,6.1-7.3,10.6
	c0,6.3,7,10.3,9.3,16.2c2.2,5.5,0,11.6-1.2,17.4c-0.5,1.9-0.6,3.8-0.1,5.7c0.5,1.4,1.2,2.7,2.1,3.9c4.4,6,9.9,11.3,12.8,18.1
	c2.2,5.2,2.9,10.9,3.5,16.5c0.8,8.1,1.7,16.4,0.2,24.4c-0.1,0.5-0.1,1,0,1.5c0.3,0.5,0.7,0.8,1.2,1c11.9,5.8,26.3,0.8,32.1-11.1
	c0.1-0.3,0.3-0.6,0.4-0.9c2-4.5,2.8-10,6.7-12.9c0.5-0.4,1-0.6,1.6-0.7c0.9,0,1.8,0.3,2.6,0.9c5.1,2.8,11.4,2.9,17.1,1.7
	c3.5-0.7,7-1.9,9.3-4.6c4.5-5.4,2-13.4,2.3-20.4c0.2-5.6,2.4-11.5,0-16.6c-2.7-5.8-10.6-8.7-11.3-15c-0.4-3.8,2.1-7.2,3.2-10.9
	c2.6-8.7-2.8-17.6-7.9-25.1c-1.7-2.8-3.8-5.3-6.3-7.6c-2.3-1.8-4.9-3.2-7.6-4.2c-7.5-3.2-15.2-4.8-23-6.9
	C613.5,95,606.6,94,599,96.6z"/>
<path class="st8" d="M637.3,227.1h-26.5v-42.9c0.8-4.1,1.2-8.3,1.4-12.5c0-1.4,0-2.9,0-4.3c-0.3-5.1-1.3-10.2-4.1-13.4
	c-7.3-8.2,23.8-6.9,23.8-6.9c1,3.8,2.2,7.5,3.7,11.1c2.3,5.6,5.2,10.9,8.9,15.7c3.2,4.3,7.3,7.8,12.1,10.3
	C674.7,193.2,637.3,227.1,637.3,227.1z"/>
<g class="st5">
	<path d="M635.5,158.2c-5.5,7.2-14.5,10.7-23.4,9.1c-0.3-5.1-1.3-10.2-4.1-13.4c-7.3-8.2,23.8-6.9,23.8-6.9
		C632.7,150.9,634,154.6,635.5,158.2z"/>
</g>
<circle class="st8" cx="616.2" cy="142.1" r="24.2"/>
<path class="st8" d="M716.7,183.7c-1.2,6.3-2,12.7-2.3,19.2c-0.4,8.2-6.2,38.1-8.4,48.7c-0.5,2.8-2.4,5.1-5.1,6.2
	c-5.9,2.4-16.7,3.8-24-13.3c-4.1-9.4-7.4-19.1-9.9-29.1c-0.9-3.3-1.6-6.7-2-10.2l16-8.7c1.5,1.4,2.8,3,3.8,4.9
	c2.2,3.8,4.5,9.9,4,18.4l5,7.3c0,0,12.3-38.4,10-45.2s7.3-8.7,7.3-8.7s27-21,30.2-17.8S731.8,174.5,716.7,183.7z"/>
<path class="st8" d="M585.6,201.9c-1.2,3.6-2.7,7.1-4.3,10.5c-5.4,11.6-15.9,30-32.2,40.7c-25.1,16.4-19.6-16.9-19.6-16.9
	s6.2-39.6,7.3-43.4c1.8-5.9,0.9-15.1,0.9-15.1c-9.6-4.6-20.5-33.3-17.4-35.6s26,24.2,26,24.2s10.5,5,5,13.3s-3.2,44.8-3.2,44.8
	l10.6-14.6c2.4-6.1,5.5-11.8,9.4-17.1c2-2.7,3.4-4.4,3.4-4.4L585.6,201.9z"/>
<g class="st5">
	<path d="M684.9,201.3c-3.4,1.2-16.4,6.5-17.8,14c-0.9-3.3-1.6-6.7-2-10.2l16-8.7C682.6,197.8,683.9,199.5,684.9,201.3z"/>
</g>
<g class="st5">
	<path d="M585.6,201.9c-1.2,3.6-2.7,7.1-4.3,10.5c-0.6-4.5-3.2-16.1-13.3-19.8c2-2.7,3.4-4.4,3.4-4.4L585.6,201.9z"/>
</g>
<g class="st5">
	<path d="M637.3,227.1h-26.5v-42.9c0.8-4.1,1.2-8.3,1.4-12.5c5.5,5.3,4.1,13.4,4.1,13.4l14.2,32l6.9-28.3l-2.3-3.6l9.4-11.2
		c3.2,4.3,7.3,7.8,12.1,10.3C674.7,193.2,637.3,227.1,637.3,227.1z"/>
</g>
<g class="st5">
	<path d="M656,314.7c0,0-20.8-1.6-38.8-2.4l-1.8-0.1c-2.6-0.1-5-0.2-7.4-0.2c-17.5-0.4-37.3-6.5-40.6-7.6c1.3-2,2.6-3.8,4.1-5.7
		l27.4,6c0,0,4.3,1.4,13.9,5.6l-15.8-11.6l48,8.7c0,0,1.7-0.2,10.5,4.7L656,314.7z"/>
</g>
<path class="st13" d="M637.3,190.5l-2.3-3.6l10.1-12.1c0,0,20.9,10.3,26.4,8c0,0,13.3,11,13.7,17.4c0,0-19.2,6.4-18.7,16
	s-9.1,30.1-9.1,30.1l-4,16.4c-2.5,10-2.8,20.3-1,30.4l3.7,20.3c0,0-28.8-2.3-48-2.7c-19.2-0.5-41.1-7.8-41.1-7.8l11.2-23.6
	c4-8.5,6-17.9,5.8-27.3l-1-38.2c0,0-0.9-19.2-16-22.4c0,0,8.2-16.9,21-15.5c0,0,18.6-7.8,24.2-2.5c5.5,5.3,4.2,13.5,4.2,13.5
	l14.2,32L637.3,190.5z"/>
<g class="st5">
	<path d="M598.8,137.1c3.7,0,6.5-3.9,10.2-3.7c1.9,0.1,3.5,1.3,5.1,2.4c5.9,4.1,12.5,7.2,19.5,9c2.7,0.7,5.6,1.3,8.3,0.6
		s5.3-2.8,5.6-5.6c0.1-1.2-0.1-2.5-0.5-3.6c-3.1-10.7-10-19.9-19.5-25.8c-3.8-2.3-8.4-4.1-12.7-2.6c-3.8,1.3-6.3,4.9-9,7.8
		c-2.1,2.2-4.4,4.1-7,5.7c-2,1.2-5,2-6.2,4.2C590.5,129.6,593.9,137.1,598.8,137.1z"/>
</g>
<path class="st12" d="M598.8,136.2c3.7,0,6.5-3.9,10.2-3.7c1.9,0.1,3.5,1.3,5.1,2.4c5.9,4.1,12.5,7.2,19.5,9
	c2.7,0.7,5.6,1.3,8.3,0.6s5.3-2.8,5.6-5.6c0.1-1.2-0.1-2.5-0.5-3.6c-3.1-10.7-10-19.9-19.5-25.8c-3.8-2.3-8.4-4.1-12.7-2.6
	c-3.8,1.3-6.3,4.9-9,7.8c-2.1,2.2-4.4,4.1-7,5.7c-2,1.2-5,2-6.2,4.2C590.5,128.7,593.9,136.1,598.8,136.2z"/>
<path class="st14" d="M587.7,240.5c0,0,22.4,8.2,37,1.8l7.3,0.5c0,0,12.2,8.5,25,4.7"/>
<path class="st14" d="M693.7,226.8c0,0-3.7,8.7-1.8,11.4"/>
<path class="st14" d="M548,224.1c0,0,1.8,8.7,0,11.4"/>
</svg>
