<?xml version="1.0" encoding="utf-8"?>
<!-- Generator: Adobe Illustrator 23.0.3, SVG Export Plug-In . SVG Version: 6.00 Build 0)  -->
<svg version="1.1" id="Ebene_1" xmlns="http://www.w3.org/2000/svg" xmlns:xlink="http://www.w3.org/1999/xlink" x="0px" y="0px"
	 viewBox="0 0 757 459.7" style="enable-background:new 0 0 757 459.7;" xml:space="preserve">
<style type="text/css">
	.st0{fill:#3F3D56;}
	.st1{fill:#65617D;}
	.st2{opacity:0.2;enable-background:new    ;}
	.st3{opacity:0.1;enable-background:new    ;}
	.st4{fill:#D73534;}
	.st5{fill:#D4DFEC;}
	.st6{fill:#FBBEBE;}
	.st7{fill:url(#SVGID_1_);}
	.st8{opacity:0.1;}
	.st9{fill:none;stroke:#D73534;stroke-width:2;stroke-miterlimit:10;}
</style>
<title>programming</title>
<rect x="105.5" y="181.8" class="st0" width="19" height="57.7"/>
<rect x="616.8" y="178.8" class="st0" width="19" height="61"/>
<polygon class="st1" points="757,449.7 757,462.7 605.1,464.1 603.5,464.1 545.7,464.6 544.3,464.6 526.8,464.8 526.3,464.8 
	419.3,465.8 243.7,467.4 243.5,467.4 198.9,467.8 198.4,467.8 0,469.7 0,454.7 46.7,426.7 140.3,425.9 142.3,425.9 142.9,425.9 
	144.9,425.8 189.9,425.5 191.9,425.5 192.5,425.4 194.5,425.4 208.9,425.3 209.3,425.3 244.8,425 245.1,425 522.5,422.7 
	529.3,422.6 530,422.6 535.2,422.6 572.8,422.3 574.8,422.2 576.7,422.2 577.6,422.2 589.4,422.1 591.7,422.1 594.8,422.1 
	604.5,422 620,421.8 622,421.8 625.5,421.8 626.1,421.8 700.8,421.2 "/>
<polygon class="st2" points="757,449.7 757,462.7 605.1,464.1 603.5,464.1 545.7,464.6 544.3,464.6 526.8,464.8 526.3,464.8 
	419.3,465.8 243.7,467.4 243.5,467.4 198.9,467.8 198.4,467.8 0,469.7 0,454.7 46.7,426.7 140.3,425.9 142.3,425.9 142.9,425.9 
	144.9,425.8 189.9,425.5 191.9,425.5 192.5,425.4 194.5,425.4 208.9,425.3 209.3,425.3 244.8,425 245.1,425 522.5,422.7 
	529.3,422.6 530,422.6 535.2,422.6 572.8,422.3 574.8,422.2 576.7,422.2 577.6,422.2 589.4,422.1 591.7,422.1 594.8,422.1 
	604.5,422 620,421.8 622,421.8 625.5,421.8 626.1,421.8 700.8,421.2 "/>
<path class="st0" d="M190,399.7v24.5c0,2.4-1.4,4.5-3.5,5.5c-0.8,0.4-1.6,0.6-2.5,0.6l-34.9,0.7c-0.9,0-1.9-0.2-2.7-0.6
	c-2.2-1-3.6-3.2-3.6-5.6v-25.2H190z"/>
<path class="st3" d="M190,399.7v24.5c0,2.4-1.4,4.5-3.5,5.5c-0.8,0.4-1.6,0.6-2.5,0.6l-34.9,0.7c-0.9,0-1.9-0.2-2.7-0.6
	c-2.2-1-3.6-3.2-3.6-5.6v-25.2H190z"/>
<path class="st0" d="M192,399.7v24.5c0,2.4-1.4,4.5-3.5,5.5c-0.8,0.4-1.6,0.6-2.5,0.6l-34.9,0.7c-0.9,0-1.9-0.2-2.7-0.6
	c-2.2-1-3.6-3.2-3.6-5.6v-25.2H192z"/>
<rect x="574.8" y="399.7" class="st0" width="47.2" height="31.5"/>
<rect x="574.8" y="399.7" class="st3" width="47.2" height="31.5"/>
<rect x="572.8" y="399.7" class="st0" width="47.2" height="31.5"/>
<polygon class="st3" points="124.5,181.8 124.5,187.6 105.5,187.1 105.5,181.8 "/>
<path class="st1" d="M249.6,20.4l-22.8,164c-0.3,2.2-2.2,3.8-4.4,3.7l-182.8-4.7l-3.5-0.1c-2.4-0.1-4.3-2-4.2-4.4c0-0.2,0-0.3,0-0.5
	L57.6,6.7c0.3-2.2,2.3-3.8,4.5-3.6l183.5,12.4c2.4,0.1,4.2,2.2,4,4.5C249.6,20.2,249.6,20.3,249.6,20.4z"/>
<polygon class="st4" points="69.8,15.2 50.5,166.5 218.5,171.8 239.2,25.8 "/>
<path class="st1" d="M283.8,12.8h194c2.9,0,5.3,2.4,5.3,5.3v162.7c0,2.9-2.4,5.3-5.3,5.3h-194c-2.9,0-5.3-2.4-5.3-5.3V18.2
	C278.5,15.2,280.9,12.8,283.8,12.8z"/>
<rect x="288.2" y="24.5" class="st4" width="186" height="144.3"/>
<polygon class="st3" points="635.8,178.8 635.8,182.6 616.8,183 616.8,178.8 "/>
<path class="st1" d="M721.6,175.6c0.1,1.7-1.2,3.2-2.9,3.3c0,0-0.1,0-0.1,0l-187.2,3.9c-1.6,0-3-1.2-3.1-2.8L512.1,12.7
	c-0.2-1.7,1.1-3.2,2.8-3.4c0,0,0.1,0,0.1,0l185.8-9.2l2-0.1c1.7-0.1,3.1,1.2,3.2,2.8L721.6,175.6z"/>
<polygon class="st4" points="522.8,19.2 692.5,10.8 706.8,162.8 538.5,166.8 "/>
<path class="st3" d="M721.6,175.6c0.1,1.7-1.2,3.2-2.9,3.3c0,0-0.1,0-0.1,0L700.8,0.1l2-0.1c1.7-0.1,3.1,1.2,3.2,2.8L721.6,175.6z"
	/>
<path class="st3" d="M62.1,3.1L39.6,183.4l-3.5-0.1c-2.4-0.1-4.3-2-4.2-4.4c0-0.2,0-0.3,0-0.5L57.6,6.7C57.9,4.5,59.9,2.9,62.1,3.1z
	"/>
<rect x="105.5" y="222.4" class="st3" width="19" height="17.1"/>
<polygon class="st3" points="192,399.7 192,404.6 144.8,405.9 144.8,399.7 "/>
<path class="st1" d="M275.3,228.4v168.2c0,2.1-1.7,3.9-3.9,4l-191.6,5.1h0c-2.2,0-3.9-1.8-4-4V228.4c0-2.2,1.8-3.9,4-4h191.6
	C273.5,224.5,275.2,226.2,275.3,228.4z"/>
<path class="st3" d="M79.8,224.4v181.2h0c-2.2,0-3.9-1.8-4-4V228.4C75.8,226.2,77.5,224.5,79.8,224.4L79.8,224.4z"/>
<polygon class="st5" points="88.5,235.2 266,235.2 266,383.4 88.5,387.4 "/>
<rect x="616.8" y="222.4" class="st3" width="19" height="17.4"/>
<polygon class="st3" points="620,399.7 620,406.1 572.8,404.8 572.8,399.7 "/>
<path class="st1" d="M682.3,228.4v173.3c0,2.2-1.8,4-4,4l0,0l-191.7-5.1c-2.1-0.1-3.8-1.8-3.8-4V228.4c0-2.2,1.8-3.9,4-4h191.6
	C680.4,224.4,682.2,226.2,682.3,228.4z"/>
<path class="st3" d="M682.3,228.4v173.3c0,2.2-1.8,4-4,4l0,0V224.4l0,0C680.4,224.4,682.2,226.2,682.3,228.4z"/>
<polygon class="st5" points="669.5,235.2 492,235.2 492,383.4 669.5,387.4 "/>
<path class="st1" d="M477.8,228.4v168.2c0,2.1-1.7,3.9-3.8,4l-191.6,5.1l0,0c-2.2,0-4-1.8-4-4V228.4c0-2.2,1.8-3.9,4-4h191.6
	C476,224.5,477.7,226.2,477.8,228.4z"/>
<polygon class="st5" points="291,235.2 468.5,235.2 468.5,383.4 291,387.4 "/>
<polygon class="st3" points="757,449.7 757,462.7 605.1,464.1 603.5,464.1 545.7,464.6 544.3,464.6 526.8,464.8 526.3,464.8 
	419.3,465.8 243.7,467.4 243.5,467.4 198.9,467.8 198.4,467.8 0,469.7 0,454.7 202.5,453.3 203,453.3 244,453.1 244.2,453.1 
	527.3,451.2 527.5,451.2 527.7,451.2 528.2,451.2 533,451.1 534.4,451.1 608.9,450.6 613.3,450.6 614.3,450.6 "/>
<circle class="st6" cx="381.2" cy="188.2" r="51.3"/>
<linearGradient id="SVGID_1_" gradientUnits="userSpaceOnUse" x1="491.685" y1="-253.4257" x2="491.685" y2="124.0309" gradientTransform="matrix(1 0 0 -1 -79.34 215.1187)">
	<stop  offset="0" style="stop-color:#808080;stop-opacity:0.25"/>
	<stop  offset="0.54" style="stop-color:#808080;stop-opacity:0.12"/>
	<stop  offset="1" style="stop-color:#808080;stop-opacity:0.1"/>
</linearGradient>
<path class="st7" d="M198.3,468.2c0-0.1,0.1-0.2,0.1-0.3c1-3.6,2.8-9.7,4.1-14.5c0.2-0.6,0.3-1.2,0.5-1.8c1.5-5.5,4.3-18.3,5.9-26.3
	c0.6-2.8,1-5,1.1-6.1c0.2-1.7,3.2-8.9,6.6-17.2c2.4-5.8,5-12.2,6.9-17.6c1.3-3.2,2.2-6.5,2.9-9.8c0.1-0.7,0.1-1.4,0-2.1
	c-0.3-1.1-0.5-2.3-0.5-3.5l0,0c-0.2-6.2,1.6-16,4.5-20.1c3.5-5,6-23.7,6-23.7s5.2,0.8,6-3.5c0.1-0.5,0.1-0.9,0.1-1.4
	c0-0.4,0-0.7-0.1-1.1c-0.9-6.2,14.7-12.9,23.5-14.3c1-0.2,2-0.3,3-0.3c2.1-0.2,4.2-0.7,6.3-1.4c0.9-0.3,1.9-0.6,3-1
	c3.7-1.2,8.1-2.9,12.8-4.7c17.6-6.8,38.8-16,38.8-16c0.2-0.7,0.3-1.4,0.5-2.1c2.1-8.6,8.2-15.6,16.3-18.9l0,0c0-0.7,0-1.3,0-2
	c0-3.5-0.2-7-0.3-10.5c0-0.7-0.1-1.4-0.1-2.1c0-0.2,0-0.4,0-0.6s0-0.4,0-0.5c0-0.7-0.1-1.4-0.1-2.1l-0.2-0.1
	c-1.5-1.2-2.9-2.6-3.9-4.2c-0.6-0.9-1.1-2-1.4-3c-1.3-3.4-1.5-7.2-2.4-10.8l-0.2-0.7c-1.1-3.6-2.4-7.1-4-10.6
	c-2.2-5.4-3.9-11-5.6-16.6c-1-3.4-2.1-6.8-3.1-10.3l-1.6-5.2c-0.3-1-0.6-2-0.8-3l0,0c-0.1-0.5-0.2-0.9-0.3-1.4l0,0
	c-0.3-1.5-0.2-3.1,0.2-4.6c0.4-1,0.8-2,1.3-3c0.2-0.4,0.4-0.9,0.5-1.4l0,0c0-0.1,0.1-0.2,0.1-0.3c0.1-0.4,0.1-0.7,0.1-1.1
	c0-1.3-0.2-2.6-0.5-3.9c0,0,0,0,0,0c0-0.1,0-0.2,0-0.3c-0.2-1-0.3-2-0.4-3c-0.4-5.4,0.9-10.8,3.5-15.6l0.2-0.4
	c0.6-1,1.2-1.9,1.8-2.8l0,0c0.3-0.4,0.6-0.8,1-1.2c-1.4,1.3-3.7,0.8-5-0.7c-0.2-0.2-0.4-0.5-0.5-0.8c-0.1-0.1-0.2-0.3-0.2-0.5
	c0-0.1-0.1-0.3-0.1-0.4c-0.7-2.5,0.5-5.1,2.1-7c1.6-1.9,3.5-3.5,5.7-4.7l0,0c0.1-0.1,0.3-0.1,0.4-0.2c0.8-0.4,1.7-0.8,2.6-1.1l0,0
	c0.5-0.2,1.1-0.3,1.6-0.4l-3.7-0.3l-1.5-0.1c1.5-6.1,6.8-10.5,13-10.9h1.1c0.5,0,1.1,0.1,1.6,0.1c-1.7-0.7-2.8-2.5-2.7-4.3
	c2.6,2,5.9,3.1,9.2,3.1h0.4c-0.2-1.1-0.3-2.2-0.3-3.3l0,0l0,0l0,0c-0.1-1.5-0.1-3,0-4.5c1.8,1.7,4.3,2.5,6.8,2.3l-2.1-2.9
	c1.9,1.5,4.2,2.2,6.6,2l0.5,0c0.4,0,0.8-0.1,1.2-0.2h0.1c-0.2-0.2-0.4-0.5-0.5-0.8l-0.1-0.1c-0.4-0.7-0.8-1.4-1-2.1
	c-0.1-0.3-0.2-0.6-0.2-0.9l0,0c-0.4-1.8-0.3-3.7,0.5-5.5c3.2,2.7,6.8,6.4,11,3.6s4.4-7.9,11-7.4c3.7,0.4,6.9,2.7,8.4,6.1
	c1.9-2.2,5-2.9,7.7-1.8c2.6,1.2,4.2,4,3.9,6.9c2.8-0.7,5.7-1.4,8.3-0.3s4.3,4.4,2.8,6.7c0,0.1-0.1,0.1-0.1,0.2
	c-1.2,1.6-4,2.5-3.7,4.5l0.4,0.3l1.3,0.9l0,0c5.1,3.7,10.1,7.5,14.9,11.6c2.5,2.1,5.1,4.6,5.3,7.8c0,0.8-0.1,1.6-0.2,2.4l0,0
	c-0.2,0.8-0.4,1.6-0.5,2.3c-0.4,2-0.5,4-0.3,6l0,0c0.1,0.6,0.2,1.2,0.3,1.8c1.5,7.7,7.7,14.1,8.3,22v0.6c0,0.8,0,1.7-0.1,2.5
	c-0.5,4.8-2.7,9.4-4.5,14c-0.1,0.3-0.2,0.6-0.3,0.8c-3.5,9-5.5,18.6-7,28.2c-0.5,3.4-1.2,6.8-2,10.1c-0.9,3.8-2.7,7.4-5.1,10.4
	c-1,1.2-2.1,2.2-3.4,3c-0.8,0.5-1.7,1-2.7,1.4c0,0,0,0,0,0.1c0.1,0.6,0.2,1.2,0.3,1.8c0.1,0.3,0.1,0.6,0.2,1l0,0c0,0,0,0,0,0.1
	c0.8,4.7,1.8,9.4,2.8,13.8l0.5,2.2c12.6,4.5,14.1,13.9,14.2,17.4c0,0.5,0,1,0,1.4c0,0,19,0.5,26.5,6c1.4,1,2.9,1.7,4.5,2.3
	c3,1.1,6.1,2.1,9.3,2.9c1.6,0.4,3.3,0.8,5,1.2c3,0.7,6.2,1.4,9.3,2c8.2,1.7,15.9,3,19.8,4c9.3,2.4,30.7,22.8,30.7,22.8
	s2.5,20.6,5,23.7s7,13.6,7,13.6l16.5,29.4l7,12.4h4.5c0.6,0,1.8,0.9,3.2,2.1c1.2,1.1,2.5,2.4,3.7,3.6l1.9,2l1.2,1.3
	c0,0,7.3,0.2,9.2,5.9c5.9-0.2,13.2,0.2,18.3,2.5c0.7,0.3,1.4,0.7,2,1.1c2.1,1.2,3.6,3.3,4.1,5.7c0.1,0.5,0.2,1,0.2,1.4
	c0,0.6,0,1.1,0,1.7c-0.4,7.6-5.3,13.9-9.8,18.1l0.3,0.6c0,0-0.2,0.4-0.4,1c-0.1,0.2-0.2,0.4-0.3,0.6l0,0c-0.6,1.3-1.5,3.2-2.8,5.4
	c-2.6,4.8-5.8,9.2-9.6,13.2l-0.3,0.3l-57.7,0.5l-0.2-0.2l-11.2-13.4l-5.6-6.6l-0.2-0.2l-0.2,1.6l-0.5,5.3l-1.3,12.8l-0.1,0.6v0.2
	l-0.2,1.5l0.1-1.5h-0.3l-107,1l-175.6,1.9v0.8h-0.1v-0.8l-44.8,0.5L198.3,468.2z"/>
<path class="st6" d="M432.5,293.2c0,0-99.5,12-90,0c3.4-4.3,4.4-17.2,4.2-31.8c-0.1-4.5-0.2-9.1-0.5-13.7c-1.1-22-3.8-43.5-3.8-43.5
	s87-41,77-8.5c-4,13.1-2.7,31.6,0.3,48.9c0.9,5,1.9,10,3,14.7C425.5,270.7,428.7,282,432.5,293.2z"/>
<path class="st3" d="M432.5,293.2c0,0-99.5,12-90,0c3.4-4.3,4.4-17.2,4.2-31.8c15.2-6.5,34.5-1.7,34.5-1.7
	c20.3-4.1,33.3-3.3,41.7-0.4C425.5,270.7,428.7,282,432.5,293.2z"/>
<path class="st4" d="M243.6,468.5v-0.8l175.6-1.9l107-1h0.3l-0.1,1.5l0.2-1.5h0.2v-0.2l1.4-13.5l0.5-5.1l0.2-1.6l0.1-1.3l6.2-20.6
	l6.2-20.6l5.2-17.3l7.9-26.5c0,0-4.5-10.5-7-13.5s-5-23.5-5-23.5s-21.3-20.3-30.7-22.7c-3.9-1-11.6-2.3-19.8-4
	c-3.1-0.6-6.2-1.3-9.3-2c-1.7-0.4-3.4-0.8-5-1.2c-3.1-0.8-6.2-1.7-9.3-2.9c-1.6-0.6-3.1-1.3-4.5-2.3c-7.3-5.4-25.8-6-26.5-6l0,0
	c0,0,0,0,0-0.1V280c0-0.4,0-0.8,0-1.3c0-0.4,0-0.9-0.1-1.4c0-0.2,0-0.3-0.1-0.5c0-0.4-0.1-0.7-0.2-1.1c0-0.2-0.1-0.4-0.1-0.5
	c-0.3-1.2-0.7-2.4-1.3-3.5c-0.1-0.2-0.2-0.3-0.2-0.5c-0.5-0.9-1.1-1.8-1.7-2.6c-0.1-0.2-0.3-0.3-0.4-0.5c-0.8-1-1.7-1.9-2.7-2.6
	c-0.3-0.2-0.5-0.4-0.8-0.6c-0.2-0.1-0.3-0.3-0.5-0.4l-0.9-0.6l-0.8-0.5c-0.7-0.4-1.5-0.8-2.3-1.2c-0.3-0.1-0.5-0.2-0.8-0.3
	s-0.7-0.3-1.1-0.4h-0.1l-0.7-0.3c-0.6-0.2-1.2-0.4-1.8-0.5l-0.9-0.2l-1-0.2l-1-0.2c-1-0.2-2.1-0.4-3.2-0.5l-1.1-0.1l-1.2-0.1
	l-1.2-0.1l-1.7-0.1l-2-0.1c-8.8,0-17.6,0.9-26.2,2.8c-6-1.3-12.1-1.9-18.3-1.7h-0.9l-1,0.1h-0.6l-1.3,0.1c-0.4,0-0.9,0.1-1.3,0.2
	s-0.9,0.1-1.3,0.2l-0.7,0.1c-0.7,0.1-1.3,0.2-2,0.4c-0.2,0-0.4,0.1-0.7,0.2c-0.9,0.2-1.7,0.4-2.6,0.7c-0.4,0.1-0.9,0.3-1.3,0.4
	c-0.2,0.1-0.4,0.1-0.6,0.2l-0.6,0.2l-0.6,0.3l-0.8,0.3c-0.4,0.2-0.8,0.3-1.1,0.5c-0.2,0.1-0.4,0.2-0.6,0.3s-0.4,0.2-0.6,0.3
	c-2.3,1.2-4.4,2.6-6.2,4.4l-0.5,0.5l-0.5,0.5c-0.2,0.2-0.3,0.3-0.5,0.5c-0.7,0.7-1.3,1.5-1.8,2.3c-0.2,0.2-0.3,0.4-0.5,0.6
	c-0.6,0.9-1.2,1.9-1.7,2.9c-0.1,0.2-0.3,0.5-0.4,0.7c-0.8,1.7-1.5,3.4-2,5.3c-0.2,0.7-0.4,1.3-0.5,2c-0.2,1-21.2,9.3-38.7,16.1
	c-4.7,1.8-9.1,3.4-12.8,4.7c-1.1,0.4-2.1,0.7-3,1c-2,0.7-4.1,1.2-6.3,1.4c-1,0-2,0.1-3,0.3c-8.1,1.3-21.9,7-23.4,12.7
	c-0.1,0.5-0.2,0.9-0.1,1.4c0,0,0,0.1,0,0.1c1,7-6,6-6,6s-2.5,18.5-6,23.5c-2.5,3.6-4.3,11.6-4.5,17.7l0,0c-0.1,1.9,0,3.8,0.4,5.6
	c0,0,0,0.1,0,0.1c0.4,1.3-0.6,5-2.2,9.7c-1.8,5.2-4.4,11.5-6.8,17.6c-3.7,9.1-7.3,17.4-7.5,19.2c-0.1,0.8-0.4,2.3-0.7,4.1
	c-1.5,7.6-4.7,22.1-6.3,28c-1.2,4.4-2.9,10.4-4.1,14.5c0,0.1-0.1,0.2-0.1,0.3l44.8-0.4L243.6,468.5L243.6,468.5L243.6,468.5z"/>
<path class="st3" d="M260,350.7c0,0,57,29.5,77.5,26L260,350.7z"/>
<path class="st3" d="M376,338.7c0,0,55.5,18,74,20.5S376,338.7,376,338.7z"/>
<path class="st3" d="M437.6,280.8c-29,5.3-83.6,4.2-107.2,3.4c8.7-31,50.8-20.5,50.8-20.5C433.4,253.3,437.4,274.9,437.6,280.8z"/>
<path class="st4" d="M437.6,278.8c-29,5.3-83.6,4.2-107.2,3.4c8.7-31,50.8-20.5,50.8-20.5C433.4,251.3,437.4,272.9,437.6,278.8z"/>
<path class="st6" d="M591.5,415.4c0,0,34.2-5.3,34.8,9.8s-17.4,25.5-17.4,25.5L591.5,415.4z"/>
<path class="st3" d="M419.8,244.6c-1.5,0.7-3,1.2-4.5,1.7c-10.8,3.7-21.7,7.5-33,8.8c-11.3,1.4-23.3,0.2-33.2-5.5c-1-0.6-2-1.2-3-2
	c-1.1-22-3.8-43.5-3.8-43.5s87-41,77-8.5C415.5,208.8,416.8,227.2,419.8,244.6z"/>
<path class="st0" d="M367.1,107.9c-2.9,0.8-6,0.1-8.3-1.8l2.1,2.9c-2.5,0.3-5-0.5-6.8-2.3c-0.2,2.6-0.1,5.2,0.3,7.8
	c-3.4,0.2-6.8-0.9-9.6-3c-0.1,1.8,0.9,3.6,2.6,4.3c-7.2-0.9-13.8,3.7-15.6,10.7l5.2,0.5c-4.1,0.9-7.8,3.1-10.4,6.4
	c-1.6,2-2.8,4.6-2.1,7s4.1,4,5.9,2.3c-5.3,6.3-7.5,14.7-6.1,22.8c0.5,1.7,0.6,3.5,0.5,5.3c-0.3,1.6-1.4,3.1-1.9,4.7
	c-1,2.9,0,6.1,0.8,9l4.7,15.4c1.7,5.6,3.4,11.1,5.6,16.5c1.6,3.4,2.9,6.9,4,10.5c1.3,4.8,1.3,10.1,4,14.4c1.8,2.7,4.3,4.8,7.2,6.3
	c9.9,5.7,21.8,6.9,33.2,5.5s22.2-5.1,33-8.8c2.4-0.7,4.7-1.7,6.8-3c7.5-4.9,9.1-14.9,10.5-23.6c1.5-9.8,3.6-19.6,7.3-28.8
	c2.2-5.5,5-11.1,4.5-16.9c-0.6-7.8-6.8-14.1-8.3-21.8c-0.5-2.6-0.5-5.2,0.1-7.8c0.5-1.5,0.7-3.1,0.8-4.7c-0.2-3.2-2.8-5.7-5.3-7.8
	c-5.4-4.5-10.9-8.7-16.7-12.7c-0.3-2,2.4-2.9,3.7-4.4c1.7-2.2-0.1-5.8-2.7-6.8s-5.6-0.4-8.3,0.3c0.5-3.6-2.1-6.9-5.7-7.4
	c-2.2-0.3-4.4,0.6-5.8,2.3c-1.5-3.4-4.7-5.7-8.4-6.1c-6.6-0.5-6.8,4.5-11,7.3s-7.7-0.9-11-3.6C364.5,101.8,365,105.3,367.1,107.9z"
	/>
<path class="st4" d="M616.8,445.4c0,0-0.9,2.1-2.5,5.2c-2.5,4.7-5.5,9.1-9,13.2l-0.3,0.3h-1.6l-57.7,0.5h-1.4l-0.2-0.2l-11.2-13.3
	l-4.2-5l-0.2-0.2l-0.4-0.4l-0.2-0.2l-0.3-0.3l-8.2-9.7l3-12.5l5.1-21.1l0.1-0.5l1-4l0.7-3l2.4-9.8l8.2-33.7l14.5,7.5l15.3,27
	l8.2,14.5h4.5c0.8,0,2.8,1.6,4.8,3.5c0.7,0.7,1.4,1.4,2,2c1.8,1.8,3.2,3.4,3.2,3.4s7.3,0.2,9.3,5.9c0.1,0.3,0.2,0.6,0.3,0.8
	c0.7,2.3,1.5,4.5,2.5,6.6c1.3,2.8,2.9,6,4.5,9.2c3,5.8,6.2,11.4,7.3,13.4l0.1,0.3L616.8,445.4z"/>
<path class="st3" d="M530.9,400.3l-0.1,1.4v0.1l-0.2,2.3l-1.3,18.5l-1.6,22.3l-0.5,6.3l-1,13.4v0.2l-107,1l-175.6,1.9v0.8h-0.1v-0.8
	v-0.3l0.5-14.4l0.9-28.1l0.7-23.8l0.1-2.4c0.2-5.8,5-10.4,10.8-10.2c0.2,0,0.4,0,0.6,0c4.7,0.4,10.9,0.9,18.2,1.4l3,0.2
	c42.3,2.9,120.6,6.7,199.5,2c1.7-0.1,3.3-0.2,5-0.3c12.2-0.8,24.5-1.8,36.6-3c5.8-0.6,11,3.6,11.6,9.4
	C531,399,531,399.6,530.9,400.3L530.9,400.3z"/>
<path class="st0" d="M243.6,468.5v-0.8l175.6-1.9l107-1h0.3v-0.2l1-13.4l0.4-6l1.6-22.6l1.3-17.9v-0.4c0.1-0.8,0-1.7-0.1-2.5
	c0,0,0-0.1,0-0.1c-0.3-1.7-1-3.3-2-4.6c-2.2-2.9-5.8-4.4-9.4-4c-12.1,1.2-24.3,2.2-36.6,3c-1.7,0.1-3.3,0.2-5,0.3
	c-78.9,4.7-157.2,0.9-199.5-2l-3-0.2c-7.3-0.5-13.5-1-18.2-1.4c-5.4-0.5-10.2,3.2-11.2,8.5c-0.1,0.5-0.2,1.1-0.2,1.6L245,425
	l-0.9,28.1l-0.4,14.4v0.3L243.6,468.5L243.6,468.5z"/>
<path class="st3" d="M531.2,407.3l-1.2,15.3l-1.8,22.8l-0.5,5.7l-1,12.8l-0.1,0.6v0.2l0,0l-0.2,1.5l0.1-1.5h-0.3l-107,1l-175.6,1.9
	v-0.3l0.5-14.4l1-28.1l0.6-18.7c0.1-2.2,1.2-4.1,3.1-5.2c1.1-0.7,2.5-1,3.8-0.9c2.1,0.2,4.7,0.4,7.7,0.6c4.9,0.4,10.9,0.8,17.9,1.2
	c13,0.8,29.3,1.7,48,2.4c52,2,122.2,2.7,188.9-3.2c3-0.3,6.1-0.5,9.1-0.8c1.2-0.1,2.4,0.1,3.5,0.7c0.3,0.2,0.6,0.3,0.9,0.5
	c0.9,0.6,1.6,1.5,2,2.5c0.1,0.2,0.2,0.4,0.3,0.6C531.2,405.5,531.3,406.4,531.2,407.3z"/>
<path class="st3" d="M192,421v3.2c0,2.4-1.4,4.5-3.5,5.5l-40.1,0.8c-2.2-1-3.6-3.2-3.6-5.6v-3L192,421z"/>
<polygon class="st0" points="192.5,431.6 140.3,432.6 140.3,423.9 192.5,422.9 "/>
<polygon class="st3" points="192.5,431.6 140.3,432.6 140.3,423.9 192.5,422.9 "/>
<polygon class="st0" points="194.5,431.6 142.3,432.6 142.3,423.9 194.5,422.9 "/>
<g class="st8">
	<path d="M367.5,104.7c-1-1.3-1.6-2.8-1.9-4.3c-0.2,1.5-0.1,3.1,0.4,4.6C366.5,104.9,367,104.8,367.5,104.7z"/>
	<path d="M354.8,111.3c-0.2-1.2-0.3-2.5-0.4-3.7c0,1.2,0,2.5,0,3.7L354.8,111.3z"/>
	<path d="M436.3,144.7c0.1-0.9,0.2-1.8,0.4-2.6c0.5-1.5,0.7-3.1,0.8-4.7c0-0.4-0.1-0.7-0.2-1.1c-0.2,0.9-0.4,1.8-0.6,2.8
		C436.3,140.9,436.1,142.8,436.3,144.7z"/>
	<path d="M415.5,113.8l1.1,0.8c0.9-0.7,1.8-1.4,2.6-2.2c0.8-1.1,0.9-2.4,0.4-3.6c-0.1,0.2-0.2,0.4-0.4,0.6
		C417.9,110.9,415.2,111.8,415.5,113.8z"/>
	<path d="M333.3,123.4c-0.4,0.7-0.7,1.5-0.9,2.3c1.6-0.9,3.2-1.5,5-1.9L333.3,123.4z"/>
	<path d="M347.1,112.5c-0.7-0.4-1.3-0.8-1.9-1.2c0,0.4,0,0.8,0.1,1.2C345.9,112.4,346.5,112.5,347.1,112.5z"/>
	<path d="M444.9,171.4c-0.4,4.9-2.7,9.5-4.5,14.1c-3.7,9.2-5.7,19-7.3,28.8c-1.4,8.8-3,18.8-10.5,23.6c-2.1,1.3-4.4,2.3-6.8,3
		c-10.8,3.7-21.7,7.5-33,8.8s-23.3,0.2-33.2-5.5c-2.9-1.5-5.3-3.7-7.2-6.3c-2.7-4.2-2.7-9.5-4-14.4c-1.1-3.6-2.4-7.1-4-10.5
		c-2.2-5.4-3.9-11-5.6-16.5c-1.6-5.1-3.1-10.3-4.7-15.4c-0.5-1.5-0.9-3.1-1.1-4.8c-0.4,2.6,0.4,5.2,1.1,7.8
		c1.6,5.2,3.1,10.3,4.7,15.4c1.7,5.6,3.4,11.1,5.6,16.5c1.6,3.4,2.9,6.9,4,10.5c1.3,4.8,1.3,10.1,4,14.4c1.8,2.7,4.3,4.8,7.2,6.3
		c9.9,5.7,21.8,6.9,33.2,5.5s22.2-5.1,33-8.8c2.4-0.7,4.7-1.7,6.8-3c7.5-4.9,9.1-14.9,10.5-23.6c1.5-9.8,3.6-19.6,7.3-28.8
		c2.2-5.5,5-11,4.5-16.9C444.9,171.6,444.9,171.5,444.9,171.4z"/>
	<path d="M325.2,167.6c0,0,0-0.1,0-0.1c0.2-1.8,0-3.5-0.5-5.3c-0.2-1.1-0.3-2.2-0.4-3.3c-0.1,2.1,0,4.2,0.4,6.3
		C324.9,166,325.1,166.8,325.2,167.6z"/>
	<path d="M328.2,143.1c0.8-1.3,1.6-2.5,2.6-3.7c-1.8,1.8-5.2,0.2-5.9-2.2c-0.3,1-0.3,2,0,3C325.4,141.7,326.7,142.8,328.2,143.1z"/>
</g>
<path class="st3" d="M578,399.7c0,0,3.2,11.5,0,21.5S578,399.7,578,399.7z"/>
<path class="st3" d="M591.5,411.4c0,0,1.3,14.6-1.7,17.2S591.5,411.4,591.5,411.4z"/>
<line class="st9" x1="92.9" y1="258.9" x2="194.5" y2="257.9"/>
<line class="st9" x1="92.9" y1="271.3" x2="194.5" y2="270.4"/>
<line class="st9" x1="92.9" y1="283.8" x2="194.5" y2="282.8"/>
</svg>
