<?xml version="1.0" encoding="utf-8"?>
<!-- Generator: Adobe Illustrator 23.0.3, SVG Export Plug-In . SVG Version: 6.00 Build 0)  -->
<svg version="1.1" id="be9f6829-3224-4753-912f-7f507815f1bf"
	 xmlns="http://www.w3.org/2000/svg" xmlns:xlink="http://www.w3.org/1999/xlink" x="0px" y="0px" viewBox="0 0 986 551.8"
	 style="enable-background:new 0 0 986 551.8;" xml:space="preserve">
<style type="text/css">
	.st0{opacity:0.1;fill:#D73534;enable-background:new    ;}
	.st1{fill:url(#SVGID_1_);}
	.st2{fill:#FFFFFF;}
	.st3{fill:#D7D9E1;}
	.st4{fill:#EDEDF4;}
	.st5{opacity:0.8;fill:#FA5959;enable-background:new    ;}
	.st6{opacity:0.8;fill:#FED253;enable-background:new    ;}
	.st7{opacity:0.8;fill:#8CCF4D;enable-background:new    ;}
	.st8{fill:url(#SVGID_2_);}
	.st9{fill:#D73534;}
	.st10{opacity:0.7;}
	.st11{fill:#3F3D56;}
	.st12{opacity:0.1;enable-background:new    ;}
	.st13{fill:url(#SVGID_3_);}
	.st14{fill:#FBBEBE;}
	.st15{fill:#F86D70;}
	.st16{opacity:0.1;fill:url(#SVGID_4_);enable-background:new    ;}
	.st17{opacity:0.1;fill:url(#SVGID_5_);enable-background:new    ;}
	.st18{fill:url(#SVGID_6_);}
	.st19{fill:#FABDBD;}
</style>
<title>image post</title>
<ellipse class="st0" cx="144.6" cy="649.3" rx="122.6" ry="31"/>
<linearGradient id="SVGID_1_" gradientUnits="userSpaceOnUse" x1="509.2401" y1="-109.92" x2="509.2401" y2="509.08" gradientTransform="matrix(1 0 0 -1 -16.24 524.0701)">
	<stop  offset="0" style="stop-color:#808080;stop-opacity:0.25"/>
	<stop  offset="0.54" style="stop-color:#808080;stop-opacity:0.12"/>
	<stop  offset="1" style="stop-color:#808080;stop-opacity:0.1"/>
</linearGradient>
<path class="st1" d="M977.4,15H8.6C3.9,15,0,18.9,0,23.6c0,0,0,0,0,0v592.9c0,9.6,7.8,17.4,17.4,17.5c0,0,0,0,0,0h951.2
	c9.6,0,17.4-7.8,17.4-17.5c0,0,0,0,0,0V23.7C986,18.9,982.1,15,977.4,15z"/>
<path class="st2" d="M982.1,51.8V613c0,9.5-7.7,17.3-17.3,17.3H21.3c-9.5,0-17.3-7.7-17.3-17.3l0,0V51.8H982.1z"/>
<path class="st3" d="M133,45v585.3H21.3c-9.5,0-17.3-7.7-17.3-17.3l0,0V45L133,45z"/>
<path class="st4" d="M982.1,26.9v24.9H4.1V26.9c0-4.7,3.8-8.6,8.6-8.6h960.9C978.2,18.3,982.1,22.1,982.1,26.9
	C982.1,26.9,982.1,26.9,982.1,26.9z"/>
<circle class="st5" cx="19.6" cy="34.8" r="4"/>
<circle class="st6" cx="30.6" cy="34.8" r="4"/>
<circle class="st7" cx="41.6" cy="34.8" r="4"/>
<rect x="17" y="101" class="st4" width="94" height="10"/>
<rect x="17" y="130" class="st4" width="94" height="10"/>
<rect x="17" y="159" class="st4" width="94" height="10"/>
<rect x="17" y="188" class="st4" width="94" height="10"/>
<rect x="17" y="217" class="st4" width="94" height="10"/>
<linearGradient id="SVGID_2_" gradientUnits="userSpaceOnUse" x1="670.27" y1="-391.55" x2="670.27" y2="-385.55" gradientTransform="matrix(6.123234e-17 1 1 -6.123234e-17 935.55 -668.27)">
	<stop  offset="0" style="stop-color:#808080;stop-opacity:0.25"/>
	<stop  offset="0.54" style="stop-color:#808080;stop-opacity:0.12"/>
	<stop  offset="1" style="stop-color:#808080;stop-opacity:0.1"/>
</linearGradient>
<rect x="544" class="st8" width="6" height="4"/>
<rect x="279.8" y="118.3" class="st0" width="552" height="344"/>
<rect x="755.8" y="501.3" class="st9" width="76" height="24"/>
<rect x="236.8" y="144.6" class="st3" width="557" height="351.5"/>
<rect x="239.8" y="148.3" class="st2" width="552" height="344"/>
<path class="st0" d="M553.8,194.3h-52c-2.2,0-4,1.3-4,2.9v2.9c0.1,0.9,0.6,1.7,1.4,2.2h-11.4c-2.2,0-4,1.3-4,2.9v2.9
	c0,1.6,1.8,2.9,4,2.9h1.1c-0.1,0.2-0.1,0.5-0.1,0.7v2.9c0,1.6,1.8,2.9,4,2.9h52c2.2,0,4-1.3,4-2.9v-2.9c0-1.6-1.8-2.9-4-2.9h-1.1
	c0.1-0.2,0.1-0.5,0.1-0.7v-2.9c-0.1-0.9-0.6-1.7-1.4-2.2h11.4c2.2,0,4-1.3,4-2.9v-2.9C557.8,195.6,556,194.3,553.8,194.3z"/>
<path class="st0" d="M479.8,255.3h-52c-2.2,0-4,1.3-4,2.9v2.9c0.1,0.9,0.6,1.7,1.4,2.2h-11.4c-2.2,0-4,1.3-4,2.9v2.9
	c0,1.6,1.8,2.9,4,2.9h1.1c-0.1,0.2-0.1,0.5-0.1,0.7v2.9c0,1.6,1.8,2.9,4,2.9h52c2.2,0,4-1.3,4-2.9v-2.9c0-1.6-1.8-2.9-4-2.9h-1.1
	c0.1-0.2,0.1-0.5,0.1-0.7v-2.9c-0.1-0.9-0.6-1.7-1.4-2.2h11.4c2.2,0,4-1.3,4-2.9v-2.9C483.8,256.6,482,255.3,479.8,255.3z"/>
<path class="st0" d="M604.8,266.3h-52c-2.2,0-4,1.3-4,2.9v2.9c0.1,0.9,0.6,1.7,1.4,2.2h-11.4c-2.2,0-4,1.3-4,2.9v2.9
	c0,1.6,1.8,2.9,4,2.9h1.1c-0.1,0.2-0.1,0.5-0.1,0.7v2.9c0,1.6,1.8,2.9,4,2.9h52c2.2,0,4-1.3,4-2.9v-2.9c0-1.6-1.8-2.9-4-2.9h-1.1
	c0.1-0.2,0.1-0.5,0.1-0.7v-2.9c-0.1-0.9-0.6-1.7-1.4-2.2h11.4c2.2,0,4-1.3,4-2.9v-2.9C608.8,267.6,607,266.3,604.8,266.3z"/>
<ellipse transform="matrix(0.5917 -0.8061 0.8061 0.5917 -15.4862 514.1382)" class="st0" cx="499.8" cy="272.4" rx="5" ry="8.1"/>
<ellipse transform="matrix(0.5917 -0.8061 0.8061 0.5917 60.1955 455.5584)" class="st0" cx="479.9" cy="168.4" rx="5" ry="8.1"/>
<ellipse transform="matrix(0.5917 -0.8061 0.8061 0.5917 31.5051 536.9379)" class="st0" cx="545.9" cy="237.4" rx="5" ry="8.1"/>
<g class="st10">
	<path class="st11" d="M365.3,492.3h-14C355.8,490.4,360.9,490.4,365.3,492.3z"/>
	<path class="st11" d="M380.8,484.3c0,2.7-0.3,5.4-0.9,8h-43.3c-1.5-6.8-1-13.9,1.3-20.5c0.7-1.9,1.5-3.7,2.6-5.5
		c4.1-7,10.6-11.5,17.8-11.5s13.7,4.5,17.8,11.5c1,1.7,1.8,3.5,2.5,5.3C380.1,475.7,380.8,480,380.8,484.3z"/>
	<ellipse class="st11" cx="358.3" cy="448.3" rx="22.5" ry="29.5"/>
	<ellipse class="st11" cx="358.3" cy="412.3" rx="22.5" ry="29.4"/>
	<path class="st9" d="M442.6,299.2c36.8,46.8,28.7,114.6-18.1,151.4c-13.4,10.5-29.1,17.7-45.8,21c-2.6,0.5-5.2,0.9-7.9,1.2
		c-8.2,1-16.5,1-24.7,0.1c-2.7-0.3-5.4-0.7-8.1-1.2c-58.5-11-97-67.3-86-125.8c3.2-17.1,10.5-33.1,21.2-46.8
		c-22.5-28.6-29.1-66.7-17.4-101.2l81.8,27.5l-76.8-39.9c3.4-7,7.5-13.6,12.3-19.7c-4.3-5.5-8.1-11.4-11.3-17.6h156.8l32.3,5.3
		c-2.5,4.3-5.3,8.4-8.4,12.3c15,19,23.1,42.5,23.1,66.6c0,0.3,0,0.5,0,0.8c0,4.6-0.4,9.3-1,13.9c-0.4,2.7-0.8,5.4-1.4,8
		c-1.7,7.9-4.3,15.7-7.8,23c-0.2,0.5-0.4,0.9-0.7,1.4c-2.3,4.6-4.8,9.1-7.8,13.4c-1.4,2-2.8,4-4.3,5.9L442.6,299.2z"/>
	<path class="st12" d="M250.1,232.6c0,24.2,8.1,47.7,23.1,66.6c-36.8,46.8-28.7,114.5,18.1,151.3c46.8,36.8,114.5,28.7,151.3-18.1
		c30.7-39.1,30.7-94.2,0-133.2C457,280.9,250.1,220.5,250.1,232.6z"/>
	<path class="st11" d="M690.1,492.3h-39.6c0.6-1.4,1.2-2.7,2-4c4.1-7,10.6-11.5,17.8-11.5s13.7,4.5,17.8,11.5
		C688.9,489.6,689.6,490.9,690.1,492.3z"/>
	<path class="st11" d="M692.8,470.3c0.1,6.3-1.6,12.5-4.7,18c-0.8,1.4-1.8,2.8-2.8,4h-29.9c-1.1-1.2-2-2.6-2.8-4
		c-3.1-5.5-4.8-11.7-4.7-18c0-16.3,10.1-29.5,22.5-29.5S692.8,454,692.8,470.3z"/>
	<path class="st9" d="M754.7,357l-0.2,0.2c15,19,23.1,42.5,23.1,66.6c0,1.7,0,3.4-0.1,5.1c0,0.5,0,1-0.1,1.5l-0.1,1
		c0,0.6-0.1,1.2-0.2,1.8s-0.1,1.3-0.2,1.9s-0.2,1.5-0.3,2.3v0.3c-0.1,0.6-0.2,1.1-0.2,1.7c0,0.4-0.1,0.8-0.2,1.2
		c-0.2,1.6-0.5,3.1-0.8,4.6c-0.1,0.4-0.2,0.9-0.3,1.3s-0.2,0.9-0.3,1.3s-0.2,1-0.4,1.5c0,0.2-0.1,0.3-0.1,0.5
		c-0.1,0.5-0.3,1.1-0.4,1.6s-0.2,0.8-0.3,1.3c-0.2,0.6-0.3,1.2-0.5,1.9s-0.4,1.2-0.6,1.8c-0.7,2.2-1.4,4.4-2.3,6.5
		c-0.3,0.7-0.6,1.4-0.8,2.1l0,0c-0.2,0.5-0.5,1.1-0.7,1.6c-0.1,0.3-0.3,0.6-0.4,0.9s-0.3,0.7-0.5,1.1s-0.4,1-0.7,1.4
		c-0.3,0.7-0.6,1.3-1,2c-0.2,0.4-0.4,0.8-0.6,1.1c-1.4,2.8-3,5.5-4.6,8.1c-0.4,0.6-0.8,1.2-1.2,1.8l0,0c-0.4,0.6-0.8,1.3-1.3,1.9
		l-1.2,1.8c-1.3,1.9-2.8,3.7-4.3,5.5H586.6c-1.5-1.8-2.9-3.7-4.3-5.6l-0.8-1.1c-0.3-0.4-0.5-0.8-0.8-1.2l-0.4-0.6
		c-0.3-0.5-0.7-1-1-1.5l-0.4-0.6c-0.4-0.6-0.7-1.2-1.1-1.8c-1.3-2.2-2.6-4.5-3.8-6.8c-0.2-0.4-0.4-0.8-0.6-1.1c-0.3-0.7-0.7-1.3-1-2
		c-0.2-0.5-0.5-0.9-0.7-1.4c-0.2-0.4-0.3-0.7-0.5-1.1s-0.3-0.6-0.4-0.9c-0.2-0.5-0.5-1-0.7-1.6l0,0c-0.3-0.7-0.6-1.4-0.8-2.1
		c-0.8-2.1-1.6-4.3-2.3-6.5c-0.2-0.6-0.4-1.2-0.6-1.8s-0.4-1.2-0.5-1.9c-0.1-0.4-0.2-0.8-0.3-1.3s-0.3-1.1-0.4-1.6
		c-0.1-0.2-0.1-0.3-0.1-0.5c-0.1-0.5-0.3-1-0.4-1.5s-0.2-0.9-0.3-1.3s-0.2-0.9-0.3-1.3c-0.3-1.5-0.6-3.1-0.8-4.6
		c-0.1-0.4-0.1-0.8-0.2-1.2c-0.1-0.6-0.2-1.1-0.2-1.7v-0.3c-0.1-0.8-0.2-1.5-0.3-2.3s-0.1-1.3-0.2-1.9s-0.1-1.2-0.2-1.8l-0.1-1
		c0-0.5-0.1-1-0.1-1.5c-0.1-1.7-0.1-3.4-0.1-5.1c0-24.2,8.1-47.7,23.1-66.6c-0.6-0.7-1.1-1.5-1.7-2.2l-0.4-0.5
		c-0.4-0.6-0.9-1.2-1.3-1.7l-0.4-0.5c-0.5-0.7-1-1.4-1.4-2.1c-0.1-0.1-0.1-0.2-0.2-0.3c-0.5-0.7-1-1.5-1.4-2.2l-0.3-0.5
		c-0.4-0.7-0.9-1.5-1.3-2.2l-0.2-0.4c-0.5-0.8-0.9-1.6-1.3-2.4l-0.2-0.3c-0.4-0.7-0.8-1.4-1.1-2.1c-0.9-1.8-1.8-3.6-2.6-5.5
		c-0.5-1.1-1-2.2-1.4-3.3l-0.2-0.4c-0.3-0.7-0.5-1.4-0.8-2.1s-0.5-1.4-0.8-2.1s-0.5-1.4-0.7-2.1c-0.4-1.2-0.7-2.3-1.1-3.5
		c-0.1-0.3-0.2-0.6-0.3-0.9c-0.2-0.7-0.4-1.4-0.6-2l0,0c-0.2-0.7-0.4-1.4-0.5-2.2s-0.3-1.3-0.5-2l-0.1-0.4c-0.2-0.7-0.3-1.5-0.5-2.3
		c-0.1-0.6-0.2-1.1-0.3-1.7c0-0.2-0.1-0.3-0.1-0.5c-0.1-0.6-0.2-1.2-0.3-1.8c-0.1-0.8-0.2-1.5-0.3-2.3c-0.1-0.9-0.2-1.7-0.3-2.6
		c0-0.1,0-0.3,0-0.4c-0.1-0.8-0.2-1.6-0.2-2.4s-0.1-1.4-0.2-2.1c0-0.5-0.1-1.1-0.1-1.6s0-0.9,0-1.3s0-0.9,0-1.3c0-0.8,0-1.7,0-2.5
		v-0.3c0-11.7,1.9-23.3,5.7-34.3l81.8,27.5l-76.9-39.9c3.4-7,7.5-13.6,12.3-19.7c-4.8-6.1-8.9-12.6-12.3-19.5
		c-2.3-4.6-4.2-9.4-5.7-14.3c-3.4-10.6-5.1-21.7-5.1-32.8c0-3,0.1-6,0.4-9H702L684,161.5l25.4-13.2h67.8c0.3,3,0.4,6,0.4,9
		c0,15.6-3.3,30.9-9.9,45.1l-63.9-0.5l59.1,9.7c-2.5,4.3-5.3,8.4-8.4,12.3C785.2,263,785.3,317.9,754.7,357L754.7,357z"/>
	<path class="st12" d="M777.6,423.9c0,1.7,0,3.4-0.1,5.1c0,0.5,0,1-0.1,1.5l-0.1,1c0,0.6-0.1,1.2-0.2,1.8s-0.1,1.3-0.2,1.9
		s-0.2,1.5-0.3,2.3v0.3c-0.1,0.6-0.2,1.1-0.2,1.7c0,0.4-0.1,0.8-0.2,1.2c-0.2,1.6-0.5,3.1-0.8,4.6c-0.1,0.4-0.2,0.9-0.3,1.3
		s-0.2,0.9-0.3,1.3s-0.2,1-0.4,1.5c0,0.2-0.1,0.3-0.1,0.5c-0.1,0.5-0.3,1.1-0.4,1.6s-0.2,0.8-0.3,1.3c-0.2,0.6-0.3,1.2-0.5,1.9
		s-0.4,1.2-0.6,1.8c-0.7,2.2-1.4,4.4-2.3,6.5c-0.3,0.7-0.6,1.4-0.8,2.1l0,0c-0.2,0.5-0.5,1.1-0.7,1.6c-0.1,0.3-0.3,0.6-0.4,0.9
		s-0.3,0.7-0.5,1.1s-0.4,1-0.7,1.4c-0.3,0.7-0.6,1.3-1,2c-0.2,0.4-0.4,0.8-0.6,1.1c-1.4,2.8-3,5.5-4.6,8.1c-0.4,0.6-0.8,1.2-1.2,1.8
		l0,0c-0.4,0.6-0.8,1.3-1.3,1.9l-1.2,1.8c-1.3,1.9-2.8,3.7-4.3,5.5H586.6c-1.5-1.8-2.9-3.7-4.3-5.6l-0.8-1.1
		c-0.3-0.4-0.5-0.8-0.8-1.2l-0.4-0.6c-0.3-0.5-0.7-1-1-1.5l-0.4-0.6c-0.4-0.6-0.7-1.2-1.1-1.8c-1.3-2.2-2.6-4.5-3.8-6.8
		c-0.2-0.4-0.4-0.8-0.6-1.1c-0.3-0.7-0.7-1.3-1-2c-0.2-0.5-0.5-0.9-0.7-1.4c-0.2-0.4-0.3-0.7-0.5-1.1s-0.3-0.6-0.4-0.9
		c-0.2-0.5-0.5-1-0.7-1.6l0,0c-0.3-0.7-0.6-1.4-0.8-2.1c-0.8-2.1-1.6-4.3-2.3-6.5c-0.2-0.6-0.4-1.2-0.6-1.8s-0.4-1.2-0.5-1.9
		c-0.1-0.4-0.2-0.8-0.3-1.3s-0.3-1.1-0.4-1.6c-0.1-0.2-0.1-0.3-0.1-0.5c-0.1-0.5-0.3-1-0.4-1.5s-0.2-0.9-0.3-1.3s-0.2-0.9-0.3-1.3
		c-0.3-1.5-0.6-3.1-0.8-4.6c-0.1-0.4-0.1-0.8-0.2-1.2c-0.1-0.6-0.2-1.1-0.2-1.7v-0.3c-0.1-0.8-0.2-1.5-0.3-2.3s-0.1-1.3-0.2-1.9
		s-0.1-1.2-0.2-1.8l-0.1-1c0-0.5-0.1-1-0.1-1.5c-0.1-1.7-0.1-3.4-0.1-5.1c0-24.2,8.1-47.7,23.1-66.6c-0.6-0.7-1.1-1.5-1.7-2.2
		l-0.4-0.5c-0.4-0.6-0.9-1.2-1.3-1.7l-0.4-0.5c-0.5-0.7-1-1.4-1.4-2.1c-0.1-0.1-0.1-0.2-0.2-0.3c-0.5-0.7-1-1.5-1.4-2.2l-0.3-0.5
		c-0.4-0.7-0.9-1.5-1.3-2.2l-0.2-0.4c-0.5-0.8-0.9-1.6-1.3-2.4l-0.2-0.3c-0.4-0.7-0.8-1.4-1.1-2.1c-0.9-1.8-1.8-3.6-2.6-5.5
		c-0.5-1.1-1-2.2-1.4-3.3l-0.2-0.4c-0.3-0.7-0.5-1.4-0.8-2.1s-0.5-1.4-0.8-2.1s-0.5-1.4-0.7-2.1c-0.4-1.2-0.7-2.3-1.1-3.5
		c-0.1-0.3-0.2-0.6-0.3-0.9c-0.2-0.7-0.4-1.4-0.6-2l0,0c-0.2-0.7-0.4-1.4-0.5-2.2s-0.3-1.3-0.5-2l-0.1-0.4c-0.2-0.7-0.3-1.5-0.5-2.3
		c-0.1-0.6-0.2-1.1-0.3-1.7c0-0.2-0.1-0.3-0.1-0.5c-0.1-0.6-0.2-1.2-0.3-1.8c-0.1-0.8-0.2-1.5-0.3-2.3c-0.1-0.9-0.2-1.7-0.3-2.6
		c0-0.1,0-0.3,0-0.4c-0.1-0.8-0.2-1.6-0.2-2.4s-0.1-1.4-0.2-2.1c0-0.5-0.1-1.1-0.1-1.6s0-0.9,0-1.3s0-0.9,0-1.3c0-0.8,0-1.7,0-2.5
		c0-0.1,0-0.2,0-0.3c0.5-1.8,6.8-1.6,16.8,0c7.9,1.3,18.2,3.5,29.8,6.5l0,0c59.7,14.9,154.7,47.4,146,60.2l-0.2,0.2
		C769.6,376.2,777.7,399.7,777.6,423.9z"/>
	<ellipse transform="matrix(0.7071 -0.7071 0.7071 0.7071 -29.3131 403.8484)" class="st9" cx="472.8" cy="237.3" rx="13" ry="8"/>
	<ellipse transform="matrix(0.7071 -0.7071 0.7071 0.7071 24.091 458.7697)" class="st9" cx="565.8" cy="200.3" rx="13" ry="8"/>
	<ellipse transform="matrix(0.7071 -0.7071 0.7071 0.7071 39.5124 628.0049)" class="st9" cx="777.8" cy="266.3" rx="13" ry="8"/>
	<ellipse transform="matrix(0.5917 -0.8061 0.8061 0.5917 -47.1652 483.587)" class="st9" cx="453.8" cy="288.4" rx="8" ry="13"/>
	
		<linearGradient id="SVGID_3_" gradientUnits="userSpaceOnUse" x1="526.6346" y1="31.85" x2="526.6346" y2="238.7925" gradientTransform="matrix(1 0 0 -1 -16.24 524.0701)">
		<stop  offset="0" style="stop-color:#808080;stop-opacity:0.25"/>
		<stop  offset="0.54" style="stop-color:#808080;stop-opacity:0.12"/>
		<stop  offset="1" style="stop-color:#808080;stop-opacity:0.1"/>
	</linearGradient>
	<path class="st13" d="M578.8,486.1c-0.2-0.5-0.4-1-0.6-1.5c-0.1-1.2-0.1-2.5,0.1-3.7v0c0-0.9-0.1-1.7-0.3-2.6
		c-0.6-3.3-1.2-6.6-1.8-9.8c-0.3-1.5-0.5-3-0.7-4.6s-0.1-3.2-0.1-4.7c-0.1-5.1-1-10.2-1.2-15.3c-0.1-2.7-0.3-5.3-0.5-7.9
		c-0.4-4.5-0.8-9.1-1.6-13.6c-0.6-3.6-2.4-6.9-2.5-10.5l-0.1-5.6c0.1-1.6-0.1-3.2-0.8-4.7c-0.7-1.2-1.6-2.3-2.8-3.2l-0.8-0.7
		c-2.7-2.3-5.4-4.5-8.3-6.6l0,0c-0.3-0.2-0.5-0.4-0.8-0.6c1,0.2,2.1,0.1,3.1-0.2c0.7-0.3,1.2-1,1.3-1.8c0-0.3,0-0.5-0.1-0.8
		c-0.4-0.6-0.9-1-1.6-1.1c-1.2-0.3-2.4-0.5-3.6-0.6h-0.2c0.1-0.5,0.2-1,0.3-1.5c0.2-1.4,0.1-2.9-0.1-4.3c0-0.1,0-0.2,0-0.3
		c-0.3-2.3-1-4.6-1.4-6.9c0-0.3-0.1-0.6-0.1-0.9c-0.2-1.1-0.3-2.2-0.3-3.3c0-5.4,2.8-10.4,4.3-15.6c1.3-4.1,1.8-8.4,1.6-12.8
		c0-0.3,0-0.6-0.1-1c-0.3-3.9-1.2-7.7-2.6-11.4c-1.7-4.2-4.2-8.2-5.1-12.7c-0.1-0.3-0.1-0.6-0.2-1c0-0.1,0-0.1,0-0.2
		c-0.3-2.6-0.2-5.2-0.4-7.8v-0.2c0-0.5-0.1-1-0.2-1.5c-1.5-9-9.5-15.8-18.3-18.2c-6.8-1.8-13.7-1.3-20.5,0c-5.9,1.1-11.2-1.3-17-0.5
		c-2.3,0.3-4.7,1-6.2,2.8c-0.8,1.1-1.4,2.3-2,3.4c-2.6,4.1-7.8,5.4-12.1,7.7c-6.5,3.4-11.7,9.7-12.7,17c-0.9,6.8,1.8,13.5,2.2,20.3
		c0.1,2.8,0,5.7-0.5,8.4c-1,5.7-3,11.4-4.8,16.9c-0.9,2.3-1.3,4.7-1.3,7.1c0.2,1.7,0.5,3.3,1.1,4.8c0.8,2.6,1.8,5.1,2.9,7.6
		c-2,0.8-4.1,1.4-6.3,1.7c-2.2,0.3-4.6,0.2-6.5,1.3c-0.9,0.6-1.7,1.3-2.3,2.2c-1.8,2.6-2.6,5.8-2,8.9c-0.8,0.5-1.3,1.4-1.3,2.4
		c0,0.9,0.2,1.9,0.2,2.8c-0.1,1.8-0.4,3.5-1,5.2c-1.6,5.8-2,11.8-1.2,17.7c0.4,2.9,0.7,5.9,0.9,8.8l0,0c0.5,6.5,0.7,13,1,19.7
		c0.3,6.3-0.2,12.6,0.8,18.8c0.3,2.1,1,4.3,2.6,5.6c0.4,0.3,0.8,0.6,1.1,0.9c0.9,1,1,2.4,1.3,3.7c1,3.7,4.4,6.1,8.2,5.9l0,0l0,0
		l-1.7,4.8h103.7c-0.1-0.9-0.1-1.9,0-2.8v0.1c0.5,0.8,0.8,1.8,0.8,2.8h19.8C579.9,490.1,579.6,488,578.8,486.1z"/>
	<path class="st11" d="M495.6,287.1c-2.3,0.3-4.7,1-6.1,2.8c-0.7,1.1-1.4,2.2-2,3.4c-2.6,4-7.7,5.4-12,7.6
		c-6.5,3.4-11.7,9.6-12.6,16.9c-0.9,6.7,1.7,13.4,2.1,20.1c0.5,8.6-2.6,17-5.3,25.2c-0.9,2.3-1.3,4.7-1.3,7.1
		c0.1,1.6,0.5,3.3,1.1,4.8c2.4,7.4,5.7,14.5,10.6,20.6s11.5,10.8,19.1,12.6c3.5,0.7,7,1.1,10.5,1.1c5.4,0.2,10.8,0.3,16.2,0.3
		c3,0.1,6-0.1,8.9-0.6c6.2-1.2,11.7-4.7,17-8.2c6.1-4,12.8-8.8,13.7-16c0.7-5.2-1.9-10.3-1.9-15.5c0-5.4,2.7-10.3,4.3-15.5
		c2.5-8.2,2.1-17-1.1-24.9c-1.7-4.2-4.2-8.1-5-12.6c-0.7-3.5-0.3-7.1-0.8-10.6c-1.5-8.9-9.4-15.7-18.1-18.1
		c-6.7-1.8-13.5-1.3-20.3,0C506.7,288.8,501.4,286.4,495.6,287.1z"/>
	<path class="st14" d="M497.5,361.7c1.3,5.7,0.3,11.6-2.7,16.5c-1.6,2.3-3.6,4.4-5.9,6.1c-3.4,2.8-7.4,5-11.6,6.4
		c2.6,2.1,5.7,3.5,8.9,4.3c2.5,0.5,5,0.8,7.6,0.9c12.8,0.7,25.7,0.2,38.4-1.4c4.3-0.5,8.7-1.3,12.1-3.8c0.3-0.2,0.5-0.5,0.7-0.8
		c0.3-0.8-0.8-1.5-1.6-1.8c-4.1-1.4-8.5-2.2-12.1-4.7c-5.4-3.8-7.7-10.8-8.2-17.5s0.5-13.3-0.2-19.9c-8.8-0.1-17.6,0.1-26.3,0.8
		c-1,0.1-5.4-0.2-5.9,0.7s1.9,3.3,2.5,4.2C495.2,354.7,496.7,358.1,497.5,361.7z"/>
	<circle class="st12" cx="509.6" cy="331.9" r="30"/>
	<circle class="st14" cx="509.6" cy="330.8" r="30"/>
	<path class="st11" d="M551.7,441.2c-2.5,10-4,20.4-3,30.7c0.7,6.5,2.9,13.6,3.2,20.3h-74.3c0-3.5,0-7.1-0.1-10.7c0-0.7,0-1.4,0-2.1
		l0,0c0-0.9,0-1.8,0-2.8l0,0c0-2.8,0-5.6,0-8.3c0-4.9,0-9.7-0.5-14.6c-0.9-8.6-2.9-17.1-6-25.2c-0.2-0.6-0.4-1.2-0.6-1.8l0,0
		c0-0.1-0.1-0.1-0.1-0.2c-0.2-0.6-0.5-1.2-0.7-1.8c-3.6-9.6-7.8-19.6-5.8-29.6c0.4-2,1.1-4,2-5.8c1.6-3.4,4-6.5,7-8.9l0.3-0.2
		c1-0.8,2.1-1.5,3.3-2.2c0.6-0.3,1.2-0.6,1.8-0.9l0.2-0.1c1.4-0.6,2.9-0.9,4.4-1c3.8-0.1,7.2,2.1,10.3,4.2l0.3,0.2l0.4,0.3l0.5,0.3
		c1.2,0.8,2.5,1.6,3.8,2.4l0.6,0.4c3.5,2.2,7.3,4,11.3,5.3c6,1.8,12.8,1.9,18.3-1.1c1.1-0.6,2.1-1.3,3-2.1c0.6-0.5,1.2-1,1.7-1.5
		c1.2-1.2,2.3-2.4,3.3-3.7c1.5,2.8,4.6,4,7.3,5.8c2.9,2.1,5.2,4.8,6.7,8c0.4,0.9,0.8,1.7,1.2,2.6c1.5,4.2,2.5,8.6,3,13.1
		c0.7,4.4,1,8.8,0.9,13.2C554.9,429.5,553.2,435.4,551.7,441.2z"/>
	<path class="st9" d="M493.8,381.2l-10.8,2.6c-1.6,0.4-3.1-0.6-3.5-2.2L469,337.3c-0.4-1.6,0.6-3.1,2.2-3.5l10.8-2.6
		c1.6-0.4,3.1,0.6,3.5,2.2l10.5,44.3C496.3,379.3,495.4,380.8,493.8,381.2z"/>
	<path class="st4" d="M492.4,381.5l-9.6,2.3c-1.6,0.4-3.1-0.6-3.5-2.2l-10.5-44.3c-0.4-1.6,0.6-3.1,2.2-3.5l9.6-2.3
		c1.6-0.4,3.1,0.6,3.5,2.2l10.5,44.3C494.9,379.6,493.9,381.2,492.4,381.5z"/>
	<ellipse transform="matrix(0.9732 -0.23 0.23 0.9732 -66.2438 119.006)" class="st9" cx="477.2" cy="343.6" rx="1.5" ry="3.6"/>
	<path class="st15" d="M507.1,492.3h-50.7l1.7-5l0,0l0,0h-0.1c-3.8,0.3-7.2-2.2-8.2-5.8c-0.3-1.3-0.3-2.7-1.2-3.7
		c-0.4-0.3-0.8-0.6-1.2-0.9c-1.6-1.3-2.3-3.5-2.6-5.5c-1-6.2-0.5-12.4-0.8-18.7c-0.3-7-0.5-13.9-1.1-20.8c-0.2-2.5-0.5-5-0.8-7.5
		c-0.8-5.9-0.4-11.9,1.2-17.6c0.6-1.7,0.9-3.4,1-5.2c0-0.9-0.3-1.9-0.2-2.8c0-1,0.5-1.8,1.3-2.4c-0.5-3.1,0.2-6.3,2-8.9
		c0.6-0.9,1.4-1.6,2.2-2.1c1.9-1.1,4.3-1,6.4-1.3c2.1-0.3,4.3-0.8,6.3-1.6l0,0c0.7-0.3,1.4-0.6,2.1-0.9l0,0c2.4-1.1,4.8-2.5,7.2-3.8
		l0.5-0.3c1.8-1,3.6-1.9,5.5-2.7l0.2-0.1c2.2-0.9,4.5-1.5,6.8-1.8c2.3-0.2,4.6-0.1,6.9,0.2c0.6,0.1,1.3,0.2,1.8,0.6
		c0.8,0.5,1.6,1.3,2,2.2l0,0c0.1,0.1,0.1,0.2,0.2,0.4c0.9,1.8,1.5,3.7,1.9,5.7c0.1,0.5,0.2,1,0.3,1.5l0,0c0.2,1.2,0.5,2.4,0.6,3.5
		l0,0l0,0c0.4,3,0.7,6,0.8,9.1c0.2,4.4,0.1,8.8,0.1,13.2c0,0.7,0,1.5,0,2.2c0,2.2,0.3,4.3,0.9,6.4c1.5,5.7,1.7,11.6,2,17.4
		c0.7,13.7,2,27.4,4.1,40.9c0.4,2.5,0.8,5.1,0.9,7.7C507.6,486.7,507.5,489.5,507.1,492.3z"/>
	<path class="st15" d="M496.2,419c1.1,1.2,2.1,2.6,3,4c0.4,0.7,0.7,1.7,0.1,2.2c-0.3,0.2-0.7,0.3-1.1,0.3l-7.2,0.3
		c-1.1,0.1-2.2,0-3.2-0.3c-1.4-0.7-2.5-1.7-3.3-3l-3.2-4.1c-0.9-1-1.6-2.2-2-3.6c-0.3-1.4,0.2-2.8,1.5-3.5c1.2-0.4,2.4-0.3,3.5,0.2
		c2.1,0.7,4.7,1.2,6.6,2.5C492.9,415.3,494.7,417,496.2,419z"/>
	<path class="st12" d="M496.2,419c1.1,1.2,2.1,2.6,3,4c0.4,0.7,0.7,1.7,0.1,2.2c-0.3,0.2-0.7,0.3-1.1,0.3l-7.2,0.3
		c-1.1,0.1-2.2,0-3.2-0.3c-1.4-0.7-2.5-1.7-3.3-3l-3.2-4.1c-0.9-1-1.6-2.2-2-3.6c-0.3-1.4,0.2-2.8,1.5-3.5c1.2-0.4,2.4-0.3,3.5,0.2
		c2.1,0.7,4.7,1.2,6.6,2.5C492.9,415.3,494.7,417,496.2,419z"/>
	<path class="st12" d="M492.1,419.4c0.9-4.7,2.1-9.2,3.6-13.7c0.8-2.2,1.4-4.4,1.8-6.7c0.2-1.8,0-3.6,0.2-5.4
		c0.1-1.5,0.5-3.1,0.8-4.6c0.5-3.1,0.3-6.3-0.6-9.4c-0.7-2.4,0-5.4-1.6-7.3c-0.6-0.8-1.5-1.4-2.1-2.2c-0.7-0.7-1-1.8-0.8-2.8
		c2.2,0.5,4.5,0.6,6.8,0.2c0.7-0.1,1.3-0.3,1.9-0.7c0.6-0.4,0.9-1,0.8-1.7c-0.2-0.6-0.7-1.2-1.3-1.5c-4-2.5-9-3-13.4-1.5
		c-0.2-0.4,0-0.8,0.3-1c0.3-0.2,0.6-0.3,1-0.3c2.3-0.5,4.2-2.1,5-4.3c0.2-0.3,0.2-0.7,0.1-1c-0.3-0.8-1.3-0.7-2.1-0.5l-4.1,1
		c-0.8,0.2-1.6,0.4-2.3,0.8c-0.9,0.6-1.7,1.2-2.4,2.1c-2.2,2.3-4.4,4.8-5.6,7.7c-0.5,1.3-0.8,2.8-1.4,4.1c-0.5,1.4-1.5,2.5-2.7,3.3
		c-1.3,0.7-2,2.2-1.8,3.7c0.3,1.5,1,2.9,1.9,4.1c1.5,2.4,3.3,4.7,5.2,6.8c1.4,1.3,2.6,2.7,3.6,4.3c0.6,1.2,0.8,2.5,1.4,3.8
		c0.3,0.6,0.5,1.2,0.7,1.8c0.1,0.4,0.1,0.9,0,1.3c-0.9,6.7-5.9,12.2-7.7,18.8c-0.1,0.3-0.2,0.7-0.1,1c0.2,0.6,0.5,1.1,1.1,1.5
		c3.6,2.8,8.1,4.2,12.4,5.5C491.2,424.2,491.8,421.8,492.1,419.4z"/>
	<path class="st14" d="M491.5,419.1c0.9-4.7,2.1-9.2,3.6-13.7c0.8-2.1,1.5-4.4,1.8-6.7c0.2-1.8,0-3.6,0.2-5.4
		c0.1-1.5,0.5-3.1,0.8-4.6c0.5-3.1,0.3-6.3-0.5-9.4c-0.7-2.4,0-5.4-1.6-7.3c-0.6-0.8-1.5-1.4-2.1-2.2c-0.7-0.7-1-1.8-0.8-2.8
		c2.2,0.5,4.5,0.6,6.7,0.2c0.7-0.1,1.3-0.3,1.9-0.7c0.6-0.4,0.9-1,0.8-1.7c-0.2-0.6-0.7-1.2-1.3-1.5c-4-2.5-8.9-3-13.4-1.5
		c-0.2-0.4,0-0.8,0.3-1c0.3-0.2,0.6-0.3,1-0.3c2.3-0.5,4.2-2.1,5-4.3c0.2-0.3,0.2-0.7,0.1-1c-0.3-0.7-1.3-0.7-2.1-0.5l-4.1,1
		c-0.8,0.2-1.6,0.4-2.3,0.8c-0.9,0.6-1.7,1.2-2.4,2.1c-2.2,2.3-4.4,4.8-5.6,7.7c-0.5,1.3-0.9,2.8-1.4,4.1c-0.5,1.4-1.5,2.5-2.7,3.3
		c-1.3,0.7-2,2.2-1.8,3.7c0.3,1.5,1,2.9,1.9,4.1c1.5,2.4,3.3,4.7,5.2,6.8c1.4,1.3,2.6,2.7,3.5,4.3c0.6,1.2,0.8,2.5,1.4,3.8
		c0.3,0.6,0.5,1.2,0.7,1.8c0.1,0.4,0.1,0.9,0,1.3c-0.9,6.7-5.9,12.2-7.7,18.8c-0.1,0.3-0.2,0.7-0.1,1c0.2,0.6,0.6,1.1,1.1,1.5
		c3.6,2.7,8.1,4.2,12.4,5.5C490.6,423.9,491.1,421.5,491.5,419.1z"/>
	<path class="st11" d="M494.3,417.4c0.1,0.1,0.3,0.2,0.3,0.3c0.1,0.2,0.1,0.4,0,0.5c-1,3-2.3,5.9-3.9,8.6c-3.2-1.8-6.4-3.7-9.5-5.7
		c-0.8-0.4-1.4-1-1.9-1.8C474.8,410.7,491.3,415.7,494.3,417.4z"/>
	<path class="st12" d="M476.2,421.7c-1.1,1.4-2.3,2.7-3.3,4.1c-1.7,2.7-3.3,5.4-4.6,8.3c-1.9,3.7-4.3,7.2-7,10.4
		c-2.7,3.2-6,6.5-6.3,10.7c0,0.6-0.1,1.2-0.4,1.7c-0.4,0.4-0.8,0.7-1.2,1c-0.4,0.4-0.6,1.1-0.2,1.4c-1.6,0.2-2.2,2-2.5,3.6l-0.7,3.5
		c-0.2,0.9-0.3,1.9-0.3,2.8c0.1,1.3,0.4,2.6,0.9,3.7c1.6,4.4,3.8,8.5,6.4,12.4c1.3,1.8,2.7,3.7,4.7,4.6c1.9,0.7,4,0.8,6,0.6
		c2.9-0.2,6.2-0.7,7.7-3.2c0.9-1.6,0.8-3.7,1.8-5.2c0.6-0.7,1.2-1.4,1.9-2.1c1.1-1.4,1.9-2.9,2.3-4.6c2.6-7.5,4.8-15.2,6.3-23.1
		c0.4-2.6,1.1-5.2,2.1-7.7c1.1-2.2,2.4-4.3,3.8-6.3c2.6-3.9,3-7.3,4.7-11.6c-3.9-0.9-5.7-3.5-9.1-5.7c-3.2-2.1-7.8-6.5-11.1-8.1
		C477,415.7,478,419.2,476.2,421.7z"/>
	<path class="st12" d="M473.8,419.5c-1.1,1.4-2.3,2.7-3.3,4.1c-1.7,2.7-3.3,5.4-4.6,8.3c-2,3.7-4.3,7.2-7,10.4
		c-2.7,3.2-6,6.5-6.3,10.7c0,0.6-0.1,1.2-0.4,1.7c-0.3,0.5-0.8,0.7-1.2,1s-0.6,1.1-0.2,1.4c-1.6,0.2-2.2,2-2.5,3.6l-0.7,3.5
		c-0.2,0.9-0.3,1.9-0.3,2.8c0.1,1.3,0.4,2.6,0.9,3.7c1.7,4.4,3.8,8.5,6.4,12.4c1.3,1.8,2.7,3.7,4.7,4.6c1.9,0.6,4,0.8,6,0.6
		c2.9-0.2,6.3-0.7,7.7-3.2c0.9-1.6,0.8-3.7,1.8-5.2c0.6-0.7,1.2-1.4,1.9-2.1c1.1-1.4,1.9-2.9,2.3-4.6c2.6-7.5,4.8-15.3,6.3-23.1
		c0.4-2.6,1.1-5.2,2.1-7.7c1.1-2.2,2.4-4.4,3.8-6.4c2.6-3.9,2.4-6.2,4.2-10.5c-3.9-0.9-5.2-4.6-8.5-6.8c-3.2-2.1-7.8-6.5-11.1-8.1
		C474.7,413.6,475.6,417.1,473.8,419.5z"/>
	<path class="st15" d="M475.1,420.6c-1.1,1.4-2.3,2.7-3.3,4.1c-1.7,2.7-3.3,5.4-4.6,8.3c-1.9,3.7-4.3,7.2-7,10.4
		c-2.7,3.2-6,6.5-6.3,10.7c0,0.6-0.1,1.2-0.4,1.7c-0.4,0.4-0.8,0.7-1.2,1c-0.4,0.4-0.6,1.1-0.2,1.4c-1.6,0.2-2.2,2-2.5,3.6l-0.7,3.5
		c-0.2,0.9-0.3,1.9-0.3,2.8c0.1,1.3,0.4,2.6,0.9,3.7c1.7,4.4,3.8,8.5,6.4,12.4c1.3,1.8,2.7,3.7,4.7,4.6c1.9,0.7,4,0.9,6,0.6
		c2.9-0.2,6.3-0.7,7.7-3.2c0.9-1.6,0.8-3.7,1.8-5.2c0.6-0.7,1.2-1.4,1.9-2.1c1.1-1.4,1.9-3,2.3-4.6c2.6-7.5,4.8-15.2,6.3-23.1
		c0.4-2.6,1.1-5.2,2.1-7.7c1.1-2.2,2.4-4.3,3.9-6.3c2.6-3.9,4.8-8,6.5-12.3c-3.9-1-7.6-2.7-10.9-4.9c-3.2-2.1-7.8-6.5-11.1-8.1
		C476,414.7,476.9,418.2,475.1,420.6z"/>
	<circle class="st11" cx="485.2" cy="423.7" r="2.1"/>
	<circle class="st11" cx="478.5" cy="434.1" r="2.1"/>
	<circle class="st11" cx="471.7" cy="444.7" r="2.1"/>
	<path class="st15" d="M579.7,492.3h-19.5c0-1.1-0.2-2.1-0.8-3c0,0.1,0,0.1,0,0.2c-0.1,0.9-0.1,1.9,0.1,2.8h-24.5
		c0-2.8,0.3-5.6,0.9-8.4c0.8-4.5,1.3-9,1.4-13.5c0.1-5.6-0.3-11.2-0.3-16.7c0-5.5,0.3-11.1,1.1-16.5c0.7-5,1.7-10.2,0.8-15.2
		c-0.9-5.6-1.7-11.3-2.4-16.9c0-0.2,0-0.4-0.1-0.6c-0.1-1-0.3-2.1-0.6-3.1c-0.3-0.8-0.7-1.7-1.1-2.5c-0.7-1.4-1.2-2.9-1.7-4.4
		c-0.8-2.8-1.4-5.6-1.6-8.5c-0.1-1.7-2.4-3.1-2.5-4.8l0,0c0,0,0-0.1,0-0.1c3.3-0.7,9-1.5,12.2-0.3s5.5,3.9,8.6,4.9
		c1.9,0.5,3.8,0.7,5.8,0.7c1.3,0,2.5,0.2,3.8,0.6c0.7,0.2,1.2,0.6,1.6,1.1c0,0.1,0.1,0.1,0.1,0.2c0.2,1-0.3,1.9-1.3,2.3
		c-0.8,0.3-1.6,0.4-2.4,0.3l0,0l-0.7-0.1c3,2.2,6,4.6,8.9,7l0.9,0.8c1.1,0.9,2.1,1.9,2.7,3.2c0.6,1.5,0.9,3.1,0.8,4.7
		c0,1.9,0,3.7,0,5.6c0,3.6,1.8,6.9,2.4,10.4c0.8,4.5,1.2,9,1.5,13.5c0.2,2.6,0.4,5.3,0.5,7.9c0.2,5.1,1.1,10.1,1.2,15.2
		c0,1.6,0,3.1,0.1,4.7s0.4,3,0.7,4.5c0.6,3.3,1.2,6.5,1.8,9.8c0.2,0.8,0.3,1.7,0.3,2.6l0,0c-0.2,1.2-0.2,2.5-0.1,3.7
		c0.2,0.5,0.4,1,0.6,1.5C579.5,487.9,579.8,490.1,579.7,492.3z"/>
	<ellipse class="st11" cx="510.8" cy="307.3" rx="28.7" ry="11.1"/>
	<path class="st15" d="M539.1,325.3c-0.1-1-0.3-2-0.7-2.9l0,0c-0.2-0.5-0.5-1-0.8-1.4c-3.6-4.6-12.1-2.9-12.1-2.9
		c-0.7-0.3-1.4-0.5-2-0.6c-2.5-0.7-5.1-0.3-7.3,0.9c-1.6,1-3,2.4-3.8,4.1c-0.2,0.6-0.4,1.3-0.6,1.9c-0.1,0.6-0.2,1.1-0.3,1.7
		c-1,7.6,4.7,12.2,8.3,14.3c2.7,1.6,6.1,1.9,9,0.7c5.5-2.1,9.5-7,10.4-12.8c0.1-0.5,0.1-1.1,0.1-1.6l0,0
		C539.1,326.1,539.1,325.7,539.1,325.3z M535.3,328.4c-0.8,4.8-4,8.8-8.5,10.7c-2.4,1-5.1,0.8-7.4-0.6c-3.4-2-8.9-6.8-6-14.9
		c0,0,3-6.8,10.8-3.7C524.3,319.9,536.7,317.3,535.3,328.4z"/>
	<path class="st11" d="M524.3,319.9c0,0,12.4-2.5,11,8.5c-0.8,4.8-4,8.8-8.5,10.7c-1,0.4-2.1,0.6-3.1,0.6l0,0
		c-1.5,0-2.9-0.4-4.2-1.2c-3.4-2-8.9-6.8-6-14.9C513.6,323.6,516.6,316.8,524.3,319.9z"/>
	
		<radialGradient id="SVGID_4_" cx="540.32" cy="194.6963" r="10.8418" gradientTransform="matrix(1 0 0 -1 -16.24 524.0701)" gradientUnits="userSpaceOnUse">
		<stop  offset="0" style="stop-color:#FFFFFF"/>
		<stop  offset="1" style="stop-color:#000000"/>
	</radialGradient>
	<path class="st16" d="M524.3,319.9c0,0,12.4-2.5,11,8.5c-0.8,4.8-4,8.8-8.5,10.7c-1,0.4-2.1,0.6-3.1,0.6l0,0
		c-1.5,0-2.9-0.4-4.2-1.2c-3.4-2-8.9-6.8-6-14.9C513.6,323.6,516.6,316.8,524.3,319.9z"/>
	<path class="st15" d="M507.9,326c-0.1-0.6-0.2-1.1-0.3-1.7c-0.2-0.7-0.4-1.3-0.6-1.9c-1-1.9-2.5-3.4-4.3-4.4
		c-1.7-0.9-3.7-1.2-5.6-0.9c-1.1,0.2-2.2,0.5-3.3,0.9c0,0-8.5-1.7-12.1,2.9c-0.3,0.4-0.6,0.9-0.8,1.4l0,0c-0.4,0.9-0.6,1.9-0.7,2.9
		c0,0.4,0,0.8,0,1.2l0,0c0,1.7,0.4,3.4,1,5v0.1c0.8,2.1,2.1,4,3.7,5.6c0.6,0.6,1.2,1.2,1.9,1.7c1.2,0.9,2.5,1.6,3.9,2.2
		c2.9,1.2,6.3,0.9,9-0.7C503.3,338.2,508.9,333.6,507.9,326z M499.7,338.5c-2.2,1.3-5,1.6-7.4,0.6c-4.5-1.8-7.7-5.9-8.5-10.7
		c-1.4-11,11-8.5,11-8.5c7.7-3.1,10.8,3.7,10.8,3.7C508.6,331.7,503.1,336.4,499.7,338.5z"/>
	<path class="st11" d="M494.9,319.9c0,0-12.4-2.5-11,8.5c0.8,4.8,4,8.8,8.5,10.7c1,0.4,2.1,0.6,3.1,0.6l0,0c1.5,0,2.9-0.4,4.2-1.2
		c3.4-2,8.9-6.8,6-14.9C505.7,323.6,502.6,316.8,494.9,319.9z"/>
	
		<radialGradient id="SVGID_5_" cx="4418.71" cy="194.6963" r="10.8418" gradientTransform="matrix(-1 0 0 -1 4913.8501 524.0701)" gradientUnits="userSpaceOnUse">
		<stop  offset="0" style="stop-color:#FFFFFF"/>
		<stop  offset="1" style="stop-color:#000000"/>
	</radialGradient>
	<path class="st17" d="M494.9,319.9c0,0-12.4-2.5-11,8.5c0.8,4.8,4,8.8,8.5,10.7c1,0.4,2.1,0.6,3.1,0.6l0,0c1.5,0,2.9-0.4,4.2-1.2
		c3.4-2,8.9-6.8,6-14.9C505.7,323.6,502.6,316.8,494.9,319.9z"/>
	<rect x="506.7" y="324.3" class="st15" width="5.8" height="1.7"/>
</g>
<linearGradient id="SVGID_6_" gradientUnits="userSpaceOnUse" x1="115.6837" y1="41.3325" x2="293.0832" y2="41.3325" gradientTransform="matrix(1 0 0 -1 -16.24 524.0701)">
	<stop  offset="0" style="stop-color:#808080;stop-opacity:0.25"/>
	<stop  offset="0.54" style="stop-color:#808080;stop-opacity:0.12"/>
	<stop  offset="1" style="stop-color:#808080;stop-opacity:0.1"/>
</linearGradient>
<path class="st18" d="M275.4,579.6c-2.4-4.6-7.5-6.8-12.4-8.6s-10-3.5-15.1-5c6.2-5.6,11.1-12.5,15.6-19.5c2.5-4,5-8.2,6.2-12.8
	s1.1-9.7-1.3-13.8c-2.9-4.9-8.5-7.6-14.2-8.3s-11.4,0.4-16.9,1.5c-4,0.8-8,1.6-12,2.5c2.3-1.1,4.6-2.4,6.8-3.8
	c8.2-5.1,15.5-11.7,22.4-18.5c2.2-2.2,4.5-4.7,4.4-7.8c-0.1-2.8-2.3-5.3-4.9-6.3c-2.7-0.9-5.6-1-8.4-0.3
	c-7.6,1.6-14.2,6.3-18.3,12.9c-1.4,2.3-2.5,4.8-4.4,6.8c-2.3,2.3-5.9,3.1-8.4,0.8c-0.9-1-1.5-2.1-1.9-3.4l0.1-0.2
	c5-7.3,5.4-17.1,2.1-25.3c-2.5-6.3-6.9-11.5-11.2-16.7c3.9-2.7,8.2-5,12.6-6.6c1.2-0.4,2.4-0.9,3.5-1.6c2.1-1.6,2.8-4.5,2.8-7.2
	s-0.4-5.3,0.2-7.9c2.7,0.8,5.5,1.3,8.3,1.3c10.8,0,20.6-6.3,25-16.2c5-1.3,9.8-3.4,13.4-7c4.4-4.5,7.1-13.1,2.4-18.3
	c-1.5-1.7-3.9-2.5-5.8-3.7c-3-2-5-4.5-7.1-7.3c-9.3-12.5-22.6-14.8-37.6-13.2c-6.7,0.8-13.5,2-19.7,4.7c-4.7,2.3-9.2,5-13.5,8.1
	c-0.7,0.5-1.4,1-2,1.5c-1.2-3.7-2.8-7.4-3.8-10.3c-0.5-1.2-0.7-2.5-0.6-3.8c0.3-2.2,2.2-3.8,4-5.2l25.4-19.9c2.7-2.2,5.5-4.2,8.5-6
	c8.8-4.7,19.8-5.3,27.2-12c4.3-3.9,6.7-9.5,6.6-15.3c-0.1-4.1-2-8.8-6-9.9c-4.2-1.2-8.3,1.9-11.5,4.8c-10.6,9.5-21.2,19.1-33.1,27
	c-11.2,7.5-23.6,13.4-33.6,22.5c-1.8,1.5-3.4,3.3-4.6,5.4c-1.2,2.4-2.1,5-2.5,7.7l-2.1,9.7c-1.7,7.8-3,16.9,1.8,23.2
	c-0.3,0.6-0.5,1.2-0.7,1.8c-0.7,2.4,0.6,5,0,7.1c-0.7,2.4-4.3,5-5.9,6.9c-2.2,2.6-4.4,5.3-6.5,8c-8,10.8-14.8,22.4-20.4,34.5
	c-8.6,18.3-15,37.4-21.5,56.5c-1.1,3.4-2.3,6.8-2.3,10.4c0,3.2,1,6.4,2.7,9.1c-1.7,10.1-6.1,19.8-6.2,30.2l-1.6,0.7
	c-0.7,9.6,4,19.2,8,28c2.3,5,5.1,10.4,10.2,12.4c2.6,1,5.5,1.1,8.4,1c3.3,0,6.3,0.1,9.3,0.1H135c-3.6,0.6-7.6,2-9,5.3
	c-0.6,1.8-0.7,3.7-0.4,5.6c1.2,13.1,2.3,26.3,3.5,39.4c0.3,2.9,0.6,6,2.6,8.2c1.8,2,4.6,2.7,7.3,3.1c5,0.8,10.1,0.8,15.1,0.1
	c2.1-0.1,4.1-0.8,5.9-2c1.7-1.3,2.7-3.6,1.9-5.5c-1.2-2.8-5.1-3.1-7-5.4c-2.5-2.9-0.9-7.4,0.9-10.8c0.3-0.5,0.6-1.1,0.9-1.7
	c1.8,2.6,3.9,5,6.2,7.1c2,1.7,4.7,2.9,7,1.7c5.5-2.9,11.1-5.7,16.7-8.5l1.3,0.2c10.9,1.5,21.8,2.1,32.8,1.8c2.1,0.1,4.2-0.3,6.1-1.1
	c1.9-0.9,3.4-2.9,3.1-4.9c-0.3-2.5-3-3.9-5.3-4.8c-4.4-1.6-9.1-2.6-13.8-2.9c6.1-2.9,12.3-5.8,18.4-8.7c6.1-2.9,12.4-5.8,19-7.5
	c8.5-2.1,18.5-2.7,24-9.4c3.3-4.1,4.1-9.6,4.5-14.8C276.9,586.5,277,582.8,275.4,579.6z M189,524.4c-3,0.8-6.4,1.6-9.8,2.6
	c-0.3-2.6-0.8-5.2-1.1-7.8c-0.2-0.8-0.1-1.6,0.2-2.4c0.5-0.7,1.2-1.3,2-1.6l11.4-5.6c0-2.1-0.8-4.1-2.4-5.6c1.1,0.4,2.3,0.7,3.4,0.9
	c1.2,5,3.3,9.7,6.4,13.9c0.7,1,1.6,1.8,2.7,2.3l0.2,0C197.6,522.1,193.3,523.2,189,524.4z"/>
<path class="st19" d="M199.9,413.2c-5.7,1.7-12,0.3-17-2.7c-1-0.7-2.1-1.2-3.3-1.5c-2.1-0.4-4.1,0.8-5.6,2.3
	c-4.9,4.8-5.4,12.8-2.9,19.2s7.6,11.4,12.9,15.8c4.3,3.5,8.8,6.7,13.5,9.6c2.6-6.2,7.6-11,13.9-13.5c5.6-2.2,9.6-7.9,12.8-13
	c2.4-3.7,4.5-3.6,2.3-7.4s-5.5-6.9-8.4-10.2c-1.7-1.8-3.3-3.9-4.5-6.1c-1.4-2.5-1.1-4.2-3.3-2.2c-1.5,1.3-2.1,4.2-3.7,5.8
	C204.6,411.2,202.4,412.5,199.9,413.2z"/>
<path class="st19" d="M182.5,373.7c-0.5-1.2-0.7-2.5-0.6-3.8c0.3-2.2,2.1-3.7,3.9-5.1l24.8-19.7c2.6-2.2,5.4-4.1,8.3-5.9
	c8.6-4.7,19.4-5.2,26.5-11.9c4.2-3.9,6.5-9.4,6.5-15.1c-0.1-4.1-2-8.6-5.9-9.8c-4.1-1.2-8.1,1.9-11.3,4.7
	c-10.4,9.3-20.7,18.8-32.3,26.6c-11,7.4-23,13.3-32.8,22.2c-1.8,1.5-3.3,3.3-4.5,5.3c-1.2,2.4-2,5-2.5,7.7l-2,9.6
	c-1.7,8.1-3.1,17.5,2.4,23.8c1.6,2,4,3.2,6.6,3.3c1.8-0.2,3.6-0.8,5.1-1.7c4.1-2.1,11.4-4.1,12.6-9.1
	C188.9,388.4,184.4,379.5,182.5,373.7z"/>
<path class="st19" d="M222.1,500.5c1.9-1.9,2.9-4.4,4.3-6.7c3.9-6.5,10.4-11.1,17.8-12.8c2.7-0.7,5.6-0.6,8.2,0.3
	c2.7,1,4.5,3.4,4.8,6.3c0,3-2.2,5.5-4.3,7.7c-6.7,6.7-13.8,13.2-21.8,18.2s-17.2,8.6-26.6,9.3c-1,0.1-1.9,0-2.8-0.3
	c-1.1-0.5-2-1.3-2.6-2.2c-5-6.5-6.8-14.8-8.1-22.9c0.5,2.9,16.8-3.9,18.7-3c2.7,1.3,2.4,5.1,4.4,6.9
	C216.3,503.6,219.8,502.7,222.1,500.5z"/>
<path class="st19" d="M103,564.2c-0.1,1,0.1,2,0.6,2.9c1.1,1.8,3.6,1.8,5.7,1.5c4.7-0.8,9.4-1.9,14-3.4l41.6-12
	c0.7-0.1,1.3-0.4,1.8-0.9c0.4-0.5,0.7-1.2,0.8-1.8c1.5-6,1.8-12.2,0.9-18.3c0-0.9-0.3-1.7-0.8-2.5c-0.9-0.9-2.2-1.3-3.5-1.3
	c-6.5-0.7-13.1-1-19.6-0.9c-4.3,0.2-8.5,0.1-12.8-0.3c-5.5-0.7-11.8-3.8-17.3-3.3c-4.8,0.4-4.6,4.1-5.1,8.1
	C108.1,542.9,103.1,553.2,103,564.2z"/>
<path class="st11" d="M236,514.8c5.5-1.1,11-2.2,16.5-1.5s11.1,3.4,13.9,8.2c2.4,4,2.5,9.1,1.3,13.6s-3.6,8.6-6.1,12.6
	c-5,7.9-10.5,15.6-17.8,21.4c-3.5,2.8-7.5,5.2-10.9,8.1c-7.3,6.3-11.8,15.2-16.1,23.8c-4.1,8.1-8.2,16.4-9.9,25.3
	c0,0.7-0.4,1.3-0.9,1.8c-0.6,0.3-1.2,0.3-1.8,0.1l-20-3.7c-0.9-0.1-1.8-0.4-2.5-1c-0.9-1-0.6-2.4-0.3-3.7
	c4.3-18.6,12.4-36.2,23.8-51.6c-10.7,10.1-25.7,14.5-40.2,11.7c-2.8-0.4-5.4-1.5-7.6-3.3c-4.5-4-4.3-11-3.3-16.9
	c0.9-5.3,2.1-10.5,3.7-15.6c3.8-12.2,20-15.5,30.9-18.5C204.5,521.6,220.2,518,236,514.8z"/>
<path class="st12" d="M221.3,557.9c-2.8,1.3-5.6,2.7-7.6,5c3.6-4.1,13.9-6.1,18.9-8c6.2-2.3,13-4.7,18.3-8.8
	C240.7,549.3,230.8,553.2,221.3,557.9z"/>
<path class="st9" d="M156.5,643.4c-1.7,3.4-3.4,7.8-0.9,10.7c1.9,2.2,5.7,2.6,6.9,5.3c0.8,1.9-0.2,4.2-1.9,5.4
	c-1.7,1.2-3.7,1.8-5.8,2c-4.9,0.7-9.9,0.6-14.8-0.1c-2.6-0.4-5.4-1.1-7.1-3.1c-1.9-2.1-2.3-5.2-2.5-8.1c-1.1-13-2.3-25.9-3.4-38.9
	c-0.3-1.9-0.2-3.8,0.4-5.5c1.4-3.3,5.3-4.7,8.8-5.3c3.9-0.7,8-0.8,11.9-0.5c2.7,0.2,5.5,0.8,7.5,2.6c2.2,2,2.9,5.2,3.5,8.2
	c0.9,4.6,3.5,11,2.9,15.7C161.7,635.7,158.2,640,156.5,643.4z"/>
<path class="st9" d="M201.3,630.9c7.6-1,15.3-0.1,22.5,2.5c2.3,0.9,4.9,2.3,5.2,4.7c0.3,2-1.2,4-3,4.9c-1.9,0.8-3.9,1.2-6,1.1
	c-10.7,0.3-21.5-0.3-32.1-1.7c-2.7-0.4-5.6-0.8-7.8-2.5s-3.6-4.7-2.5-7.2c1.3-2.7,4.8-3.5,6.5-5.9c1.2-1.8,1.5-4.3,3.4-5.2
	c1.4-0.7,3-0.2,4.4,0.3c2,0.7,6.9,1.4,8.3,3.1C200.8,625.6,201.4,630.8,201.3,630.9z"/>
<circle class="st19" cx="230.1" cy="407.9" r="26.6"/>
<path class="st9" d="M166.8,396.1c4.3-3.1,9.7-4.2,14.9-5.2c1.8-0.3,3.8-0.7,5.4,0.3c1.1,0.8,2,1.9,2.6,3.2c1.6,2.6,2.8,5.4,3.6,8.4
	c0.6,3,0,6.4-2.1,8.6c-1.6,1.6-3.9,2.5-5.5,4c-2.2,2.2-2.9,5.7-2.4,8.8c0.6,3.1,1.8,6,3.5,8.7c3.9,6.9,8.4,13.4,13.3,19.6
	c5.2,6.4,11,12.6,14,20.3c3.2,8.1,2.9,17.8-2,25s-14.7,11-22.9,7.9c1.5,1.4,2.3,3.4,2.3,5.5l-11.2,5.6c-0.8,0.3-1.5,0.9-2,1.6
	c-0.3,0.8-0.4,1.6-0.2,2.4c0.5,4.5,1.7,9.1,1.4,13.6s-2.4,9.4-6.5,11.4c-3.8,1.8-8.3,0.9-12.4,0c-9.7-2-19.5-3-29.4-3.1
	c-4.9,0-10,0.1-14.5-1.8c-6.2-2.7-10.2-8.8-10.3-15.6c0-3.5,1.1-6.9,2.3-10.3c6.3-18.9,12.6-37.8,21-55.8
	c5.5-12,12.1-23.4,19.9-34.1c2-2.7,4.1-5.3,6.3-7.9c1.6-1.8,5.1-4.5,5.8-6.8c0.6-2.1-0.7-4.6,0-7
	C162.6,400.5,164.4,397.9,166.8,396.1z"/>
<path class="st11" d="M101.5,564.8c11.7-5.4,23.4-10.8,35.5-15c9-3.1,18.9-5.5,27.7-2c2.6,1,5,2.6,7.6,3.8
	c8.5,4.1,18.2,4.7,27.6,5.8c20.9,2.3,41.5,7.2,61.3,14.5c4.7,1.8,9.8,4,12.1,8.5c1.6,3.1,1.5,6.8,1.3,10.2
	c-0.4,5.2-1.1,10.6-4.4,14.7c-5.4,6.7-15.1,7.2-23.4,9.3c-6.5,1.6-12.5,4.5-18.5,7.4c-19.5,9.3-38.9,18.5-58,28.6
	c-2.3,1.2-5,0-6.9-1.7c-5.8-5.2-9.7-12.3-12-19.7s-2.9-15.3-3.1-23.1c-7.5,0-13.5-0.3-21-0.3c-2.8,0-5.6,0-8.2-1
	c-5-2-7.7-7.4-10-12.3C105.4,583.7,100.8,574.3,101.5,564.8z"/>
<path class="st12" d="M237.2,592.5c-5.3-2.6-11.4-2.6-17.2-2.6c-3.6-0.1-7.1,0.2-10.7,0.8c-5.5,1.1-10.5,3.7-15.6,5.9
	c-12.4,5.2-25.8,7.8-39.3,7.7"/>
<path class="st11" d="M267.5,411.6c-3.8,3.9-9.1,6-14.4,7.2s-10.7,1.7-16,2.9c-6.5,1.4-13.7,4.9-15.2,11.4c-0.6,2.6-0.2,5.3-0.2,7.9
	s-0.7,5.5-2.8,7.1c-1,0.7-2.2,1.2-3.4,1.6c-21.3,7.7-36.6,29.7-36.5,52.4c-6.8-3.9-11.4-10.7-12.5-18.5c0,7.1-6,14.3-2.6,20.5
	c-15-9.7-19.3-29.7-9.5-44.7c0.5-0.8,1.1-1.6,1.7-2.4c2.7-3.4,6-6.3,8.9-9.5c8-9.3,11.8-21.5,10.5-33.7c-0.6-5.1-2.1-10.3-1-15.4
	c1.6-7,7.7-11.9,13.6-16c4.1-3.1,8.5-5.8,13.1-8c6.1-2.7,12.7-4,19.2-4.7c14.6-1.7,27.6,0.6,36.7,13c2.1,2.8,4,5.3,6.9,7.2
	c1.9,1.2,4.1,2,5.7,3.6C274.5,398.7,271.8,407.2,267.5,411.6z"/>
<ellipse class="st9" cx="62.5" cy="640" rx="26.1" ry="5"/>
<ellipse class="st11" cx="62" cy="637.8" rx="3" ry="4"/>
<ellipse class="st11" cx="62" cy="633" rx="3" ry="4"/>
<ellipse class="st11" cx="62" cy="628.1" rx="3" ry="4"/>
<ellipse class="st11" cx="62" cy="623.3" rx="3" ry="4"/>
<ellipse class="st11" cx="62" cy="618.4" rx="3" ry="4"/>
<ellipse class="st11" cx="62" cy="613.5" rx="3" ry="4"/>
<ellipse class="st11" cx="62" cy="608.7" rx="3" ry="4"/>
<path class="st9" d="M73.4,575.4c0.4-0.5,0.8-1.1,1.1-1.6l-8-1.3l8.6,0.1c1.7-3.6,1.8-7.8,0.3-11.5l-11.6,6l10.7-7.8
	c-4-7-12.9-9.4-19.8-5.4c-7,4-9.4,12.9-5.4,19.8c0.4,0.6,0.8,1.3,1.2,1.8c-0.6,0.8-1.2,1.7-1.7,2.7l10.4,5.4l-11-3.7
	c-1.6,4.7-0.7,9.8,2.3,13.7c-5,6.3-3.9,15.5,2.4,20.4c6.3,5,15.5,3.9,20.4-2.4c4.1-5.3,4.1-12.7,0-18
	C77.6,588.1,77.6,580.7,73.4,575.4L73.4,575.4z"/>
<path class="st12" d="M47.4,584.4c0,3.3,1.1,6.4,3.1,9c-5,6.3-3.9,15.5,2.4,20.4c6.3,5,15.5,3.9,20.4-2.4c4.1-5.3,4.1-12.7,0-18
	C75.4,590.9,47.4,582.8,47.4,584.4z"/>
</svg>
