<?xml version="1.0" encoding="utf-8"?>
<!-- Generator: Adobe Illustrator 23.0.3, SVG Export Plug-In . SVG Version: 6.00 Build 0)  -->
<svg version="1.1" id="b847c0d8-de26-4ae3-b269-ef35a8ef771f"
	 xmlns="http://www.w3.org/2000/svg" xmlns:xlink="http://www.w3.org/1999/xlink" x="0px" y="0px" viewBox="0 0 754.6 562.9"
	 style="enable-background:new 0 0 754.6 562.9;" xml:space="preserve">
<style type="text/css">
	.st0{fill:#D0D2D5;}
	.st1{opacity:0.1;enable-background:new    ;}
	.st2{fill:#444053;}
	.st3{opacity:0.1;fill:#D73534;enable-background:new    ;}
	.st4{fill:#D73534;}
	.st5{fill:#FFFFFF;}
	.st6{opacity:0.3;fill:#D73534;enable-background:new    ;}
	.st7{opacity:0.2;fill:#3F3D56;enable-background:new    ;}
	.st8{fill:#EE8E9E;}
	.st9{fill:#454B69;}
	.st10{opacity:0.1;}
	.st11{opacity:0.6;fill:#444053;enable-background:new    ;}
	.st12{fill:url(#SVGID_1_);}
	.st13{fill:#A26565;}
	.st14{fill:#EFB7B9;}
</style>
<title>youtube tutorial</title>
<polygon class="st0" points="476.5,601.9 281.5,599.4 282.1,594.4 291.5,511.9 462.7,511.9 475.3,594.4 476.3,600.6 "/>
<polygon class="st1" points="476.3,600.6 379,600.6 281.5,599.4 282.1,594.4 475.3,594.4 "/>
<rect x="249" y="595.6" class="st0" width="258.8" height="6.3"/>
<path class="st2" d="M754.6,16.4c0-9-7.2-16.3-16.2-16.4c0,0,0,0,0,0H15.8C6.8,0-0.4,7.4-0.4,16.3c0,0,0,0,0,0v438h755V16.4z"/>
<path class="st0" d="M-0.4,450v51.3c0,8.9,7.3,16.2,16.2,16.2l0,0h722.6c8.9,0,16.2-7.3,16.2-16.2V450H-0.4z"/>
<rect x="30.9" y="27.5" class="st3" width="696.3" height="393.8"/>
<path class="st4" d="M380.9,498c5.2,0,10.1-2.4,13.3-6.4l0,0c0.5-0.6,0.9-1.3,1.3-1.9l-9.3-1.5l10,0.1c1.9-4.2,2.1-9.1,0.3-13.4
	l-13.4,7l12.4-9.1c-4.7-8-15-10.8-23.1-6.1c-8,4.7-10.8,15-6.1,23.1c0.4,0.7,0.8,1.3,1.3,1.9l0,0C370.8,495.7,375.7,498,380.9,498z"
	/>
<polygon class="st1" points="397.7,517.5 475.5,595.6 463.6,517.5 "/>
<path class="st5" d="M53.9,98.5h451.8c1.4,0,2.6,1.2,2.6,2.6v268.8c0,1.4-1.2,2.6-2.6,2.6H53.9c-1.4,0-2.6-1.2-2.6-2.6V101.1
	C51.3,99.7,52.5,98.5,53.9,98.5z"/>
<rect x="31.3" y="27.5" class="st5" width="696" height="23"/>
<path class="st4" d="M35.1,31.5h18.4c0.4,0,0.8,0.3,0.8,0.8v12.4c0,0.4-0.3,0.8-0.8,0.8H35.1c-0.4,0-0.8-0.3-0.8-0.8V32.3
	C34.3,31.9,34.6,31.5,35.1,31.5z"/>
<path class="st6" d="M272.9,31.5h208.8c0.3,0,0.6,0.3,0.6,0.6V45c0,0.3-0.3,0.6-0.6,0.6H272.9c-0.3,0-0.6-0.3-0.6-0.6V32.1
	C272.3,31.8,272.6,31.5,272.9,31.5z"/>
<path class="st2" d="M476.1,40h-0.5l-0.2-0.2c0.6-0.8,1-1.7,1-2.7c0-2.3-1.9-4.1-4.2-4.1c-2.3,0-4.1,1.9-4.1,4.2
	c0,2.3,1.9,4.1,4.1,4.1c1,0,2-0.4,2.7-1l0.2,0.2V41l3.2,3.2l1-1L476.1,40z M472.2,40c-1.6,0-2.9-1.3-2.9-2.9s1.3-2.9,2.9-2.9
	s2.9,1.3,2.9,2.9c0,0,0,0,0,0C475.1,38.7,473.8,40,472.2,40C472.3,40,472.2,40,472.2,40z"/>
<circle class="st4" cx="717.3" cy="38.5" r="7"/>
<path class="st5" d="M543.7,75.5h60.1c1.3,0,2.4,1.1,2.4,2.4v39.1c0,1.3-1.1,2.4-2.4,2.4h-60.1c-1.3,0-2.4-1.1-2.4-2.4V78
	C541.3,76.6,542.4,75.5,543.7,75.5z"/>
<path class="st5" d="M623.9,75.5h82.8c0.3,0,0.6,0.3,0.6,0.6v5.8c0,0.3-0.3,0.6-0.6,0.6h-82.8c-0.3,0-0.6-0.3-0.6-0.6v-5.8
	C623.3,75.8,623.6,75.5,623.9,75.5z"/>
<path class="st5" d="M623.9,90.5h82.8c0.3,0,0.6,0.3,0.6,0.6v5.8c0,0.3-0.3,0.6-0.6,0.6h-82.8c-0.3,0-0.6-0.3-0.6-0.6v-5.8
	C623.3,90.8,623.6,90.5,623.9,90.5z"/>
<path class="st5" d="M623.9,105.5h82.8c0.3,0,0.6,0.3,0.6,0.6v5.8c0,0.3-0.3,0.6-0.6,0.6h-82.8c-0.3,0-0.6-0.3-0.6-0.6v-5.8
	C623.3,105.8,623.6,105.5,623.9,105.5z"/>
<path class="st5" d="M543.7,144.5h60.1c1.3,0,2.4,1.1,2.4,2.4v39.1c0,1.3-1.1,2.4-2.4,2.4h-60.1c-1.3,0-2.4-1.1-2.4-2.4V147
	C541.3,145.6,542.4,144.5,543.7,144.5z"/>
<path class="st5" d="M623.9,144.5h82.8c0.3,0,0.6,0.3,0.6,0.6v5.8c0,0.3-0.3,0.6-0.6,0.6h-82.8c-0.3,0-0.6-0.3-0.6-0.6v-5.8
	C623.3,144.8,623.6,144.5,623.9,144.5z"/>
<path class="st5" d="M623.9,159.5h82.8c0.3,0,0.6,0.3,0.6,0.6v5.8c0,0.3-0.3,0.6-0.6,0.6h-82.8c-0.3,0-0.6-0.3-0.6-0.6v-5.8
	C623.3,159.8,623.6,159.5,623.9,159.5z"/>
<path class="st5" d="M624,174.5h82.7c0.4,0,0.7,0.3,0.7,0.7v5.7c0,0.4-0.3,0.7-0.7,0.7H624c-0.4,0-0.7-0.3-0.7-0.7v-5.7
	C623.3,174.8,623.6,174.5,624,174.5z"/>
<path class="st5" d="M543.7,213.5h60.1c1.3,0,2.4,1.1,2.4,2.4v39.1c0,1.3-1.1,2.4-2.4,2.4h-60.1c-1.3,0-2.4-1.1-2.4-2.4V216
	C541.3,214.6,542.4,213.5,543.7,213.5z"/>
<path class="st5" d="M624,213.5h82.7c0.4,0,0.7,0.3,0.7,0.7v5.7c0,0.4-0.3,0.7-0.7,0.7H624c-0.4,0-0.7-0.3-0.7-0.7v-5.7
	C623.3,213.8,623.6,213.5,624,213.5z"/>
<path class="st5" d="M624,228.5h82.7c0.4,0,0.7,0.3,0.7,0.7v5.7c0,0.4-0.3,0.7-0.7,0.7H624c-0.4,0-0.7-0.3-0.7-0.7v-5.7
	C623.3,228.8,623.6,228.5,624,228.5z"/>
<path class="st5" d="M624,243.5h82.7c0.4,0,0.7,0.3,0.7,0.7v5.7c0,0.4-0.3,0.7-0.7,0.7H624c-0.4,0-0.7-0.3-0.7-0.7v-5.7
	C623.3,243.8,623.6,243.5,624,243.5z"/>
<path class="st5" d="M543.7,282.5h60.1c1.3,0,2.4,1.1,2.4,2.4v39.1c0,1.3-1.1,2.4-2.4,2.4h-60.1c-1.3,0-2.4-1.1-2.4-2.4V285
	C541.3,283.6,542.4,282.5,543.7,282.5z"/>
<path class="st5" d="M624,282.5h82.7c0.4,0,0.7,0.3,0.7,0.7v5.7c0,0.4-0.3,0.7-0.7,0.7H624c-0.4,0-0.7-0.3-0.7-0.7v-5.7
	C623.3,282.8,623.6,282.5,624,282.5z"/>
<path class="st5" d="M624,297.5h82.7c0.4,0,0.7,0.3,0.7,0.7v5.7c0,0.4-0.3,0.7-0.7,0.7H624c-0.4,0-0.7-0.3-0.7-0.7v-5.7
	C623.3,297.8,623.6,297.5,624,297.5z"/>
<path class="st5" d="M624,312.5h82.7c0.4,0,0.7,0.3,0.7,0.7v5.7c0,0.4-0.3,0.7-0.7,0.7H624c-0.4,0-0.7-0.3-0.7-0.7v-5.7
	C623.3,312.8,623.6,312.5,624,312.5z"/>
<path class="st5" d="M543.7,351.5h60.1c1.3,0,2.4,1.1,2.4,2.4v39.1c0,1.3-1.1,2.4-2.4,2.4h-60.1c-1.3,0-2.4-1.1-2.4-2.4V354
	C541.3,352.6,542.4,351.5,543.7,351.5z"/>
<path class="st5" d="M624,351.5h82.7c0.4,0,0.7,0.3,0.7,0.7v5.7c0,0.4-0.3,0.7-0.7,0.7H624c-0.4,0-0.7-0.3-0.7-0.7v-5.7
	C623.3,351.8,623.6,351.5,624,351.5z"/>
<path class="st5" d="M624,366.5h82.7c0.4,0,0.7,0.3,0.7,0.7v5.7c0,0.4-0.3,0.7-0.7,0.7H624c-0.4,0-0.7-0.3-0.7-0.7v-5.7
	C623.3,366.8,623.6,366.5,624,366.5z"/>
<path class="st5" d="M624,381.5h82.7c0.4,0,0.7,0.3,0.7,0.7v5.7c0,0.4-0.3,0.7-0.7,0.7H624c-0.4,0-0.7-0.3-0.7-0.7v-5.7
	C623.3,381.8,623.6,381.5,624,381.5z"/>
<rect x="117.2" y="171.2" class="st3" width="102.8" height="5.3"/>
<rect x="126.4" y="143" class="st3" width="9.9" height="28.2"/>
<rect x="140.8" y="143" class="st3" width="9.9" height="28.2"/>
<rect x="155.3" y="143" class="st3" width="9.9" height="28.2"/>
<rect x="169.8" y="143" class="st3" width="9.9" height="28.2"/>
<rect x="184.2" y="143" class="st3" width="9.9" height="28.2"/>
<rect x="198.7" y="143" class="st3" width="9.9" height="28.2"/>
<rect x="126.4" y="148.3" class="st3" width="9.9" height="3"/>
<rect x="140.8" y="148.3" class="st3" width="9.9" height="3"/>
<rect x="155.3" y="148.3" class="st3" width="9.9" height="3"/>
<rect x="169.8" y="148.3" class="st3" width="9.9" height="3"/>
<rect x="184.2" y="148.3" class="st3" width="9.9" height="3"/>
<rect x="198.7" y="148.3" class="st3" width="9.9" height="3"/>
<rect x="126.4" y="162" class="st3" width="9.9" height="3"/>
<rect x="140.8" y="162" class="st3" width="9.9" height="3"/>
<rect x="155.3" y="162" class="st3" width="9.9" height="3"/>
<rect x="169.8" y="162" class="st3" width="9.9" height="3"/>
<rect x="184.2" y="162" class="st3" width="9.9" height="3"/>
<rect x="198.7" y="162" class="st3" width="9.9" height="3"/>
<rect x="342.7" y="184.9" class="st3" width="102.8" height="5.3"/>
<rect x="351.8" y="156.7" class="st3" width="9.9" height="28.2"/>
<rect x="366.3" y="156.7" class="st3" width="9.9" height="28.2"/>
<rect x="380.8" y="156.7" class="st3" width="9.9" height="28.2"/>
<rect x="395.2" y="156.7" class="st3" width="9.9" height="28.2"/>
<rect x="409.7" y="156.7" class="st3" width="9.9" height="28.2"/>
<rect x="424.2" y="156.7" class="st3" width="9.9" height="28.2"/>
<rect x="351.8" y="162" class="st3" width="9.9" height="3"/>
<rect x="366.3" y="162" class="st3" width="9.9" height="3"/>
<rect x="380.8" y="162" class="st3" width="9.9" height="3"/>
<rect x="395.2" y="162" class="st3" width="9.9" height="3"/>
<rect x="409.7" y="162" class="st3" width="9.9" height="3"/>
<rect x="424.2" y="162" class="st3" width="9.9" height="3"/>
<rect x="351.8" y="175.7" class="st3" width="9.9" height="3"/>
<rect x="366.3" y="175.7" class="st3" width="9.9" height="3"/>
<rect x="380.8" y="175.7" class="st3" width="9.9" height="3"/>
<rect x="395.2" y="175.7" class="st3" width="9.9" height="3"/>
<rect x="409.7" y="175.7" class="st3" width="9.9" height="3"/>
<rect x="424.2" y="175.7" class="st3" width="9.9" height="3"/>
<rect x="342.7" y="223.7" class="st3" width="102.8" height="5.3"/>
<rect x="351.8" y="195.5" class="st3" width="9.9" height="28.2"/>
<rect x="366.3" y="195.5" class="st3" width="9.9" height="28.2"/>
<rect x="380.8" y="195.5" class="st3" width="9.9" height="28.2"/>
<rect x="395.2" y="195.5" class="st3" width="9.9" height="28.2"/>
<rect x="409.7" y="195.5" class="st3" width="9.9" height="28.2"/>
<rect x="424.2" y="195.5" class="st3" width="9.9" height="28.2"/>
<rect x="351.8" y="200.9" class="st3" width="9.9" height="3"/>
<rect x="366.3" y="200.9" class="st3" width="9.9" height="3"/>
<rect x="380.8" y="200.9" class="st3" width="9.9" height="3"/>
<rect x="395.2" y="200.9" class="st3" width="9.9" height="3"/>
<rect x="409.7" y="200.9" class="st3" width="9.9" height="3"/>
<rect x="424.2" y="200.9" class="st3" width="9.9" height="3"/>
<rect x="351.8" y="214.6" class="st3" width="9.9" height="3"/>
<rect x="366.3" y="214.6" class="st3" width="9.9" height="3"/>
<rect x="380.8" y="214.6" class="st3" width="9.9" height="3"/>
<rect x="395.2" y="214.6" class="st3" width="9.9" height="3"/>
<rect x="409.7" y="214.6" class="st3" width="9.9" height="3"/>
<rect x="424.2" y="214.6" class="st3" width="9.9" height="3"/>
<path class="st3" d="M180.3,231.4c-0.8-1-1.5-2-2.1-3.1l14.8-2.4l-16,0.1c-3.1-6.8-3.3-14.5-0.5-21.4l21.5,11.1l-19.8-14.6
	c7.4-13,23.9-17.5,36.8-10.1c13,7.4,17.5,23.9,10.1,36.8c-0.7,1.2-1.5,2.4-2.3,3.5c1.2,1.5,2.2,3.2,3.1,4.9l-19.2,10l20.5-6.9
	c2.9,8.6,1.3,18.1-4.4,25.3c9.2,11.7,7.2,28.7-4.5,37.9s-28.7,7.2-37.9-4.5c-7.7-9.8-7.7-23.6,0-33.4
	C172.6,255,172.6,241.2,180.3,231.4L180.3,231.4z"/>
<path class="st3" d="M228.5,248.1c0,6-2,11.9-5.8,16.7c9.2,11.7,7.2,28.7-4.5,37.9s-28.7,7.2-37.9-4.5c-7.7-9.8-7.7-23.6,0-33.4
	C176.7,260.2,228.5,245.1,228.5,248.1z"/>
<path class="st7" d="M205.8,315.6c0,0.1,0.1,0.1,0.1,0.2h-9.2c0-0.1,0.1-0.1,0.1-0.2c-0.8-1.4-1.2-2.9-1.2-4.5
	c0-1.1,0.2-2.2,0.5-3.2l0,0c0.5,0.1,1.1,0.2,1.9,0.3c2.1,0.2,4.3,0.2,6.4,0c0.6-0.1,1.2-0.1,1.9-0.2c0,0,0,0,0,0
	c0.4,1,0.5,2.1,0.5,3.1C207,312.7,206.6,314.3,205.8,315.6z"/>
<path class="st3" d="M172.9,315.9h-51c-0.1-0.3-0.2-0.6-0.3-0.9c-1.8-5.8-1.6-12,0.6-17.6c-10.2-7.1-14.3-20.3-9.9-31.9
	c-1-0.7-2-1.5-2.9-2.3l13.4-6.7l-15.3,4.8c-5-5.5-7.4-12.9-6.8-20.3l23.8,4.3l-23.2-8.1c3.2-14.6,17.6-23.8,32.2-20.6
	c14.6,3.2,23.8,17.6,20.6,32.2c-0.3,1.4-0.7,2.8-1.2,4.1c1.6,1.1,3.1,2.4,4.4,3.9L141.9,272l17.5-12.6c5.3,7.4,6.6,17,3.3,25.5
	C172.7,291.7,176.9,304.4,172.9,315.9z"/>
<path class="st3" d="M172.9,315.9h-51c-0.1-0.3-0.2-0.6-0.3-0.9c-1.8-5.8-1.6-12,0.6-17.6c-4.8-3.3,40.2-33.1,41.1-30.2
	c1.8,5.8,1.6,12-0.6,17.6C172.7,291.7,176.9,304.4,172.9,315.9z"/>
<path class="st3" d="M403.7,279.3c-3.1,5.2-7.9,9.2-13.5,11.4c0.2,1.9,0.3,3.9,0.1,5.8l-21.6-1.3l21.1,4.6c-0.6,2.9-1.7,5.6-3.2,8.2
	c-1.8,3.1-4.3,5.8-7.2,7.9h-29.4v0.8h-30c0.1-0.3,0.1-0.5,0.2-0.8c2.2-8.4,8.3-15.2,16.5-18.3c-1.6-12.4,5.5-24.2,17.1-28.6
	c-0.2-1.2-0.2-2.5-0.2-3.7l14,5.5l-13.8-8.1c0.8-7.4,4.7-14.1,10.6-18.6l12.7,20.6l-9.5-22.7c13-7.2,29.5-2.5,36.7,10.6
	C408.7,260.8,408.6,271.1,403.7,279.3L403.7,279.3z"/>
<path class="st3" d="M386.5,308c-1.8,3.1-4.3,5.8-7.2,7.9h-29.4v0.8h-30c0.1-0.3,0.1-0.5,0.2-0.8c2.2-8.4,8.3-15.2,16.5-18.3
	c-0.3-2,5.6-1.7,13.3-0.4C365.1,299.7,387.6,306.2,386.5,308z"/>
<path class="st8" d="M259,236c0,0,3.7,20-4.6,26.5c-8.3,6.5,7,45.7,32.2,41.1c25.2-4.6,35.4-37.4,35.4-37.4s-25.2-5.2-15.9-31.8
	L259,236z"/>
<path class="st1" d="M259,236c0,0,3.7,20-4.6,26.5c-8.3,6.5,7,45.7,32.2,41.1c25.2-4.6,35.4-37.4,35.4-37.4s-25.2-5.2-15.9-31.8
	L259,236z"/>
<circle class="st8" cx="281.3" cy="208.9" r="41.8"/>
<path class="st4" d="M349.9,288.3v28.4H212.1v-27.1c0-7,4.2-13.4,10.7-16.1l4-1.7c10-4.3,22.1-9.5,26.1-11.8
	c0.4-0.2,0.8-0.5,1.2-0.8c2.2-2.2,1.7,0.6,1.7,0.6s-0.1,0.5-0.1,1.5c-0.2,6.4,0.7,31.5,30.1,29.4c28.7-2,30-21.4,29.7-27.1
	c0-0.5-0.1-1.1-0.1-1.6c2,0.5,3.9,1.1,5.8,1.9c6,2.2,14.9,5.8,17.2,7.5c0.7,0.5,1.6,1.1,2.6,1.6c1.1,0.6,2.2,1.4,3.1,2.2
	C347.8,278.5,349.9,283.3,349.9,288.3z"/>
<path class="st1" d="M321.2,263.9c-2.4,11.3-10.1,32.4-37.6,32.9c-29.3,0.6-31-28.6-30.8-36.8c0.4-0.2,0.9-0.5,1.2-0.8
	c2.2-2.2,1.7,0.6,1.7,0.6s-3.7,33.3,30,30.9s29.6-28.7,29.6-28.7C315.3,261.9,317.8,262.8,321.2,263.9z"/>
<path class="st9" d="M231.9,211c2.8-0.7,5.8,0.4,7.5,2.8c1.5,2.1,1.8,4.7,1.9,7.2c1.8,0.4,2.8-1.7,3-3.2c0.7-6.3,0.7-12.7,2.8-18.8
	s6.8-12,13.9-14.3c2.4-0.8,5-1.1,7.6-0.7c1.5,0.3,2.9,0.8,4.4,1c5.2,0.9,10.9-1.6,15.7,0.1c3.1,1.1,5,3.6,6.4,6.1
	c0.6,1.3,1.5,2.6,2.5,3.6c2.1,1.9,5.3,2.3,8.3,2.9s6.2,1.6,7.5,3.9c1.1,2.1,0.3,4.5-0.1,6.7c-0.6,3.5,0,7.2,1.7,10.4
	c0.5,1,1.7,2.2,3,1.9c0.6-0.2,1.1-0.6,1.4-1.1c3.4-4.8,3.3-11,7.6-15.3c1.4-1.4,3.3-2.6,4.7-4c2.1-2.2,3-5.3,2.4-8.2
	c-0.8-3.3-3.4-6-5.5-8.9c-2.8-3.7-4.8-7.9-5.9-12.3c-0.2-0.5-0.2-1.1,0-1.6c0.4-0.5,0.9-0.9,1.5-1.2c2.4-1.6,3.2-4.7,1.9-7.3
	c-1.2-2.5-3.9-4.4-6.9-5.5c-3-1-6.2-1.7-9.4-2c-2.1,0.3-4.6-0.9-5.2-2.6c-0.3-0.8-0.3-1.6-0.6-2.3c-0.8-1.5-2.3-2.6-4-2.8
	c-1.8-0.3-3.6-0.2-5.3,0.4c-2,0.6-4.3,1.4-6,0.4c-0.9-0.5-1.4-1.4-2.4-1.9c-2-0.8-4.1,0.9-5.5,2.3c-1.4,1.5-3.1,2.6-5,3.3
	c-2,0.8-4.3,0.6-6.1-0.4c-1.4-0.9-2.1-2.3-3.1-3.4c-2.1-1.8-4.7-2.9-7.5-3c-2.8-0.2-5.7,0.2-8.4,0.9c-5.2,1.3-10.2,3.4-14.8,6.2
	c-2.3,1.3-4.2,3.1-5.7,5.3c-0.8,1.7-1.3,3.5-1.3,5.4c-0.2,5.9,1.7,12.1,6.9,16.3c-3.1,1.3-4.2,4.5-4.9,7.3
	c-1.2,4.5-2.3,9.1-1.9,13.7c0.2,2.4,0.9,4.8,0.5,7.1c-0.3,1.1-0.4,2.3-0.5,3.4C229.5,209.8,230.6,210.8,231.9,211z"/>
<g class="st10">
	<path d="M333.5,189.8c-0.4,1-1.1,1.9-1.8,2.7c-1.4,1.5-3.2,2.6-4.7,4c-4.3,4.3-4.2,10.5-7.6,15.3c-0.3,0.5-0.8,0.9-1.4,1.1
		c-1.3,0.3-2.4-0.8-3-1.9c-0.7-1.3-1.2-2.6-1.5-4c-0.1,0.4-0.1,0.7-0.2,1c-0.6,3.5,0,7.2,1.7,10.4c0.5,1,1.7,2.2,3,1.9
		c0.6-0.2,1.1-0.6,1.4-1.1c3.4-4.8,3.3-11,7.6-15.3c1.4-1.4,3.3-2.6,4.7-4c2.1-2.2,3-5.3,2.4-8.2C334,190.9,333.8,190.3,333.5,189.8
		z"/>
	<path d="M324.2,160.2c-0.6,0.3-1.1,0.7-1.5,1.2c-0.2,0.5-0.2,1.1,0,1.6c0.4,1.6,0.9,3.1,1.5,4.6l0,0c2.4-1.6,3.2-4.7,1.9-7.3
		c-0.2-0.4-0.4-0.8-0.7-1.2C325.1,159.5,324.7,159.9,324.2,160.2z"/>
	<path d="M236,169.4c-3.5-2.9-5.9-7-6.5-11.6c-0.2,0.9-0.3,1.8-0.3,2.7c-0.2,4.4,0.9,8.7,3.3,12.4
		C233.2,171.4,234.4,170.1,236,169.4z"/>
	<path d="M313.4,200.7c0.4-2.3,1.2-4.6,0.1-6.7c-1.3-2.3-4.5-3.3-7.5-3.9s-6.2-1.1-8.3-2.9c-1-1.1-1.9-2.3-2.5-3.6
		c-1.4-2.5-3.4-5-6.4-6.1c-4.9-1.7-10.5,0.7-15.7-0.1c-1.5-0.3-2.9-0.8-4.4-1c-2.5-0.4-5.1-0.1-7.6,0.7c-7.1,2.3-11.7,8.2-13.9,14.3
		s-2.2,12.5-2.8,18.8c-0.2,1.5-1.2,3.6-3,3.2c-0.2-2.5-0.4-5-1.9-7.2c-1.7-2.4-4.7-3.5-7.5-2.7c-0.8-0.2-1.6-0.7-2.1-1.4
		c0.1,0.9,0.1,1.8,0,2.8c-0.3,1.1-0.4,2.3-0.5,3.4c0.3,1.3,1.3,2.3,2.6,2.6c2.8-0.7,5.8,0.4,7.5,2.8c1.5,2.1,1.8,4.7,1.9,7.2
		c1.8,0.4,2.8-1.7,3-3.2c0.7-6.3,0.7-12.7,2.8-18.8s6.8-12,13.9-14.3c2.4-0.8,5-1.1,7.6-0.7c1.5,0.3,2.9,0.8,4.4,1
		c5.2,0.9,10.9-1.6,15.7,0.1c3.1,1.1,5,3.6,6.4,6.1c0.6,1.3,1.5,2.6,2.5,3.6c2.1,1.9,5.3,2.3,8.3,2.9s6,1.5,7.3,3.6
		C313.3,201,313.4,200.9,313.4,200.7z"/>
	<path d="M229.7,197.6c0.2-1.9,0.1-3.7-0.3-5.6c-0.3,1.9-0.4,3.9-0.2,5.8c0,0.5,0.1,1,0.2,1.5C229.5,198.8,229.7,198.2,229.7,197.6z
		"/>
</g>
<path class="st2" d="M180.8,357v-18c0-0.3,0.2-0.5,0.5-0.5c0,0,0,0,0,0h2c0.3,0,0.5,0.2,0.5,0.5l0,0v7.5l8.3-7.7
	c0.6-0.5,1.4-0.4,1.9,0.2c0.2,0.2,0.3,0.5,0.3,0.8v16.3c0,0.8-0.7,1.3-1.4,1.3c-0.3,0-0.6-0.1-0.8-0.3l-8.3-7.7v7.5
	c0,0.3-0.2,0.5-0.5,0.5c0,0,0,0,0,0h-2C181.1,357.4,180.8,357.2,180.8,357z"/>
<path class="st2" d="M381.8,338.9v18c0,0.3-0.2,0.5-0.5,0.5c0,0,0,0,0,0h-2c-0.3,0-0.5-0.2-0.5-0.5l0,0v-7.5l-8.3,7.7
	c-0.6,0.5-1.4,0.4-1.9-0.2c-0.2-0.2-0.3-0.5-0.3-0.8v-16.4c0-0.8,0.7-1.3,1.4-1.3c0.3,0,0.6,0.1,0.8,0.3l8.3,7.7V339
	c0-0.3,0.2-0.5,0.5-0.5l0,0h2C381.6,338.4,381.8,338.7,381.8,338.9z"/>
<path class="st2" d="M277.9,357.8h-4.1c-1.1,0-2-0.9-2-2v-14.9c0-1.1,0.9-2,2-2h4.1c1.1,0,2,0.9,2,2v14.9
	C279.9,356.9,279,357.8,277.9,357.8z M290.8,355.8v-14.9c0-1.1-0.9-2-2-2h-4.1c-1.1,0-2,0.9-2,2v14.9c0,1.1,0.9,2,2,2h4.1
	C289.9,357.8,290.8,356.9,290.8,355.8C290.8,355.8,290.8,355.8,290.8,355.8z"/>
<rect x="161.3" y="314.6" class="st11" width="240" height="2.7"/>
<circle class="st2" cx="235.4" cy="315.9" r="6.3"/>
<rect x="161.3" y="314.6" class="st2" width="74.1" height="2.7"/>
<ellipse class="st3" cx="102.3" cy="656.5" rx="99" ry="21"/>
<linearGradient id="SVGID_1_" gradientUnits="userSpaceOnUse" x1="133.9459" y1="-177.1662" x2="133.9459" y2="232.8017" gradientTransform="matrix(1 0 0 -1 -35 491.74)">
	<stop  offset="0" style="stop-color:#808080;stop-opacity:0.25"/>
	<stop  offset="0.54" style="stop-color:#808080;stop-opacity:0.12"/>
	<stop  offset="1" style="stop-color:#808080;stop-opacity:0.1"/>
</linearGradient>
<path class="st12" d="M135.5,654.1c-2-0.7-4.1-0.6-6.2-0.8c-4.3-0.5-8.4-2.5-11.5-5.6c-2-2-3.5-4.4-4.6-7c0.7,0.2,1.3,0.5,2,0.8
	c-2-4.7,0.1-9.9,1.9-14.6c3.1-8,6.1-16,8.9-24.1c7-20.5,13-41.8,12.9-63.6c0-7.9-1.5-15.3-1.7-23.2c-0.2-5.8,0.7-11.7,0.6-17.5
	c0-0.8,0-1.6-0.1-2.5c3.6-3.2,5.6-7.9,5.3-12.7c-0.1-1.2-0.3-2.5-0.5-3.7c-0.4-2.1-0.8-4.2-1.4-6.3c-0.7-2.2-1.6-4.3-2.3-6.4
	c-1.5-4.1-2.5-8.4-3.8-12.6c0.5,0,0.9,0.2,1.4,0.4c-0.3-0.4-0.5-0.8-0.6-1.3c-0.7-2.7-1.1-5.4-1.2-8.2l0.9-0.4
	c0.4-2.7,0.2-5.4-0.4-8.1c0.5-4.3,1.2-8.6,1.7-12.9c0.2-1.6,0.1-3.6-1.4-4c-0.3-2.3-0.4-4.6-0.5-6.9c-0.4-8.1-0.8-16.1-1.3-24.2
	c-0.4-8.1-0.8-16.2-1-24.3c-0.1-5.1-0.2-10.5-1.4-15.4c0.2-2.4,0-4.7-0.7-7c-1.9-5.9-7.6-10.6-13.5-10.2c-1.7-2.5-3.9-4.7-6.4-6.5
	c1.2-2.6,2.6-5.3,3.7-7.4c9.4-3,16.2-12.3,16.2-23.3c0-4-0.9-8-2.8-11.6c0.2-0.4,0.3-0.9,0.4-1.4c0.5-2.2,0.3-4.4-0.5-6.5
	c-0.3-0.8-0.6-1.6-1-2.3c-0.3-0.5-0.5-1-0.8-1.5l-0.5-0.8c-0.3-0.5-0.6-0.9-1-1.4c-0.7-1-1.5-1.9-2.3-2.7c-1-1.1-2.1-2.1-3.3-2.9
	c-1.6-1.2-3.4-2-5.4-2.5c-1.1-0.2-2.3-0.3-3.4-0.3c-0.7,0-1.4,0-2.1,0.1c-1.4,0.1-2.8,0.2-4.2,0.2c-0.5,0-0.9,0-1.4-0.1
	c-2.4-0.3-4.9-0.8-7.2-1.5l-1.2-0.3c-0.4-0.1-0.8-0.1-1.2-0.2c-1.1-0.1-2.2-0.2-3.3-0.2h-1.1c-1.1,0.1-2.2,0.2-3.3,0.3l-1.1,0.2
	c-2.8,0.4-5.5,1.2-8,2.4c-0.3,0.1-0.7,0.3-1,0.5l-0.2,0.1c-0.3,0.1-0.5,0.3-0.8,0.5l-0.1,0.1l-0.9,0.5l-0.1,0
	c-7.9,5.3-12.6,15.5-13.8,25.5c-1.3,11.3,1,22.6,3.3,33.7l2.1,10c0.1,0.5,0.2,0.9,0.3,1.3c-3,2.4-5.2,5.6-6.6,9.1
	c-2,5-2,10.4-1.9,15.8c0,1.1,0.1,2.2,0.2,3.3c-0.3,2.1-0.5,4.2-0.6,6.3c-0.6,9.7,0.5,19.5,0.2,29.2c-0.2,7.5-1.4,15-0.8,22.4
	c0.5,6.6,2.3,13,4,19.4l2.5,9.1c0.1,0.5,0.3,0.9,0.6,1.3c0.4,0.3,0.9,0.4,1.4,0.3c-1.6,3.7-3,7.6-4.1,11.5c-0.8,2.4-1.2,4.9-1.5,7.4
	c-0.3,4.6,0.7,9.1,1.8,13.6c1.6,6.7,3.2,13.4,4.8,20.1c1.1,4.7,2.2,9.4,3.4,14.1c2.2,9.3,4.4,18.6,4.8,28.1c0.2,4.8-0.1,9.6-1,14.3
	c-2.9,14.1-3.3,28.6-1.2,42.8c1.7,12,4.4,23.9,8.1,35.4c0.8-0.4,1.6-0.8,2.5-1.2l-0.4,0.7c-1.2,2-2.2,4-3.2,6.2
	c-0.7,1.4-1.2,2.8-1.7,4.2c-1.3,4-1.5,8.3-1.7,12.5c-0.1,0.8,0,1.6,0.2,2.4c0.5,1.5,2.1,2.3,3.6,2.7c4.3,1.2,8.8,0.8,13.3,0.2
	c0,0.1,0.1,0.2,0.1,0.3c0.5,1.5,2.1,2.3,3.6,2.7c6.2,1.8,12.7,0.1,19.1-0.5s12.6-0.2,18.8-1.6c0.9-0.2,1.8-0.5,2.6-1
	c1.6-1.1,2.7-2.7,3.3-4.5c0.2-0.5,0.3-1,0.4-1.5C139.3,656.8,137.4,654.8,135.5,654.1z M114.3,561.5c-0.3,2.3-1,4.6-2,6.8
	c-4.8,10.2-8.3,21-10.3,32.2c-1.3,7.3-2.1,14.8-2.3,22.3c-0.1,5.5,0.1,11.3-2.2,16.2l0.8-0.1c-0.3,0.5-0.5,1-0.8,1.4l-0.1,0.2
	c-1.4-2.4-2.3-5-2.7-7.7c0-0.1-0.5-0.2-1.1-0.2c-2.8-15.8-3.8-31.9-2.9-47.9c0-1.9,0.3-3.9,0.8-5.8c0.5-1.6,1.4-3.1,2-4.6
	c1-2.6,1.7-5.4,2-8.1c1.1-7.1,1.5-14.3,1.3-21.5c-0.2-6.8,1.3-13.5,2.7-20.3c0.6-3.2,1.2-6.4,1.5-9.7l0.1-0.7
	c5.9,9.8,10.1,20.6,12.3,31.9C114.6,551,114.9,556.3,114.3,561.5z M71.5,417l0.3,0.3c1,0.9,1.9,1.8,2.7,2.8c0.4,0.4,0.7,1,0.8,1.5
	c0.3,1.5-0.9,2.7-1.9,3.8c-0.4,0.5-0.8,1-1.2,1.5C72,423.5,71.8,420.3,71.5,417L71.5,417z"/>
<path class="st4" d="M57.7,354.3l-1.1,8.5c-0.4,2.9-0.7,5.8-0.9,8.6c-0.7,9.6,0.6,19.3,0.3,28.9c-0.3,7.4-1.4,14.8-0.9,22.2
	c0.5,6.5,2.4,12.9,4.2,19.2l2.6,9c0.1,0.5,0.3,0.9,0.7,1.2c0.5,0.3,1.1,0.4,1.7,0.3l11.7-1.1c-0.8-3.4-1.6-7-2-10.5
	c-0.3-2.8-0.5-5.5-0.7-8.3c-0.6-8.7-1.3-17.3-2-26L70,391.2c-0.5-6.6-1.1-13.2-2.7-19.6C65.6,365.1,62.3,359.1,57.7,354.3z"/>
<path class="st1" d="M57.7,354.3l-1.1,8.5c-0.4,2.9-0.7,5.8-0.9,8.6c-0.7,9.6,0.6,19.3,0.3,28.9c-0.3,7.4-1.4,14.8-0.9,22.2
	c0.5,6.5,2.4,12.9,4.2,19.2l2.6,9c0.1,0.5,0.3,0.9,0.7,1.2c0.5,0.3,1.1,0.4,1.7,0.3l11.7-1.1c-0.8-3.4-1.6-7-2-10.5
	c-0.3-2.8-0.5-5.5-0.7-8.3c-0.6-8.7-1.3-17.3-2-26L70,391.2c-0.5-6.6-1.1-13.2-2.7-19.6C65.6,365.1,62.3,359.1,57.7,354.3z"/>
<path class="st13" d="M78.5,643.3c-0.7,1.4-1.3,2.7-1.8,4.2c-1.3,4-1.5,8.2-1.7,12.4c-0.1,0.8,0,1.6,0.2,2.4
	c0.6,1.5,2.2,2.3,3.8,2.7c6.5,1.8,13.3,0.1,20-0.5s13.3-0.2,19.7-1.6c1-0.2,1.9-0.5,2.7-1c1.6-1.1,2.8-2.6,3.5-4.5
	c0.2-0.5,0.3-1,0.4-1.5c0.2-2.2-1.7-4.1-3.8-4.8s-4.4-0.6-6.5-0.8c-9.3-0.9-16.8-8-18.2-17.2c-0.1-0.5-10.8-0.2-12,0.4
	c-1.3,0.7-2.1,2.5-2.9,3.8C80.7,639.2,79.6,641.2,78.5,643.3z"/>
<path class="st1" d="M78.5,643.3c-0.7,1.4-1.3,2.7-1.8,4.2c-1.3,4-1.5,8.2-1.7,12.4c-0.1,0.8,0,1.6,0.2,2.4c0.6,1.5,2.2,2.3,3.8,2.7
	c6.5,1.8,13.3,0.1,20-0.5s13.3-0.2,19.7-1.6c1-0.2,1.9-0.5,2.7-1c1.6-1.1,2.8-2.6,3.5-4.5c0.2-0.5,0.3-1,0.4-1.5
	c0.2-2.2-1.7-4.1-3.8-4.8s-4.4-0.6-6.5-0.8c-9.3-0.9-16.8-8-18.2-17.2c-0.1-0.5-10.8-0.2-12,0.4c-1.3,0.7-2.1,2.5-2.9,3.8
	C80.7,639.2,79.6,641.2,78.5,643.3z"/>
<path class="st13" d="M96.4,646.5c-0.7,1.3-1.3,2.7-1.8,4.2c-1.4,4-1.5,8.2-1.7,12.4c-0.1,0.8,0,1.6,0.2,2.4
	c0.6,1.5,2.2,2.3,3.8,2.7c6.5,1.7,13.3,0.1,20-0.5s13.3-0.2,19.7-1.6c1-0.2,1.9-0.5,2.7-1c1.6-1.1,2.9-2.6,3.5-4.5
	c0.2-0.5,0.3-1,0.4-1.5c0.2-2.2-1.7-4.1-3.8-4.8s-4.4-0.6-6.5-0.8c-9.3-1-16.7-8-18.2-17.2c-0.1-0.5-10.8-0.2-12,0.4
	c-1.3,0.7-2.1,2.5-2.9,3.8C98.5,642.4,97.4,644.4,96.4,646.5z"/>
<path class="st9" d="M142.9,540.3c0.1,21.6-6.1,42.7-13.5,63c-2.9,8-6,16-9.3,23.9c-1.9,4.7-4.1,9.9-2,14.5
	c-6-2.3-12.1-3.6-18.4-2.6c2.4-4.9,2.2-10.6,2.3-16c0.2-7.4,1-14.8,2.4-22c2.1-11.1,5.7-21.8,10.8-31.9c1-2.1,1.7-4.4,2.1-6.7
	c0.8-5.1,0.2-10.4-0.9-15.5c-2.3-11.2-6.7-22-12.9-31.6l-0.1,0.6c-0.4,3.2-0.9,6.4-1.6,9.6c-1.4,6.7-3.1,13.4-2.8,20.1
	c0.3,7.1-0.2,14.3-1.3,21.3c-0.4,2.8-1.1,5.5-2.1,8.1c-0.7,1.5-1.6,3-2.1,4.6c-0.5,1.9-0.8,3.8-0.8,5.7c-0.8,16.3,0,32.8,3.3,48.7
	c-5.6-0.4-11.1,1.2-16.1,3.7c-3.9-11.4-6.7-23.2-8.5-35.1c-2.2-14.1-1.7-28.5,1.3-42.5c0.9-4.7,1.3-9.4,1-14.2
	c-0.4-9.5-2.8-18.7-5.1-27.9l-3.5-14c-1.7-6.7-3.3-13.3-5-19.9c-1.1-4.4-2.2-8.9-1.9-13.5c0.2-2.5,0.8-4.9,1.6-7.3
	c2.5-8.1,6.2-15.7,11.1-22.6c19.3,1.1,38.8-0.7,58-2.2c0.9-0.2,1.9,0,2.7,0.5c0.7,0.7,1,1.5,1.1,2.5l7.2,41c1.2,5.7,1.9,11.5,2,17.3
	c0,5.8-0.9,11.6-0.7,17.4C141.4,525.1,142.9,532.5,142.9,540.3z"/>
<path class="st1" d="M103.4,516c-0.4,3.2-0.9,6.4-1.6,9.6c-4.2-7.3-8.7-14.3-12.6-21.8c-1-1.9-1.9-3.8-2.9-5.8l-2.9-5.8
	c-0.5-1.1-1.1-2.2-1.5-3.3c-0.8-1.6-1.4-3.3-1.8-5c1.4-0.3,4.9,3.5,5.9,4.5c2.1,2.1,4.1,4.3,6,6.6c2.3,2.6,4.4,5.3,6.3,8.2
	C100.7,507.2,102.4,511.5,103.4,516z"/>
<path class="st14" d="M119.4,317.1c0,0-10.7,17-8.7,20.6S77,334.5,77,334.5s19.4-17,17.4-24.2S119.4,317.1,119.4,317.1z"/>
<circle class="st14" cx="109.9" cy="298" r="24.2"/>
<path class="st4" d="M119.8,334.9c-2.6-3.6-6.1-6.4-10.2-8.2c-2.3-0.8-4.8-1.4-7.2-1.8l-9.6-1.7c-2.4-0.4-4.9-0.8-7.1,0.2
	c-1.1,0.6-2.1,1.3-3,2.2c-3.4,3.1-6.6,6.5-10.8,8.3c-1.1,0.5-2.4,0.8-3.5,1.3c-4.7,2-8.2,6.3-10.2,11c-2.1,4.9-2.2,10.3-2,15.7
	c0,1.9,0.2,3.7,0.5,5.5c0.5,1.7,1.1,3.4,1.8,5.1c1.3,3.5,2.4,7.1,3.3,10.7c2.5,9.6,4.6,19.2,6.2,29c0.1,1.4,0.6,2.8,1.2,4
	c0.9,1.2,2.1,2.3,3.3,3.2c1,0.8,1.9,1.8,2.8,2.8c0.4,0.4,0.7,0.9,0.9,1.5c0.3,1.4-1,2.7-2,3.7c-2.2,2.2-3.7,4.9-4.5,7.9
	c-0.5,0.6-0.8,1.4-0.7,2.2c0.2,0.5,0.3,1.1,0.2,1.7c-0.2,0.5-0.5,1-0.9,1.4c-0.9,1.2-1.3,2.8-1,4.3c7.5,3.3,15.5,5.1,23.7,5.5
	c2,0.1,4,0.1,6,0.3c1.4,0.2,2.8,0.5,4.2,0.6c2.1,0.2,4.1,0.2,6.2,0.2c10.8-0.2,21.9-0.5,31.7-4.8c0.9-5.1-1.1-10.2-2.3-15.2
	c-2-8-2.5-16.2-4-24.3c-1-5.5-2.5-10.9-3.4-16.5s-1-11.3,0.5-16.7c1.4-4.8,1.8-9.7,3.2-14.4s2.4-9.9,0.8-14.7
	C132,339.2,125.9,334.6,119.8,334.9z"/>
<path class="st13" d="M131.6,285.2c1.2-4.3-1.1-8.8-3.9-12.3c-3-3.8-6.8-7.1-11.5-8.1c-3.8-0.8-7.8,0.2-11.6-0.1
	c-3.4-0.3-6.7-1.5-10.1-2c-3.1-0.3-6.2-0.2-9.3,0.4c-2.9,0.4-5.7,1.2-8.5,2.4c-10.3,4.6-16.3,15.8-17.7,27s1,22.4,3.5,33.4l2.2,9.9
	c2.3,10.3,4.6,20.7,5.2,31.3s-0.5,21.4-4.9,31.1c14.1-7.6,25-19.9,30.7-34.8c1.6-4.1,2.7-8.3,4.5-12.4c1.5-3.5,3.4-6.7,4.7-10.3
	c1.5-4,2.2-8.2,2.1-12.5c-0.1-3.2-0.6-6.4-0.5-9.6s0.9-6.5,3.1-8.9c2-2,4.8-3,7.3-4.3c4-2,7.5-4.9,10.2-8.5c1.6-2.1,1.7-3,2.1-5.4
	S131,287.5,131.6,285.2z"/>
<path class="st14" d="M131.7,466.9c0.3,2.5-0.2,5,0.3,7.5c0.4,1.8,1.4,3.5,1.9,5.3c0.6,2.1,0.8,4.2,0.9,6.4c0.1,1.8-0.1,4-1.7,4.8
	c-0.7,0.4-1.5,0.4-2.3,0.7s-1.4,1.2-0.9,1.9s1.1,0.6,1.8,0.7s1.4,0.8,1,1.4c-0.2,0.2-0.4,0.3-0.6,0.4c-0.7,0.2-1.3,0.5-1.9,0.9
	c-0.6,0.4-0.9,1.1-0.8,1.8c0.1,0.6,0.8,1,1.4,0.8c0.1,0,0.2-0.1,0.2-0.1c-0.3,0.6-0.5,1.3-0.5,2c2.6,1.1,5.4-0.3,7.8-1.7
	c1-0.6,2-1.2,3-1.9c3.9-3,6.1-7.8,5.8-12.8c-0.1-1.2-0.3-2.4-0.6-3.7c-0.4-2.1-0.9-4.2-1.5-6.2c-0.7-2.2-1.6-4.2-2.4-6.3
	c-1.7-4.5-2.8-9.2-4.4-13.7c-0.1-0.5-0.4-0.9-0.8-1.2c-0.3-0.2-0.7-0.2-1.1-0.2c-1.8-0.1-3.5,0.1-5.2,0.5c-1,0.3-2.7,1-3.2,2
	s0.3,1.8,0.7,2.7C130.3,461.3,131.3,464,131.7,466.9z"/>
<path class="st1" d="M130,345.4c0.5,0.5,0.9,1.1,1.3,1.8c3.4,6.3,3.5,13.7,3.6,20.8c0.2,8,0.6,16,1.1,24l1.3,24
	c0.1,2.3,0.3,4.6,0.6,6.8c1.5,0.4,1.6,2.4,1.4,4c-1.1,9.8-3.9,19.8-1,29.3c0.1,0.5,0.3,0.9,0.7,1.3c-1.5-0.5-3-0.5-4.5-0.1
	c-1.4,0.3-2.8,0.8-4.3,1.2c-1.8,0.4-3.9,0.6-5.1,2c-1.4-4.2-2.5-8.5-3.4-12.9c-0.7-4-0.9-8.1-2.5-11.8c-0.6-1.5-1.5-2.9-2.3-4.3
	c-4.2-7.5-6.3-15.9-8.3-24.3c-0.9-4-1.1-8-0.6-12.1c0.3-1.8,0.5-3.7,0.5-5.5c-0.1-2-0.4-3.9-0.8-5.8c-0.8-5.7-0.5-11.4,1.2-16.9
	c1.5-5.1,2.8-10.5,6-14.7S124.7,345.5,130,345.4z"/>
<path class="st4" d="M131.2,344.6c0.5,0.5,0.9,1.1,1.3,1.8c3.4,6.2,3.5,13.7,3.6,20.8c0.2,8,0.6,16,1.1,24l1.3,24
	c0.1,2.3,0.3,4.6,0.6,6.8c1.5,0.4,1.6,2.4,1.4,4c-1.1,9.8-3.9,19.8-1,29.3c0.1,0.5,0.3,0.9,0.7,1.3c-1.5-0.5-3-0.5-4.5-0.1
	c-1.4,0.3-2.8,0.8-4.3,1.2c-1.8,0.4-3.9,0.6-5.1,2c-1.4-4.2-2.5-8.6-3.3-13c-0.7-4-0.9-8.1-2.5-11.8c-0.7-1.5-1.5-2.9-2.3-4.3
	c-4.2-7.5-6.3-15.9-8.3-24.3c-0.9-4-1.1-8-0.6-12.1c0.8-3.8,0.7-7.7-0.3-11.4c-0.8-5.7-0.5-11.4,1.2-16.9c1.5-5.1,2.8-10.5,6-14.7
	S125.9,344.7,131.2,344.6z"/>
<g class="st10">
	<path d="M127.7,273c-3-3.8-6.8-7.1-11.5-8.1c-3.8-0.8-7.8,0.2-11.6-0.1c-3.4-0.3-6.7-1.5-10.1-2c-3.1-0.3-6.2-0.2-9.3,0.4
		c-2.9,0.4-5.7,1.2-8.5,2.4c-1.5,0.7-2.9,1.4-4.2,2.4c2.4-0.9,4.9-1.6,7.5-2c3.1-0.6,6.2-0.7,9.3-0.4c3.4,0.4,6.7,1.7,10.1,1.9
		c3.9,0.3,7.8-0.6,11.6,0.1c4.7,0.9,8.5,4.3,11.5,8.1c2.8,3.5,5.1,8,3.9,12.3c-0.6,2.3-2.1,4.2-2.5,6.6s-0.5,3.3-2.1,5.4
		c-2.1,2.7-4.5,5-7.3,6.8c0.8-0.4,1.6-0.7,2.3-1.1c4-2,7.5-4.9,10.2-8.5c1.6-2.1,1.7-3,2.1-5.4s1.8-4.3,2.5-6.6
		C132.8,280.9,130.5,276.4,127.7,273z"/>
	<path d="M109.6,310c0.4-0.4,0.9-0.8,1.4-1.2c-2.3,1.1-4.7,2.1-6.5,4c-2.2,2.3-3,5.6-3.1,8.9s0.5,6.4,0.5,9.6
		c0.1,4.3-0.6,8.5-2.1,12.5c-1.3,3.5-3.2,6.8-4.7,10.3c-1.7,4-2.9,8.3-4.5,12.3c-5,12.9-13.9,24-25.4,31.6c-0.1,0.1-0.1,0.3-0.2,0.4
		c14.1-7.6,25-19.9,30.7-34.8c1.6-4.1,2.7-8.3,4.5-12.4c1.5-3.5,3.4-6.7,4.7-10.3c1.5-4,2.2-8.2,2.1-12.5c-0.1-3.2-0.6-6.4-0.5-9.6
		S107.4,312.3,109.6,310z"/>
</g>
</svg>
