<?xml version="1.0" encoding="utf-8"?>
<!-- Generator: Adobe Illustrator 23.0.3, SVG Export Plug-In . SVG Version: 6.00 Build 0)  -->
<svg version="1.1" id="daff031e-6a8c-4088-9f26-b9cdb1850187"
	 xmlns="http://www.w3.org/2000/svg" xmlns:xlink="http://www.w3.org/1999/xlink" x="0px" y="0px" viewBox="0 0 905.8 352.5"
	 style="enable-background:new 0 0 905.8 352.5;" xml:space="preserve">
<style type="text/css">
	.st0{opacity:0.5;}
	.st1{fill:url(#SVGID_1_);}
	.st2{fill:url(#SVGID_2_);}
	.st3{fill:#3AD29F;}
	.st4{fill:#381E1D;}
	.st5{fill:#333333;}
	.st6{fill:#D73534;}
	.st7{fill:#FFFFFF;}
	.st8{fill:#A3643B;}
	.st9{opacity:0.1;enable-background:new    ;}
	.st10{fill:#FA9221;}
	.st11{opacity:0.1;fill:#DAA4A2;enable-background:new    ;}
	.st12{fill:#FDD835;}
	.st13{fill:url(#SVGID_3_);}
	.st14{fill:#FDA57D;}
	.st15{opacity:5.000000e-02;enable-background:new    ;}
	.st16{fill:#4D8AF0;}
	.st17{fill:url(#SVGID_4_);}
	.st18{fill:#FEC9B1;}
	.st19{opacity:0.1;}
	.st20{fill:#F5F5F5;}
	.st21{fill:#E0E0E0;}
	.st22{fill:url(#SVGID_5_);}
	.st23{fill:url(#SVGID_6_);}
	.st24{fill:#F55F44;}
	.st25{fill:url(#SVGID_7_);}
</style>
<title>queue</title>
<g class="st0">
	
		<linearGradient id="SVGID_1_" gradientUnits="userSpaceOnUse" x1="1016.025" y1="-114.34" x2="1016.025" y2="213.6782" gradientTransform="matrix(1 0 0 -1 -147.13 413)">
		<stop  offset="0" style="stop-color:#808080;stop-opacity:0.25"/>
		<stop  offset="0.54" style="stop-color:#808080;stop-opacity:0.12"/>
		<stop  offset="1" style="stop-color:#808080;stop-opacity:0.1"/>
	</linearGradient>
	<path class="st1" d="M884,490.5h-4.8V237.8c9.9-5.7,13.3-18.3,7.6-28.2s-18.3-13.3-28.2-7.6s-13.3,18.3-7.6,28.2
		c1.8,3.1,4.4,5.7,7.6,7.6v252.6h-4.8c-12,0-21.7,9.7-21.7,21.7v15.1h73.7v-15.1C905.8,500.2,896,490.5,884,490.5
		C884,490.5,884,490.5,884,490.5z"/>
</g>
<g class="st0">
	
		<linearGradient id="SVGID_2_" gradientUnits="userSpaceOnUse" x1="889.7899" y1="-113.5884" x2="889.7899" y2="385.87" gradientTransform="matrix(1 0 0 -1 -147.13 413)">
		<stop  offset="0" style="stop-color:#808080;stop-opacity:0.25"/>
		<stop  offset="0.54" style="stop-color:#808080;stop-opacity:0.12"/>
		<stop  offset="1" style="stop-color:#808080;stop-opacity:0.1"/>
	</linearGradient>
	<path class="st2" d="M820,509c-7.5-4.4-11.4-19.2-12.6-24.4l-8.9-115.1c0,0-6.7-38.1-32.1-92.4c-0.3-32.3-1.5-134.5-4.4-145.5
		l-16.8-20.5c0.8-1.6,1.7-3.1,2.7-4.6c0.3-0.1,0.6-0.1,0.9-0.2c0.4-0.5,0.8-1,1.2-1.4c14.5-5.1,22.2-21,17.1-35.5
		c-0.7-1.9-1.5-3.7-2.6-5.5c4.2-3.1-1.1-4.3-1.1-4.3l0,0c-3.2-14.3-17-23.7-31.6-21.4c-1.9-6.5-7.8-11-14.6-11h-0.9
		c6.3,0.3,11.7,4.5,13.6,10.5c-2.1-3.6-5.5-6.1-9.6-7.1c-2.7-2.3-6.2-3.5-9.7-3.5h-0.9c3,0.2,6,1.3,8.4,3.1c-0.4,0-0.9-0.1-1.3-0.1
		c-8.4,0-15.1,6.7-15.2,15.1c0,5.4,2.9,10.4,7.5,13.1c-1.7,6.2-1.1,12.8,1.5,18.7c-0.6,8,1.2,18.2,11.9,23.4l-1.8,4.1
		c-2.2,0.1-20,2.3-31.5,42.7c-4.9,10.1-8.7,26.5-8.4,53c-0.5,6.8-0.8,14-1,21.8l-8.3,34.1l0.1,0.2c0,0.2,0,0.3,0,0.5l-0.1,0.4
		l0.1,0.1c-2,27.2-1,54.9,4.5,81.6c3.1,15.1,5.5,30.3,4,35.7c-3.3,12-15,55.7-13.3,69.2l-3.9,23.5l0.3,0.1L648.7,495
		c0,0,9,8.2,12.5,8.4s7.6,6.2,7.6,6.2s21,16.2,28.1,11.2s-2.7-11-9.4-19.2c-5.5-6.7-4.1-22-3.4-27.3l31.3-111.1
		c0,0,3.1-17.3,3.6-46.8c2.4,1.9,5.1,3.4,8.1,4.3c1,0.3,2,0.3,3,0l2,7.2c0,0,36.1,51.6,37.2,64s5.2,57.5,11.4,69.5l4.5,23.4h0.3
		l-4.1,31c0,0,11.3,4.6,14.7,3.6s9.3,3.2,9.3,3.2s25.3,8,30.2,0.8S829.1,514.4,820,509z"/>
</g>
<path class="st3" d="M756.7,265.6l9,20.9c0,0-1-137.2-4.3-149.8l-21.6-26.2l-7.3,19.3l16.6,20.6c0,0,10.3,30.5,8.6,60.4
	S756.7,265.6,756.7,265.6z"/>
<path class="st4" d="M756.7,265.6l9,20.9c0,0-1-137.2-4.3-149.8l-21.6-26.2l-7.3,19.3l16.6,20.6c0,0,10.3,30.5,8.6,60.4
	S756.7,265.6,756.7,265.6z"/>
<path class="st5" d="M755.7,265.6l9,20.9c0,0-1-137.2-4.3-149.8l-21.6-26.2l-7.3,19.3l16.6,20.6c0,0,10.3,30.5,8.6,60.4
	S755.7,265.6,755.7,265.6z"/>
<path class="st6" d="M674.2,256.4c-2.1,26.8-1.2,54,4.2,80.4c3,14.6,5.3,29.2,3.9,34.4c-3.2,11.6-14.5,53.8-12.8,66.8l-3.7,22.7
	l20.3,7.4l30.4-107.7c0,0,7.8-43.5,0.1-110L674.2,256.4L674.2,256.4z"/>
<path class="st4" d="M666.9,459l-15,28.4c0,0,8.7,8,12.1,8.1s7.4,6,7.4,6s20.2,15.6,27.1,10.8s-2.6-10.6-9-18.5s-3-28.1-3-28.1
	L666.9,459z"/>
<path class="st6" d="M732.5,326.3c0,0,34.9,49.8,35.9,61.8s5,55.5,11,67.1l4.3,22.6h21.6l-8.6-111.6c0,0-7.7-43.5-37.9-103.3
	l-38.2,20.9L732.5,326.3z"/>
<path class="st7" d="M759.2,271c0,2.7-30.5,0-30.5,0V141.5l14-20.6c0,0,5.4,5.8,10.6,21.5c2,6.1,6.3,17.3,8,26.6
	c1,5.7-2.7,13.5-2,20.6C761.6,214.6,763.9,241.9,759.2,271z"/>
<path class="st8" d="M740.9,128.2c0,0,3.2-13.5,10.5-20.1l-25.9-6.6l-6.3,14.3L740.9,128.2z"/>
<path class="st9" d="M721.7,111.6c0,0-36.7-0.8-39.7,113.4l-8,32.9c0,0,64.4,105.6,77.4,19.9c0,0,7-93.3-6.6-124.9l6.7-15.9
	L721.7,111.6z"/>
<path class="st5" d="M721.7,110.6c0,0-36.7-0.8-39.7,113.4l-8,32.9c0,0,64.4,105.6,77.4,19.9c0,0,7-93.3-6.6-124.9l6.7-15.9
	L721.7,110.6z"/>
<path class="st9" d="M706.9,276.9c0,0-2.4,35.1,20.7,42.5c2.6,0.8,5.4-0.6,6.2-3.2c0.1-0.4,0.2-0.8,0.2-1.2
	c0.4-6-1.5-18.3-12.5-43.1L706.9,276.9z"/>
<path class="st8" d="M708.2,276.2c0,0-2.3,35.1,20.7,42.5c2.6,0.8,5.4-0.6,6.2-3.2c0.1-0.4,0.2-0.8,0.2-1.2
	c0.4-6-1.5-18.3-12.5-43.1L708.2,276.2z"/>
<circle class="st10" cx="747.7" cy="172.6" r="1.3"/>
<circle class="st10" cx="747.7" cy="222.4" r="1.3"/>
<path class="st4" d="M784.1,475.9l-4.2,31.8c0,0,10.9,4.5,14.2,3.5s9,3.1,9,3.1s24.4,7.7,29.1,0.8s-6.1-9-14.9-14.2
	s-12.5-25.3-12.5-25.3L784.1,475.9z"/>
<path class="st11" d="M712.5,136.4c0,0-33.2-6.6-29.2,77.7c0,0,8,61.8,21.9,65.8l20.9-5.3l-8.3-57.8l8.3-29.9
	C726.2,186.8,732.8,141.7,712.5,136.4z"/>
<path class="st9" d="M715.5,136.4c0,0-33.2-6.6-29.2,77.7c0,0,8,61.8,21.9,65.8l20.9-5.3l-8.3-57.8l8.3-29.9
	C729.2,186.8,735.8,141.7,715.5,136.4z"/>
<path class="st5" d="M713.9,136.4c0,0-33.2-6.6-29.2,77.7c0,0,8,61.8,21.9,65.8l20.9-5.3l-8.3-57.8l8.3-29.9
	C727.5,186.8,734.1,141.7,713.9,136.4z"/>
<polygon class="st9" points="708.2,281.6 708.2,279.4 724.6,275.3 725.3,277 "/>
<polygon class="st9" points="709.4,122.9 743.9,152.8 744.9,152.1 710,122.6 "/>
<polygon class="st9" points="751.8,272 751.7,273.7 758.4,272.9 758.1,272 "/>
<path class="st9" d="M722.7,105.6c4.7,4,11.5,7.8,18.1,7.8c2.6,0,5.2-0.4,7.8-1.1c0.9-1.1,1.8-2.2,2.9-3.2l-25.9-6.6L722.7,105.6z"
	/>
<circle class="st12" cx="736.3" cy="73.1" r="26.9"/>
<circle class="st8" cx="740.8" cy="85.6" r="26.9"/>
<path class="st12" d="M714,73.1c0,0-10.1,26.4,11.2,34.4l0,0c6.2-3.2,8.7-10.8,5.5-17c-0.6-1.2-1.4-2.3-2.3-3.2L714,73.1z"/>
<circle class="st12" cx="717.7" cy="53.5" r="14.6"/>
<path class="st12" d="M762.5,67.2c0,0,9.3,2.3-7,7.9c-5.4,1.8-9.8,5.8-12.2,11c-2.9,6.3-10.5,9.1-16.8,6.1c-0.2-0.1-0.5-0.2-0.7-0.4
	l-5.1-2.9l-9-20.9l10.6-12.3l18.3-2.3L762.5,67.2z"/>
<path class="st12" d="M731,50.5c0-7.7-6-14.1-13.8-14.6h0.8c8.1,0,14.6,6.5,14.6,14.6c0,8.1-6.5,14.6-14.6,14.6h-0.8
	C724.9,64.7,731,58.3,731,50.5z"/>
<path class="st12" d="M724.7,50.5c0-7.7-6-14.1-13.8-14.6h0.8c8.1,0,14.6,6.5,14.6,14.6c0,8.1-6.5,14.6-14.6,14.6h-0.8
	C718.6,64.7,724.7,58.3,724.7,50.5z"/>
<ellipse class="st8" cx="733.6" cy="94.4" rx="2.7" ry="4.7"/>
<g class="st0">
	
		<linearGradient id="SVGID_3_" gradientUnits="userSpaceOnUse" x1="351.3143" y1="-130.3488" x2="351.3143" y2="377.092" gradientTransform="matrix(1 0 0 -1 -147.13 413)">
		<stop  offset="0" style="stop-color:#808080;stop-opacity:0.25"/>
		<stop  offset="0.54" style="stop-color:#808080;stop-opacity:0.12"/>
		<stop  offset="1" style="stop-color:#808080;stop-opacity:0.1"/>
	</linearGradient>
	<path class="st13" d="M317.3,525c-7.7-4.6-11.8-19.9-13-25.3l-9.2-119.1c0,0-6.9-39.4-33.2-95.5c-0.3-33.4-1.5-139.1-4.5-150.5
		l-17.8-21.6c0.9-1.5,1.8-3,2.9-4.4l0,0l4.5,12.8l16.4-1.8l-8.8-16.9c12.1-9.8,14.5-27.3,5.5-40c2.1-2.8,2-6.6-0.3-9.2
		c-2.8-3.2-6-5.9-9.7-8.1c-13.7-13.2-35.6-12.8-48.8,0.9c-12.3,12.7-12.9,32.7-1.5,46.2c-0.9,1-2.1,1.8-3.4,2.2
		c-6.2,1.7-11.1,6.1-14.4,9.8c-2.2,2.5-1.9,6.3,0.5,8.5c0.2,0.2,0.5,0.4,0.7,0.5l2.7,1.7c2.2,1.4,5,1.2,7-0.4l5.5-4.6
		c0.2-0.2,0.5-0.1,0.6,0.1c0.1,0.2,0.1,0.4,0,0.6c-2,2.2-1.9,5.6,0.3,7.6c0.7,0.6,1.5,1.1,2.4,1.3h0.1l-0.1,0.1l0.1,0.1
		c-5,5-10.1,12.2-14.7,22.8c-7.4,9-14.2,27.3-13.7,64c-0.5,6.7-0.9,13.8-1.1,21.4l-8.5,35.2c0,0-65.9,121.4-49.5,137.4
		c0,0,9.9,1.8,23.8,5.4l-39.4,52.2l0.5,0.5l-25.1,18.3c0,0,4.6,11.8,7.8,13.5s4.3,9.3,4.3,9.3s12.1,24.6,21,23.1
		c8.9-1.4,2.5-11.4,0-22.1c-1.9-8.3,5.4-20.9,8.7-26.1l0.9,0.8c0,0,46.8-35.2,64.7-54.8c9.8,4.3,19.1,9.4,26.8,15.3
		c0,0,13.5-32.8,26.1-87l0,0l0.1,0.2c11,16.5,29.6,45.4,30.4,54.4c1.1,12.8,5.3,59.5,11.8,71.9l4.6,24.2h0.3l-4.3,32.1
		c0,0,11.7,4.8,15.2,3.7s9.6,3.3,9.6,3.3s26.1,8.3,31.2,0.8S326.7,530.6,317.3,525z"/>
</g>
<circle cx="225.2" cy="79.9" r="33"/>
<path class="st6" d="M146,394.5l-42.9,56.9l17.4,16.7c0,0,60.2-45.2,67.7-60.1c0.4-0.8,0.7-1.7,0.8-2.6
	C188.9,394.1,146,394.5,146,394.5z"/>
<path class="st6" d="M225.4,335.9c0,0,35.8,51.1,36.8,63.3s5.1,56.9,11.2,68.8l4.4,23.2H300l-8.9-114.4c0,0-7.8-44.6-38.8-105.9
	l-39.2,21.5L225.4,335.9z"/>
<rect x="221.4" y="146.3" class="st7" width="31.3" height="132.8"/>
<path class="st9" d="M249.2,273.5l9.2,21.5c0,0-1-140.7-4.4-153.6l-22.1-26.9l-7.5,19.8l17,21.1c0,0,10.6,31.3,8.9,62
	S249.2,273.5,249.2,273.5z"/>
<polygon points="249.2,104.9 260.8,127.1 245.1,128.8 237.3,106.7 "/>
<ellipse transform="matrix(0.1735 -0.9848 0.9848 0.1735 106.272 304.5111)" class="st14" cx="234.6" cy="88.9" rx="28.3" ry="28.3"/>
<path class="st14" d="M234.6,128.5c2-6.2,5.5-11.8,10.2-16.4l-26.6-6.8l-6.5,14.6L234.6,128.5z"/>
<path class="st3" d="M222.6,117.2c0,0-46-3.4-49,113.8l-8.2,33.7c0,0-63,116.2-47.3,131.5c0,0,59.3,10.6,89.9,34.1
	c0,0,23.5-57.2,36.8-145.1c0,0,7.1-95.7-6.8-128.1l6.8-16.4L222.6,117.2z"/>
<path class="st3" d="M250.2,273.5l9.2,21.5c0,0-1-140.7-4.4-153.6l-22.1-26.9l-7.5,19.8l17,21.1c0,0,10.6,31.3,8.9,62
	S250.2,273.5,250.2,273.5z"/>
<path class="st15" d="M250.2,273.5l9.2,21.5c0,0-1-140.7-4.4-153.6l-22.1-26.9l-7.5,19.8l17,21.1c0,0,10.6,31.3,8.9,62
	S250.2,273.5,250.2,273.5z"/>
<path class="st9" d="M199.1,285.1c0,0-2.4,36,21.2,43.6c2.7,0.9,5.5-0.6,6.3-3.3c0.1-0.4,0.2-0.8,0.2-1.2
	c0.4-6.1-1.6-18.7-12.8-44.2L199.1,285.1z"/>
<path class="st14" d="M200.5,284.5c0,0-2.4,36,21.2,43.6c2.7,0.9,5.5-0.6,6.3-3.3c0.1-0.4,0.2-0.8,0.2-1.2
	c0.4-6.1-1.6-18.7-12.8-44.2L200.5,284.5z"/>
<circle class="st16" cx="241" cy="178.2" r="1.4"/>
<circle class="st16" cx="241" cy="229.3" r="1.4"/>
<path d="M106.1,450l-26.6,19.4c0,0,4.4,11.2,7.5,12.9s4.1,8.9,4.1,8.9s11.6,23.5,20.1,22.1s2.4-10.9,0-21.1s9.9-27.2,9.9-27.2
	L106.1,450z"/>
<path d="M278.3,489.3l-4.4,32.6c0,0,11.2,4.6,14.5,3.5s9.2,3.2,9.2,3.2s25,7.9,29.9,0.8s-6.2-9.3-15.3-14.6s-12.9-26-12.9-26
	L278.3,489.3z"/>
<path class="st9" d="M204.9,141c0,0-34.1-6.8-30,79.7c0,0,8.2,63.4,22.5,67.4l21.5-5.5l-8.5-59.3l8.5-30.7
	C218.9,192.8,225.7,146.5,204.9,141z"/>
<path class="st9" d="M208,141c0,0-34.1-6.8-30,79.7c0,0,8.2,63.4,22.5,67.4l21.5-5.5l-8.5-59.3l8.5-30.6
	C221.9,192.8,228.8,146.5,208,141z"/>
<path class="st3" d="M206.3,141c0,0-34.1-6.8-30,79.7c0,0,8.2,63.4,22.5,67.4l21.5-5.5l-8.5-59.3l8.5-30.6
	C220.2,192.8,227.1,146.5,206.3,141z"/>
<polygon class="st9" points="200.4,290 200.4,287.8 217.3,283.5 218.1,285.3 "/>
<polygon class="st9" points="201.7,127.3 237.1,157.9 238.1,157.2 202.4,126.9 "/>
<polygon class="st3" points="211.7,126.9 231.7,123.2 249,146.3 239,152.4 "/>
<path d="M257.2,73.2l-12.9,13.7v8.4c0,5.5-1.1,10.9-3.1,16l-8.7,21.2c-1.2,2.9-4.5,4.3-7.4,3.1l-7.3-2.9c-2.9-1.2-4.4-4.5-3.2-7.4
	c0-0.1,0.1-0.1,0.1-0.2l2-4.7c0.1-0.2,0-0.5-0.2-0.6c-0.2-0.1-0.4,0-0.5,0.1l-4.2,5.9c-1.3,1.9-3.7,2.8-6,2.3l-4-1
	c-2.8-0.7-4.4-3.5-3.8-6.2c0.2-0.9,0.6-1.6,1.3-2.3l0,0c0.2-0.2,0.2-0.4,0-0.6c-0.2-0.2-0.4-0.2-0.6,0l0,0l-5.3,4.4
	c-1.9,1.6-4.6,1.7-6.7,0.4l-2.6-1.6c-2.7-1.7-3.4-5.2-1.7-7.9c0.2-0.3,0.3-0.5,0.5-0.7c3.1-3.5,7.8-7.7,13.7-9.3
	c6.2-1.8,8.5-12.7,9.2-21.8c0.9-12,8.7-22.4,20-26.7c9.3-3.4,20.7-3.2,31.5,9.1C259.8,66.5,259.7,70.6,257.2,73.2z"/>
<polygon class="st9" points="245.2,279.2 245.1,280.9 252,280 251.6,279.2 "/>
<path class="st9" d="M244.9,280.9h2.5c0,0-7.1,65.7-14,66.9L233,347C233,347,244.3,293.5,244.9,280.9z"/>
<g class="st0">
	
		<linearGradient id="SVGID_4_" gradientUnits="userSpaceOnUse" x1="714.7375" y1="-160.9733" x2="714.7375" y2="412.9908" gradientTransform="matrix(1 0 0 -1 -147.13 413)">
		<stop  offset="0" style="stop-color:#808080;stop-opacity:0.25"/>
		<stop  offset="0.54" style="stop-color:#808080;stop-opacity:0.12"/>
		<stop  offset="1" style="stop-color:#808080;stop-opacity:0.1"/>
	</linearGradient>
	<path class="st17" d="M650.6,163.2l2.8-5.5l-30-15.2l-0.7,1.5l-0.9-0.5l-4.3,8.5c-0.7-4-1.6-7.7-2.5-11.2c-1.4-8-3-15.5-4.5-21.9
		c-0.1-0.5-0.1-1.1-0.2-1.6c-2.5-22.4-16-32.9-26.1-37.6c20-3.6,33.3-22.7,29.8-42.7c-0.5-3.1-1.5-6-2.8-8.8
		c3.5-2.9,4.5-7.7,0.5-15.6c0,0-68.4-36-80.1,14.4c-2.3,9.9-1.7,20.3,1.7,29.9c1.9,5.6,4.6,10.9,8,15.8c-17.6,2.9-49,11.6-57,36.1
		c-8.9,27.1-3.8,78.4-1.3,99.4c0.2,1.5,0.7,3,1.6,4.3c0.4,1.1,1.1,2.1,1.9,2.9V265l0.9-0.3v1.2c0,0,0.4-0.1,1.2-0.3
		c1,46.9,7.4,120.1,7.9,125.7v-0.1v0.2c-5,39.5-10,130-10,130l0,0v0.2v-0.2h10v37.2c0,1.7,1,3.3,2.5,4.1c4.9,2.5,15.7,8,21.6,10
		c7.7,2.7,25.9,0,25.9,0c0.9-4.5-13.6-8.6-13.6-8.6L515.7,545v-23.6h3.6v0v0.3c12.2-11.7,43.5-231.6,44.1-235.9l-7.3,217.9l0,0v0.2
		v-0.2h5.4v35.2c0,1.8,1,3.5,2.7,4.4c5,2.5,15.6,7.9,21.4,10c7.7,2.7,25.9,0,25.9,0c0.9-4.5-13.6-8.6-13.6-8.6l-17.2-19.1v-21.9h6.8
		c5.7-23,15.3-193,18.2-246.3c4.6,3.1,8.1,2.6,8.1,2.6v-0.4c0.3,0,0.5,0,0.8,0c0.3,0,0.7,0,1,0c0,0-0.2-17.1-0.8-40l10.7-9.9
		l0.1,0.1l0.2-0.4l1-0.9l0.5,0.3l0.7-1.3l13.6-12.5l0,0l0.9-0.9l-1.3-2.4c7.4-4.6,11.7-13,14.2-20.1c1.2-3.3-0.6-7-3.9-8.2
		C651.3,163.3,650.9,163.3,650.6,163.2z"/>
</g>
<polygon class="st18" points="580.2,488.3 580.2,524.4 561.9,524.4 561.9,484.4 "/>
<path class="st4" d="M580,514.6l16.7,18.4c0,0,13.9,3.9,13,8.3c0,0-17.4,2.6-24.8,0c-5.5-2-15.8-7.1-20.5-9.5
	c-1.6-0.8-2.5-2.4-2.5-4.2v-13.2L580,514.6z"/>
<polygon class="st18" points="518.1,507 518.1,543 499.8,543 499.8,503.1 "/>
<path class="st4" d="M517.9,533.3l16.7,18.5c0,0,13.9,3.9,13,8.3c0,0-17.4,2.6-24.8,0c-5.6-2-15.9-7.2-20.6-9.6
	c-1.5-0.8-2.4-2.3-2.4-4V533L517.9,533.3z"/>
<path class="st16" d="M604.9,243.4c0,0-11.7,224.5-18.2,250.6h-30l7-208.4c0,0-30.4,214.1-42.1,225.4h-31.2c0,0,4.8-86.4,9.5-124.2
	c0,0-13-145.9-5.2-156.8h107.2L604.9,243.4z"/>
<g class="st19">
	<path d="M503.3,351.3c-1.2,9.4-2.4,21.9-3.5,35.3c-0.7-7.5-12.8-145.9-5.2-156.4h1.1C496.7,276.6,503.3,351.3,503.3,351.3z"/>
	<path d="M490.3,511.1c0,0,4.7-84.4,9.4-122.8"/>
	<path d="M567.2,250.1l-7,208.4l-3.5,35.6l7-208.4c0,0-30.4,214.1-42.1,225.4"/>
</g>
<path class="st18" d="M626.2,185.2c4.3-6.3,9.9-11.7,16.4-15.7c2.9-1.7,6.7-0.8,8.4,2.1c0.9,1.6,1.1,3.4,0.5,5.1
	c-3.7,10.8-11.8,24.5-29.3,22.3L626.2,185.2z"/>
<path class="st9" d="M605.8,126.1c0,0,0.4,0.9,1,2.4c3.3,8.1,13.1,35.4,9.8,62.3l12.2-12.6l10.4,20l-33.4,30.8L605.8,126.1z"/>
<path class="st6" d="M600.8,107.3c0,0,2.4,1,3,2.6c3.3,8.1,15.2,54.9,11.9,81.9l12.2-12.6l10.4,20L604.9,230L600.8,107.3z"/>
<polygon class="st5" points="581.9,92.3 596.7,236.9 523.7,236.9 542.4,94.9 "/>
<path class="st9" d="M572.8,85.3c0,0,31.7,4.8,35.6,39.5s5.2,135.9,5.2,135.9s-27.7,3.9-28.2-82.1S572.8,85.3,572.8,85.3z"/>
<path class="st9" d="M571.1,85.8c0,0,31.7,4.8,35.6,39.5s5.2,135.9,5.2,135.9s-27.8,3.9-28.2-82.1S571.1,85.8,571.1,85.8z"/>
<path class="st6" d="M571.9,85.3c0,0,31.7,4.8,35.6,39.5s5.2,135.9,5.2,135.9s-27.8,3.9-28.2-82.1S571.9,85.3,571.9,85.3z"/>
<rect x="594" y="165.5" transform="matrix(0.4526 -0.8917 0.8917 0.4526 178.2746 653.4518)" class="st20" width="54.7" height="32.1"/>
<rect x="595.6" y="164.5" transform="matrix(0.4526 -0.8917 0.8917 0.4526 179.9729 654.3097)" class="st21" width="54.7" height="32.1"/>
<path class="st18" d="M584.5,188.7c4.9-7.3,11.6-13.3,19.4-17.4c2.4-1.2,5.4-0.2,6.6,2.2c0.5,1.1,0.7,2.3,0.3,3.5
	c-3.1,11-11,28-30.3,25.6L584.5,188.7z"/>
<path class="st18" d="M555,60.6c0,0-2.6,14.8-12.6,20l3,17.8l20.5,18.2l10.6-22.8l-3.3-11.9L555,60.6z"/>
<path class="st9" d="M491.2,209.1v57.8c0,0,66-16.5,62.5-90.3s-6-94.1-6-94.1L499,137.4L491.2,209.1z"/>
<path class="st6" d="M490.3,208.2V266c0,0,66-16.5,62.5-90.3s-6-94.1-6-94.1l-48.7,55.1L490.3,208.2z"/>
<path class="st9" d="M573.7,83.6l2,7.5c-10.5-0.6-20.3-5.9-26.4-14.5c3-4.3,5.1-9.2,6.1-14.3L573.7,83.6z"/>
<circle class="st18" cx="577.4" cy="54.3" r="35.2"/>
<path class="st9" d="M489,117.5c-8.7,26.4-3.5,77.1-1,96.2c0.5,4.3,4.3,7.3,8.6,7l93.6-7.2V183l-66.4-1.3l9.1-58.6
	C532.9,123.1,499.9,84.5,489,117.5z"/>
<path class="st6" d="M554.2,80.8c0,0-55.2,2.8-66.1,35.8c-8.5,25.9-3.7,74.9-1.2,94.9c0.6,5,5,8.5,10,8.2l92.4-7.1v-30.4l-66.4-1.3
	l9.1-58.6L554.2,80.8z"/>
<path class="st4" d="M609.9,24.8c0,0-65.3-34.4-76.5,13.7c-2.2,9.5-1.6,19.4,1.6,28.6c3.4,9.9,10.3,22.5,24,29l2.7-30.6h1.1
	c4.6,0,8.4-3.7,8.4-8.4V40.4C571.2,40.4,624.1,53.3,609.9,24.8z"/>
<ellipse class="st18" cx="563.5" cy="67.1" rx="3.5" ry="6.7"/>
<ellipse transform="matrix(0.4526 -0.8917 0.8917 0.4526 192.1149 653.351)" class="st20" cx="628.2" cy="170.2" rx="3.5" ry="3.5"/>
<g class="st0">
	
		<linearGradient id="SVGID_5_" gradientUnits="userSpaceOnUse" x1="542.2317" y1="-125.2519" x2="542.2317" y2="359.4184" gradientTransform="matrix(1 0 0 -1 -147.13 413)">
		<stop  offset="0" style="stop-color:#808080;stop-opacity:0.25"/>
		<stop  offset="0.54" style="stop-color:#808080;stop-opacity:0.12"/>
		<stop  offset="1" style="stop-color:#808080;stop-opacity:0.1"/>
	</linearGradient>
	<path class="st22" d="M439.8,291.2c-0.1-11.2-6.8-21.9-11.7-28.1l2.3-3.2l-6.8-40.8c0,0-0.3-3.9-0.4-10.8
		c1.3-9.8,1.9-19.7,1.6-29.6c0.5-4.4,1.1-9.1,1.9-14c2.6-16.1-2.9-26.2-9-32.2c-3.6-3.7-7.9-6.5-12.8-8.2h-0.1
		c0.4-1.3,0.8-2.3,1.1-3.2c0.2-0.4,0.3-0.7,0.4-0.9c14.7-4,23.4-19.1,19.4-33.8c-0.7-2.6-1.8-5-3.2-7.3c4.1-3-1.1-4.3-1.1-4.3l0,0
		c-3.4-14.8-18.2-24.1-33-20.6c-14.8,3.4-24.1,18.2-20.6,33c0.4,1.7,0.9,3.4,1.7,5c-0.6,8.3,1.3,18.9,13.2,23.7l0,0l0.5,0.3
		c-3.5,2.9-7.5,5.1-11.8,6.5c-7.4,0.8-17.4,6.9-25.2,29.7c-7.9,22.9-9.7,56.6-9.6,82.1c0,17.9,0.8,32,1.1,35.8h-1
		c-11.2,33.4,14.2,122.4,14.2,122.4l-3.7,110.1h1.9l-3.3,24.9c0,0,11.2,4.6,14.5,3.5s9.2,3.2,9.2,3.2s24.9,7.9,29.8,0.8
		c1.9-2.7,1.4-4.7-0.4-6.4c7.7,1.9,20.8,4.2,24.2-0.8c4.9-7.1-6.2-9.2-15.2-14.6c-5.9-3.5-9.6-13.5-11.4-20h1.9l23.1-114.9V304
		c1.2,0.6,2.3,1.1,3.4,1.6v231.5H435V308.8c2.7,0.4,5.3-1.5,5.7-4.2c0.1-0.4,0.1-0.9,0-1.3c-0.1-0.8-0.2-1.5-0.3-2.2
		c3.3,1.6,5.8,7,7.2,11c2,6.1,8.8-6.5,8.8-6.5C451,294.8,445,291.3,439.8,291.2z"/>
</g>
<rect x="423.8" y="299.1" class="st4" width="9.8" height="229.3"/>
<path class="st4" d="M423.8,299.1c0,0,16.7-21,30.5,6.2c0,0-6.5,12.1-8.5,6.2s-6.7-14.7-12.2-9.5"/>
<path class="st14" d="M422.3,259c0,0,24.7,24.3,12.6,44.9c-1.4,2.3-4.3,3.1-6.7,1.7c-0.3-0.2-0.7-0.4-0.9-0.7
	c-4.2-4.1-10.8-14.5-19-40L422.3,259z"/>
<path class="st9" d="M404.9,130.9c0,0,25.5,7.9,20.6,38.6s-3,52.4-3,52.4l6.5,39.3l-11.8,16.1c0,0-20.3-20.3-27.2-41
	S384,134.1,404.9,130.9z"/>
<path class="st6" d="M404.6,130.5c0,0,25.5,7.9,20.6,38.6s-3,52.4-3,52.4l6.6,39.3L417,277c0,0-20.3-20.4-27.2-41
	S383.6,133.8,404.6,130.5z"/>
<path d="M374.6,481.2l-4.2,31.4c0,0,10.8,4.4,14,3.4s8.9,3,8.9,3s24,7.6,28.7,0.8s-6-8.9-14.7-14s-12.3-25-12.3-25L374.6,481.2z"/>
<path class="st5" d="M420.5,259.8v116l-22.3,110.7h-23.6l3.6-106.1c0,0-24.6-85.8-13.8-117.9L420.5,259.8z"/>
<path class="st14" d="M402.3,274.4c0,0,34.3,4.9,36.8,28.6c0.3,2.7-1.7,5.1-4.3,5.3c-0.4,0-0.8,0-1.2,0c-5.8-0.8-17.3-5.2-39-20.8
	L402.3,274.4z"/>
<path class="st14" d="M406.6,125.3c0,0-5.6,9.5-3.3,25.9c0,0-32.9-2.8-31.9-21.8c0,0,16-3.9,19.8-18.5L406.6,125.3z"/>
<path d="M351.7,488l-4.2,31.4c0,0,10.8,4.4,14,3.4s8.9,3,8.9,3s24,7.6,28.7,0.8s-6-8.9-14.7-14s-12.3-25-12.3-25L351.7,488z"/>
<path class="st9" d="M395.8,268.8v116l-22.3,110.7h-23.6l3.6-106.1c0,0-24.6-85.8-13.8-117.9L395.8,268.8z"/>
<path class="st5" d="M394.8,268.8v116l-22.3,110.7h-23.6l3.6-106.1c0,0-24.6-85.8-13.8-117.9L394.8,268.8z"/>
<path class="st9" d="M383,131.2c0,0-20.6-13.4-34.4,26.5s-8.2,113.7-8.2,113.7s58.6,19,79.6-7.5v-39.6c0,0,11.1-45.2-4.6-84.5
	C415.4,139.7,401.7,145.3,383,131.2z"/>
<path class="st9" d="M382.3,132.2c0,0-20.6-13.4-34.4,26.5s-8.2,113.7-8.2,113.7s58.6,19,79.6-7.5v-39.6c0,0,11.1-45.2-4.6-84.5
	C414.8,140.7,401,146.3,382.3,132.2z"/>
<path class="st6" d="M382.3,131.2c0,0-20.6-13.4-34.4,26.5s-8.2,113.7-8.2,113.7s58.6,19,79.6-7.5v-39.6c0,0,11.1-45.2-4.6-84.5
	C414.8,139.7,401,145.3,382.3,131.2z"/>
<path class="st9" d="M361.4,151.2c0,0,25.5,7.8,20.6,38.6s-3,52.4-3,52.4l32.8,33.1l-11.8,16c0,0-46.5-14.1-53.4-34.7
	S340.4,154.4,361.4,151.2z"/>
<path class="st9" d="M359.7,152.1c0,0,25.6,7.9,20.6,38.6s-3,52.4-3,52.4l32.8,33.1l-11.8,16c0,0-46.5-14.1-53.4-34.7
	S338.8,155.4,359.7,152.1z"/>
<path class="st6" d="M360.4,151.2c0,0,25.5,7.9,20.6,38.6s-3,52.4-3,52.4l32.8,33.1l-11.8,16c0,0-46.5-14.1-53.4-34.7
	S339.4,154.4,360.4,151.2z"/>
<path class="st9" d="M390.7,112l15.4,14.4c-0.3,0.5-0.5,0.9-0.7,1.4c-2.2,0.6-4.5,0.9-6.8,0.9c-5.9,0-11-3-15.4-6.2
	C386.2,119.7,388.9,117,390.7,112z"/>
<circle class="st21" cx="394.6" cy="88.8" r="26.5"/>
<circle class="st14" cx="399" cy="101.1" r="26.5"/>
<path class="st21" d="M372.7,88.8c0,0-9.9,26,11.1,34l0,0c6.1-3.1,8.5-10.6,5.4-16.7c-0.6-1.2-1.4-2.2-2.3-3.2L372.7,88.8z"/>
<path class="st21" d="M420.5,82.9c0,0,9.2,2.2-6.9,7.8c-5.3,1.8-9.7,5.7-12,10.8c-2.9,6.3-10.3,9-16.6,6.1c-0.2-0.1-0.5-0.2-0.7-0.4
	l-5.1-2.8l-8.8-20.6l10.5-12.1l18-2.3L420.5,82.9z"/>
<ellipse class="st14" cx="392" cy="109.7" rx="2.6" ry="4.6"/>
<path class="st5" d="M383,131.2c0,0,17.8,28,28,28s-7.1-26.3-7.1-26.3l-0.4,7.3L383,131.2z"/>
<g class="st0">
	
		<linearGradient id="SVGID_6_" gradientUnits="userSpaceOnUse" x1="596.315" y1="32.6394" x2="596.315" y2="174.3" gradientTransform="matrix(1 0 0 -1 -147.13 413)">
		<stop  offset="0" style="stop-color:#808080;stop-opacity:0.25"/>
		<stop  offset="0.54" style="stop-color:#808080;stop-opacity:0.12"/>
		<stop  offset="1" style="stop-color:#808080;stop-opacity:0.1"/>
	</linearGradient>
	<path class="st23" d="M485.8,380.4c-59.3,0-120.8-6-183.7-18.1c-169.2-32.4-260.6-95.1-265.6-97.8l-15.1-25.1l0,0
		c1.4,0.8,121.6,64.7,286.7,96.1C459.6,364.4,681.3,371,877,238.7l-4.3,30.2c-90,60.9-173,91.3-285.4,105.3
		C553.6,378.3,519.7,380.4,485.8,380.4z"/>
</g>
<path class="st24" d="M485.8,376c-59.3,0-120.8-6-183.7-18.1c-169.2-32.4-260.6-95.1-265.6-97.8L21.4,235l0,0
	c1.4,0.8,121.6,64.7,286.7,96.1C459.6,360,681.2,366.6,877,234.3l-4.3,30.2c-90,60.9-173,91.3-285.4,105.3
	C553.6,374,519.7,376,485.8,376z"/>
<g class="st0">
	
		<linearGradient id="SVGID_7_" gradientUnits="userSpaceOnUse" x1="183.985" y1="-114.34" x2="183.985" y2="213.6782" gradientTransform="matrix(1 0 0 -1 -147.13 413)">
		<stop  offset="0" style="stop-color:#808080;stop-opacity:0.25"/>
		<stop  offset="0.54" style="stop-color:#808080;stop-opacity:0.12"/>
		<stop  offset="1" style="stop-color:#808080;stop-opacity:0.1"/>
	</linearGradient>
	<path class="st25" d="M52,490.5h-4.8V237.8c9.9-5.7,13.3-18.3,7.6-28.2s-18.3-13.3-28.2-7.6c-9.9,5.7-13.3,18.3-7.6,28.2
		c1.8,3.1,4.4,5.7,7.6,7.6v252.6h-4.8c-12,0-21.7,9.7-21.7,21.7v15.1h73.7v-15.1C73.7,500.2,64,490.5,52,490.5
		C52,490.5,52,490.5,52,490.5z"/>
</g>
<rect x="27" y="214.6" class="st21" width="19.8" height="279.9"/>
<path class="st21" d="M20.5,485.3h32.7c10.5,0,19,8.5,19,19v16.3l0,0H1.5l0,0v-16.3C1.5,493.8,10,485.3,20.5,485.3z"/>
<circle class="st9" cx="36.8" cy="227.3" r="19.8"/>
<circle class="st21" cx="36.8" cy="225.9" r="19.8"/>
<path class="st9" d="M26.9,486.7c0,0,12.7,4.2,19.8,0"/>
<rect x="859.6" y="214.6" class="st21" width="19.8" height="279.9"/>
<path class="st21" d="M853.2,485.3h32.7c10.5,0,19,8.5,19,19v16.3l0,0h-70.7l0,0v-16.3C834.2,493.8,842.7,485.3,853.2,485.3
	L853.2,485.3z"/>
<circle class="st9" cx="869.5" cy="227.3" r="19.8"/>
<circle class="st21" cx="869.5" cy="225.9" r="19.8"/>
<path class="st9" d="M859.6,486.7c0,0,12.7,4.2,19.8,0"/>
</svg>
