<?xml version="1.0" encoding="utf-8"?>
<!-- Generator: Adobe Illustrator 23.0.3, SVG Export Plug-In . SVG Version: 6.00 Build 0)  -->
<svg version="1.1" id="Ebene_2" xmlns="http://www.w3.org/2000/svg" xmlns:xlink="http://www.w3.org/1999/xlink" x="0px" y="0px"
	 viewBox="0 0 1069.15 100" style="enable-background:new 0 0 1069.15 100;" xml:space="preserve">
<style type="text/css">
	.st0{fill:#FFFFFF;}
	.st1{fill:#D73534;}
</style>
<g>
	<path class="st0" d="M235.69,60.15v29h-15.1v-29.4c0-4.27-0.65-7.4-1.95-9.4c-1.3-2-3.4-3-6.3-3s-5.47,1.08-7.7,3.25
		c-2.23,2.17-3.35,5.35-3.35,9.55v29h-15v-53.8h15v6.1c4.13-4.67,8.87-7,14.2-7c3.4,0,6.48,1,9.25,3c2.77,2,4.85,4.43,6.25,7.3
		c2.07-3.27,4.85-5.8,8.35-7.6s7.02-2.7,10.55-2.7c6.33,0,11.43,1.88,15.3,5.65c3.87,3.77,5.8,9.22,5.8,16.35v32.7h-15.1v-29.4
		c0-8.27-3.03-12.4-9.1-12.4c-3,0-5.6,1.08-7.8,3.25C236.79,52.77,235.69,55.95,235.69,60.15z"/>
	<path class="st0" d="M330.29,89.15h-14.1v-6.5c-3.87,4.87-8.65,7.3-14.35,7.3c-5.7,0-10.48-1.65-14.35-4.95
		c-3.87-3.3-5.8-7.7-5.8-13.2s2-9.62,6-12.35c4-2.73,9.47-4.1,16.4-4.1h11.2v-0.3c0-5.73-3.03-8.6-9.1-8.6
		c-2.6,0-5.35,0.52-8.25,1.55c-2.9,1.03-5.35,2.32-7.35,3.85l-6.7-9.7c7.07-5.13,15.13-7.7,24.2-7.7c6.53,0,11.87,1.63,16,4.9
		c4.13,3.27,6.2,8.43,6.2,15.5V89.15z M315.19,68.65v-2.6h-9.4c-6,0-9,1.87-9,5.6c0,1.93,0.72,3.42,2.15,4.45
		c1.43,1.03,3.48,1.55,6.15,1.55c2.67,0,5.02-0.82,7.05-2.45C314.17,73.57,315.19,71.38,315.19,68.65z"/>
	<path class="st0" d="M358.99,89.15h-15v-74.2h15v38.1l16.7-17.8h18.9l-20.5,21.8l21.3,32.1h-17.8l-13.7-20.6l-4.9,5.1V89.15z"/>
	<path class="st0" d="M450.09,81.35c-6.07,5.73-13.19,8.6-21.35,8.6c-8.17,0-14.92-2.52-20.25-7.55c-5.33-5.03-8-11.78-8-20.25
		c0-8.47,2.72-15.2,8.15-20.2c5.43-5,11.85-7.5,19.25-7.5c7.4,0,13.68,2.23,18.85,6.7c5.17,4.47,7.75,10.6,7.75,18.4v8h-39.2
		c0.47,2.93,2,5.33,4.6,7.2c2.6,1.87,5.53,2.8,8.8,2.8c5.27,0,9.6-1.77,13-5.3L450.09,81.35z M435.69,49.45
		c-2.07-1.73-4.58-2.6-7.55-2.6s-5.68,0.9-8.15,2.7c-2.47,1.8-3.9,4.23-4.3,7.3h23.6C438.95,53.65,437.75,51.18,435.69,49.45z"/>
	<path class="st0" d="M493.59,48.55c-4.47,0-7.8,1.58-10,4.75c-2.2,3.17-3.3,7.35-3.3,12.55v23.3h-15v-53.8h15v7.1
		c1.93-2.2,4.35-4.07,7.25-5.6c2.9-1.53,5.85-2.33,8.85-2.4l0.1,14.1H493.59z"/>
	<path class="st0" d="M521.39,60.15v29h-15v-74.2h15v26.4c4.53-4.6,9.62-6.9,15.25-6.9c5.63,0,10.38,2,14.25,6
		c3.87,4,5.8,9.33,5.8,16v32.7h-15v-29.4c0-8.27-3.04-12.4-9.1-12.4c-3,0-5.62,1.08-7.85,3.25
		C522.5,52.77,521.39,55.95,521.39,60.15z"/>
	<path class="st0" d="M604.99,64.35v-29h15.1v53.8h-15.1v-7.1c-3.73,5.27-8.55,7.9-14.45,7.9c-5.9,0-10.85-1.85-14.85-5.55
		s-6-9.18-6-16.45v-32.6h15.1v29.3c0,8.27,3.03,12.4,9.1,12.4c3,0,5.6-1.08,7.8-3.25C603.89,71.63,604.99,68.48,604.99,64.35z"/>
	<path class="st0" d="M665.29,34.45c6.53,0,12.23,2.55,17.1,7.65c4.87,5.1,7.3,11.65,7.3,19.65s-2.5,14.7-7.5,20.1
		c-5,5.4-10.68,8.1-17.05,8.1c-6.37,0-11.65-2.63-15.85-7.9v7.1h-15v-74.2h15v26.4C653.42,36.75,658.75,34.45,665.29,34.45z
		 M649.09,62.3c0,4.37,1.21,7.93,3.65,10.7c2.43,2.77,5.38,4.15,8.85,4.15c3.46,0,6.5-1.38,9.1-4.15c2.6-2.77,3.9-6.32,3.9-10.65
		c0-4.33-1.27-7.97-3.8-10.9c-2.53-2.93-5.57-4.4-9.1-4.4c-3.53,0-6.52,1.45-8.95,4.35C650.3,54.3,649.09,57.93,649.09,62.3z"/>
</g>
<g>
	<path class="st0" d="M724.45,88c-4-1.17-7.13-2.65-9.4-4.45l4-7.6c2.33,1.67,5.17,3,8.5,4c3.33,1,6.7,1.5,10.1,1.5
		c8.4,0,12.6-2.4,12.6-7.2c0-1.6-0.57-2.87-1.7-3.8c-1.13-0.93-2.55-1.62-4.25-2.05c-1.7-0.43-4.12-0.92-7.25-1.45
		c-4.27-0.67-7.75-1.43-10.45-2.3c-2.7-0.87-5.02-2.33-6.95-4.4c-1.93-2.07-2.9-4.97-2.9-8.7c0-4.8,2-8.65,6-11.55
		c4-2.9,9.37-4.35,16.1-4.35c3.53,0,7.07,0.43,10.6,1.3c3.53,0.87,6.43,2.03,8.7,3.5l-4.1,7.6c-4.33-2.8-9.43-4.2-15.3-4.2
		c-4.07,0-7.17,0.67-9.3,2c-2.13,1.33-3.2,3.1-3.2,5.3c0,1.73,0.6,3.1,1.8,4.1s2.68,1.73,4.45,2.2c1.77,0.47,4.25,1,7.45,1.6
		c4.27,0.73,7.72,1.52,10.35,2.35c2.63,0.83,4.88,2.25,6.75,4.25c1.87,2,2.8,4.8,2.8,8.4c0,4.8-2.05,8.62-6.15,11.45
		c-4.1,2.83-9.68,4.25-16.75,4.25C732.62,89.75,728.45,89.17,724.45,88z"/>
	<path class="st0" d="M801.65,86.05c-1.4,1.2-3.13,2.12-5.2,2.75c-2.07,0.63-4.2,0.95-6.4,0.95c-5.33,0-9.47-1.43-12.4-4.3
		c-2.93-2.87-4.4-6.97-4.4-12.3v-29.1h-9v-7.9h9v-11.6h9.6v11.6h15.2v7.9h-15.2v28.7c0,2.87,0.72,5.07,2.15,6.6
		c1.43,1.53,3.48,2.3,6.15,2.3c2.93,0,5.43-0.83,7.5-2.5L801.65,86.05z"/>
	<path class="st0" d="M862.65,36.15v53h-9.1v-8c-1.93,2.73-4.48,4.85-7.65,6.35c-3.17,1.5-6.62,2.25-10.35,2.25
		c-7.07,0-12.63-1.95-16.7-5.85c-4.07-3.9-6.1-9.65-6.1-17.25v-30.5h9.6v29.4c0,5.13,1.23,9.02,3.7,11.65
		c2.47,2.63,6,3.95,10.6,3.95c5.07,0,9.07-1.53,12-4.6c2.93-3.07,4.4-7.4,4.4-13v-27.4H862.65z"/>
	<path class="st0" d="M930.95,14.95v74.2h-9.2v-8.4c-2.13,2.93-4.83,5.17-8.1,6.7c-3.27,1.53-6.87,2.3-10.8,2.3
		c-5.13,0-9.73-1.13-13.8-3.4c-4.07-2.27-7.25-5.45-9.55-9.55c-2.3-4.1-3.45-8.82-3.45-14.15c0-5.33,1.15-10.03,3.45-14.1
		c2.3-4.07,5.48-7.23,9.55-9.5c4.07-2.27,8.67-3.4,13.8-3.4c3.8,0,7.3,0.72,10.5,2.15c3.2,1.43,5.87,3.55,8,6.35v-29.2H930.95z
		 M912.75,79c2.73-1.57,4.87-3.77,6.4-6.6c1.53-2.83,2.3-6.08,2.3-9.75c0-3.67-0.77-6.92-2.3-9.75c-1.53-2.83-3.67-5.02-6.4-6.55
		c-2.73-1.53-5.77-2.3-9.1-2.3c-3.4,0-6.45,0.77-9.15,2.3c-2.7,1.53-4.83,3.72-6.4,6.55c-1.57,2.83-2.35,6.08-2.35,9.75
		c0,3.67,0.78,6.92,2.35,9.75c1.57,2.83,3.7,5.03,6.4,6.6c2.7,1.57,5.75,2.35,9.15,2.35C906.98,81.35,910.01,80.57,912.75,79z"/>
	<path class="st0" d="M949.3,24.15c-1.23-1.2-1.85-2.67-1.85-4.4c0-1.73,0.62-3.22,1.85-4.45c1.23-1.23,2.78-1.85,4.65-1.85
		c1.87,0,3.42,0.58,4.65,1.75c1.23,1.17,1.85,2.62,1.85,4.35c0,1.8-0.62,3.32-1.85,4.55c-1.23,1.23-2.78,1.85-4.65,1.85
		C952.08,25.95,950.53,25.35,949.3,24.15z M949.15,36.15h9.6v53h-9.6V36.15z"/>
	<path class="st0" d="M985.55,86.25c-4.2-2.33-7.48-5.55-9.85-9.65c-2.37-4.1-3.55-8.75-3.55-13.95s1.18-9.85,3.55-13.95
		c2.37-4.1,5.65-7.3,9.85-9.6c4.2-2.3,8.93-3.45,14.2-3.45c5.27,0,9.98,1.15,14.15,3.45c4.17,2.3,7.43,5.5,9.8,9.6
		c2.37,4.1,3.55,8.75,3.55,13.95s-1.18,9.85-3.55,13.95c-2.37,4.1-5.63,7.32-9.8,9.65c-4.17,2.33-8.88,3.5-14.15,3.5
		C994.48,89.75,989.75,88.58,985.55,86.25z M1008.9,79c2.7-1.57,4.82-3.77,6.35-6.6c1.53-2.83,2.3-6.08,2.3-9.75
		c0-3.67-0.77-6.92-2.3-9.75c-1.53-2.83-3.65-5.02-6.35-6.55c-2.7-1.53-5.75-2.3-9.15-2.3c-3.4,0-6.45,0.77-9.15,2.3
		c-2.7,1.53-4.83,3.72-6.4,6.55c-1.57,2.83-2.35,6.08-2.35,9.75c0,3.67,0.78,6.92,2.35,9.75c1.57,2.83,3.7,5.03,6.4,6.6
		c2.7,1.57,5.75,2.35,9.15,2.35C1003.15,81.35,1006.2,80.57,1008.9,79z"/>
</g>
<g>
	<path class="st1" d="M140.03,50.26l-11.02-3.76c6.89-6.55,9.57-25.86-0.62-36.45C100.9-18.51,48.53,22.87,48.53,22.87
		s-63.19,22.6-45.36,54.98c16.73,30.39,51.32,17.39,55.49,15.69c0.29,0.14,0.58,0.27,0.88,0.41c49.87,22.7,94.18-25.31,96.39-30.92
		S140.03,50.26,140.03,50.26z"/>
	<path class="st0" d="M92.35,69.21l26.25-21.24c0,0,11.06-21.16-6.84-25.84C92.22,20.09,65.72,69.46,92.35,69.21z"/>
</g>
<g>
</g>
<g>
</g>
<g>
</g>
<g>
</g>
<g>
</g>
<g>
</g>
<g>
</g>
<g>
</g>
<g>
</g>
<g>
</g>
<g>
</g>
<g>
</g>
<g>
</g>
<g>
</g>
<g>
</g>
</svg>
