<?xml version="1.0" encoding="utf-8"?>
<!-- Generator: Adobe Illustrator 23.0.3, SVG Export Plug-In . SVG Version: 6.00 Build 0)  -->
<svg version="1.1" id="Ebene_2" xmlns="http://www.w3.org/2000/svg" xmlns:xlink="http://www.w3.org/1999/xlink" x="0px" y="0px"
	 viewBox="0 0 752.12 475.42" style="enable-background:new 0 0 752.12 475.42;" xml:space="preserve">
<style type="text/css">
	.st0{fill:#D73534;}
	.st1{fill:#FFFFFF;}
</style>
<g>
	<path class="st0" d="M679.76,257.57l-51.34-22.67c35.82-28.55,56.84-120.19,12.34-175.33c-120.06-148.77-389,28-389,28
		s-313,82-241,245c67.59,153.02,239.18,105.1,259.93,98.66c1.34,0.78,2.68,1.55,4.07,2.34c230,130,463-82,476-108
		S679.76,257.57,679.76,257.57z"/>
	<path class="st1" d="M442.76,328.57l135-91c0,0,62-97-22-127C462.76,92.57,314.76,318.57,442.76,328.57z"/>
</g>
</svg>
